  0
SECTION
  2
HEADER
  9
$ACADVER
  1
AC1015
  9
$ACADMAINTVER
 70
     6
  9
$DWGCODEPAGE
  3
ANSI_1252
  9
$INSBASE
 10
0.0
 20
0.0
 30
0.0
  9
$EXTMIN
 10
-8.75
 20
0.1035143673
 30
0.0
  9
$EXTMAX
 10
8.75
 20
7.125
 30
0.0
  9
$LIMMIN
 10
0.0
 20
0.0
  9
$LIMMAX
 10
12.0
 20
9.0
  9
$ORTHOMODE
 70
     0
  9
$REGENMODE
 70
     1
  9
$FILLMODE
 70
     1
  9
$QTEXTMODE
 70
     0
  9
$MIRRTEXT
 70
     1
  9
$LTSCALE
 40
1.0
  9
$ATTMODE
 70
     1
  9
$TEXTSIZE
 40
0.1377952756
  9
$TRACEWID
 40
0.05
  9
$TEXTSTYLE
  7
Standard
  9
$CLAYER
  8
0
  9
$CELTYPE
  6
ByLayer
  9
$CECOLOR
 62
   256
  9
$CELTSCALE
 40
1.0
  9
$DISPSILH
 70
     0
  9
$DIMSCALE
 40
1.0
  9
$DIMASZ
 40
0.13
  9
$DIMEXO
 40
0.0
  9
$DIMDLI
 40
0.38
  9
$DIMRND
 40
0.0
  9
$DIMDLE
 40
0.0
  9
$DIMEXE
 40
0.0393700787
  9
$DIMTP
 40
0.0
  9
$DIMTM
 40
0.0
  9
$DIMTXT
 40
0.1377952756
  9
$DIMCEN
 40
0.09
  9
$DIMTSZ
 40
0.0
  9
$DIMTOL
 70
     0
  9
$DIMLIM
 70
     0
  9
$DIMTIH
 70
     1
  9
$DIMTOH
 70
     1
  9
$DIMSE1
 70
     0
  9
$DIMSE2
 70
     0
  9
$DIMTAD
 70
     1
  9
$DIMZIN
 70
     1
  9
$DIMBLK
  1

  9
$DIMASO
 70
     1
  9
$DIMSHO
 70
     1
  9
$DIMPOST
  1

  9
$DIMAPOST
  1

  9
$DIMALT
 70
     0
  9
$DIMALTD
 70
     2
  9
$DIMALTF
 40
25.4
  9
$DIMLFAC
 40
1.0
  9
$DIMTOFL
 70
     0
  9
$DIMTVP
 40
0.0
  9
$DIMTIX
 70
     0
  9
$DIMSOXD
 70
     0
  9
$DIMSAH
 70
     0
  9
$DIMBLK1
  1

  9
$DIMBLK2
  1

  9
$DIMSTYLE
  2
Standard
  9
$DIMCLRD
 70
     0
  9
$DIMCLRE
 70
     0
  9
$DIMCLRT
 70
     0
  9
$DIMTFAC
 40
1.0
  9
$DIMGAP
 40
0.06
  9
$DIMJUST
 70
     0
  9
$DIMSD1
 70
     0
  9
$DIMSD2
 70
     0
  9
$DIMTOLJ
 70
     1
  9
$DIMTZIN
 70
     1
  9
$DIMALTZ
 70
     0
  9
$DIMALTTZ
 70
     0
  9
$DIMUPT
 70
     0
  9
$DIMDEC
 70
     2
  9
$DIMTDEC
 70
     2
  9
$DIMALTU
 70
     2
  9
$DIMALTTD
 70
     2
  9
$DIMTXSTY
  7
Standard
  9
$DIMAUNIT
 70
     0
  9
$DIMADEC
 70
     2
  9
$DIMALTRND
 40
0.0
  9
$DIMAZIN
 70
     0
  9
$DIMDSEP
 70
    46
  9
$DIMATFIT
 70
     3
  9
$DIMFRAC
 70
     0
  9
$DIMLDRBLK
  1

  9
$DIMLUNIT
 70
     2
  9
$DIMLWD
 70
    -2
  9
$DIMLWE
 70
    -2
  9
$DIMTMOVE
 70
     0
  9
$LUNITS
 70
     2
  9
$LUPREC
 70
     2
  9
$SKETCHINC
 40
0.1
  9
$FILLETRAD
 40
0.0
  9
$AUNITS
 70
     0
  9
$AUPREC
 70
     2
  9
$MENU
  1
.
  9
$ELEVATION
 40
0.0
  9
$PELEVATION
 40
0.0
  9
$THICKNESS
 40
0.0
  9
$LIMCHECK
 70
     0
  9
$CHAMFERA
 40
0.0
  9
$CHAMFERB
 40
0.0
  9
$CHAMFERC
 40
0.0
  9
$CHAMFERD
 40
0.0
  9
$SKPOLY
 70
     0
  9
$TDCREATE
 40
2460350.663865787
  9
$TDUCREATE
 40
2460350.87219912
  9
$TDUPDATE
 40
2460350.664062986
  9
$TDUUPDATE
 40
2460350.87239632
  9
$TDINDWG
 40
0.0000000116
  9
$TDUSRTIMER
 40
0.0000000116
  9
$USRTIMER
 70
     1
  9
$ANGBASE
 50
0.0
  9
$ANGDIR
 70
     0
  9
$PDMODE
 70
     0
  9
$PDSIZE
 40
-1.0
  9
$PLINEWID
 40
0.0
  9
$SPLFRAME
 70
     0
  9
$SPLINETYPE
 70
     6
  9
$SPLINESEGS
 70
     8
  9
$HANDSEED
  5
2BF
  9
$SURFTAB1
 70
     6
  9
$SURFTAB2
 70
     6
  9
$SURFTYPE
 70
     6
  9
$SURFU
 70
     6
  9
$SURFV
 70
     6
  9
$UCSBASE
  2

  9
$UCSNAME
  2

  9
$UCSORG
 10
0.0
 20
0.0
 30
0.0
  9
$UCSXDIR
 10
1.0
 20
0.0
 30
0.0
  9
$UCSYDIR
 10
0.0
 20
1.0
 30
0.0
  9
$UCSORTHOREF
  2

  9
$UCSORTHOVIEW
 70
     0
  9
$UCSORGTOP
 10
0.0
 20
0.0
 30
0.0
  9
$UCSORGBOTTOM
 10
0.0
 20
0.0
 30
0.0
  9
$UCSORGLEFT
 10
0.0
 20
0.0
 30
0.0
  9
$UCSORGRIGHT
 10
0.0
 20
0.0
 30
0.0
  9
$UCSORGFRONT
 10
0.0
 20
0.0
 30
0.0
  9
$UCSORGBACK
 10
0.0
 20
0.0
 30
0.0
  9
$PUCSBASE
  2

  9
$PUCSNAME
  2

  9
$PUCSORG
 10
0.0
 20
0.0
 30
0.0
  9
$PUCSXDIR
 10
1.0
 20
0.0
 30
0.0
  9
$PUCSYDIR
 10
0.0
 20
1.0
 30
0.0
  9
$PUCSORTHOREF
  2

  9
$PUCSORTHOVIEW
 70
     0
  9
$PUCSORGTOP
 10
0.0
 20
0.0
 30
0.0
  9
$PUCSORGBOTTOM
 10
0.0
 20
0.0
 30
0.0
  9
$PUCSORGLEFT
 10
0.0
 20
0.0
 30
0.0
  9
$PUCSORGRIGHT
 10
0.0
 20
0.0
 30
0.0
  9
$PUCSORGFRONT
 10
0.0
 20
0.0
 30
0.0
  9
$PUCSORGBACK
 10
0.0
 20
0.0
 30
0.0
  9
$USERI1
 70
     0
  9
$USERI2
 70
     0
  9
$USERI3
 70
     0
  9
$USERI4
 70
     0
  9
$USERI5
 70
     0
  9
$USERR1
 40
0.0
  9
$USERR2
 40
0.0
  9
$USERR3
 40
0.0
  9
$USERR4
 40
0.0
  9
$USERR5
 40
0.0
  9
$WORLDVIEW
 70
     1
  9
$SHADEDGE
 70
     3
  9
$SHADEDIF
 70
    70
  9
$TILEMODE
 70
     1
  9
$MAXACTVP
 70
    64
  9
$PINSBASE
 10
0.0
 20
0.0
 30
0.0
  9
$PLIMCHECK
 70
     0
  9
$PEXTMIN
 10
1.0000000000E+20
 20
1.0000000000E+20
 30
1.0000000000E+20
  9
$PEXTMAX
 10
-1.0000000000E+20
 20
-1.0000000000E+20
 30
-1.0000000000E+20
  9
$PLIMMIN
 10
0.0
 20
0.0
  9
$PLIMMAX
 10
12.0
 20
9.0
  9
$UNITMODE
 70
     0
  9
$VISRETAIN
 70
     1
  9
$PLINEGEN
 70
     0
  9
$PSLTSCALE
 70
     1
  9
$TREEDEPTH
 70
  3020
  9
$CMLSTYLE
  2
Standard
  9
$CMLJUST
 70
     0
  9
$CMLSCALE
 40
1.0
  9
$PROXYGRAPHICS
 70
     1
  9
$MEASUREMENT
 70
     0
  9
$CELWEIGHT
370
    -1
  9
$ENDCAPS
280
     0
  9
$JOINSTYLE
280
     0
  9
$LWDISPLAY
290
     1
  9
$INSUNITS
 70
     1
  9
$HYPERLINKBASE
  1

  9
$STYLESHEET
  1

  9
$XEDIT
290
     1
  9
$CEPSNTYPE
380
     0
  9
$PSTYLEMODE
290
     1
  9
$FINGERPRINTGUID
  2
{89ffa939-ee5f-4f6c-8f66-310be5a240ad}
  9
$VERSIONGUID
  2
{FAEB1C32-E019-11D5-929B-00C0DF256EC4}
  9
$EXTNAMES
290
     1
  9
$PSVPSCALE
 40
0.0
  9
$OLESTARTUP
290
     0
  0
ENDSEC
  0
SECTION
  2
CLASSES
  0
CLASS
  1
ACDBDICTIONARYWDFLT
  2
AcDbDictionaryWithDefault
  3
ObjectDBX Classes
 90
        0
280
     0
281
     0
  0
CLASS
  1
VISUALSTYLE
  2
AcDbVisualStyle
  3
ObjectDBX Classes
 90
     4095
280
     0
281
     0
  0
CLASS
  1
MATERIAL
  2
AcDbMaterial
  3
ObjectDBX Classes
 90
     1153
280
     0
281
     0
  0
CLASS
  1
SCALE
  2
AcDbScale
  3
ObjectDBX Classes
 90
     1153
280
     0
281
     0
  0
CLASS
  1
TABLESTYLE
  2
AcDbTableStyle
  3
ObjectDBX Classes
 90
     4095
280
     0
281
     0
  0
CLASS
  1
MLEADERSTYLE
  2
AcDbMLeaderStyle
  3
ACDB_MLEADERSTYLE_CLASS
 90
     4095
280
     0
281
     0
  0
CLASS
  1
SUN
  2
AcDbSun
  3
SCENEOE
 90
     1153
280
     0
281
     0
  0
CLASS
  1
ACDBPLACEHOLDER
  2
AcDbPlaceHolder
  3
ObjectDBX Classes
 90
        0
280
     0
281
     0
  0
CLASS
  1
LAYOUT
  2
AcDbLayout
  3
ObjectDBX Classes
 90
        0
280
     0
281
     0
  0
ENDSEC
  0
SECTION
  2
TABLES
  0
TABLE
  2
VPORT
  5
8
330
0
100
AcDbSymbolTable
 70
     1
  0
VPORT
  5
29
330
8
100
AcDbSymbolTableRecord
100
AcDbViewportTableRecord
  2
*Active
 70
     0
 10
0.0
 20
0.0
 11
1.0
 21
1.0
 12
0.0
 22
3.6142571836
 13
0.0
 23
0.0
 14
0.5
 24
0.5
 15
0.5
 25
0.5
 16
0.0
 26
0.0
 36
1.0
 17
0.0
 27
0.0
 37
0.0
 40
7.1619153454
 41
2.4923500403
 42
50.0
 43
0.0
 44
0.0
 50
0.0
 51
0.0
 71
     0
 72
   100
 73
     1
 74
     3
 75
     0
 76
     0
 77
     0
 78
     0
281
     0
 65
     1
110
0.0
120
0.0
130
0.0
111
1.0
121
0.0
131
0.0
112
0.0
122
1.0
132
0.0
 79
     0
146
0.0
  0
ENDTAB
  0
TABLE
  2
LTYPE
  5
5
330
0
100
AcDbSymbolTable
 70
     6
  0
LTYPE
  5
14
330
5
100
AcDbSymbolTableRecord
100
AcDbLinetypeTableRecord
  2
ByBlock
 70
     0
  3

 72
    65
 73
     0
 40
0.0
  0
LTYPE
  5
15
330
5
100
AcDbSymbolTableRecord
100
AcDbLinetypeTableRecord
  2
ByLayer
 70
     0
  3

 72
    65
 73
     0
 40
0.0
  0
LTYPE
  5
16
330
5
100
AcDbSymbolTableRecord
100
AcDbLinetypeTableRecord
  2
Continuous
 70
     0
  3
Solid line
 72
    65
 73
     0
 40
0.0
  0
LTYPE
  5
5E
330
5
100
AcDbSymbolTableRecord
100
AcDbLinetypeTableRecord
  2
HIDDEN
 70
     0
  3
Hidden __ __ __ __ __ __ __ __ __ __ __ __ __ __
 72
    65
 73
     2
 40
0.075
 49
0.05
 74
     0
 49
-0.025
 74
     0
  0
LTYPE
  5
5F
330
5
100
AcDbSymbolTableRecord
100
AcDbLinetypeTableRecord
  2
PHANTOM
 70
     0
  3
Phantom ______  __  __  ______  __  __  ______
 72
    65
 73
     6
 40
0.5
 49
0.25
 74
     0
 49
-0.05
 74
     0
 49
0.05
 74
     0
 49
-0.05
 74
     0
 49
0.05
 74
     0
 49
-0.05
 74
     0
  0
LTYPE
  5
60
330
5
100
AcDbSymbolTableRecord
100
AcDbLinetypeTableRecord
  2
CENTER
 70
     0
  3
Center ____ _ ____ _ ____ _ ____ _ ____ _ ____
 72
    65
 73
     4
 40
0.4
 49
0.25
 74
     0
 49
-0.05
 74
     0
 49
0.05
 74
     0
 49
-0.05
 74
     0
  0
LTYPE
  5
61
330
5
100
AcDbSymbolTableRecord
100
AcDbLinetypeTableRecord
  2
CENTERX2
 70
     0
  3
Center (2x) ________  __  ________  __  _____
 72
    65
 73
     4
 40
0.8
 49
0.5
 74
     0
 49
-0.1
 74
     0
 49
0.1
 74
     0
 49
-0.1
 74
     0
  0
LTYPE
  5
62
330
5
100
AcDbSymbolTableRecord
100
AcDbLinetypeTableRecord
  2
DOT2
 70
     0
  3
Dot (.5x) ........................................
 72
    65
 73
     2
 40
0.025
 49
0.0
 74
     0
 49
-0.025
 74
     0
  0
ENDTAB
  0
TABLE
  2
LAYER
  5
2
330
0
100
AcDbSymbolTable
 70
     1
  0
LAYER
  5
10
330
2
100
AcDbSymbolTableRecord
100
AcDbLayerTableRecord
  2
0
 70
     0
 62
     7
  6
Continuous
370
    -3
390
F
  0
ENDTAB
  0
TABLE
  2
STYLE
  5
3
330
0
100
AcDbSymbolTable
 70
     2
  0
STYLE
  5
11
330
3
100
AcDbSymbolTableRecord
100
AcDbTextStyleTableRecord
  2
Standard
 70
     0
 40
0.0
 41
1.0
 50
0.0
 71
     0
 42
0.1377952756
  3
txt
  4

  0
STYLE
  5
2BB
330
3
100
AcDbSymbolTableRecord
100
AcDbTextStyleTableRecord
  2
SLDTEXTSTYLE0
 70
     0
 40
0.0
 41
0.7
 50
0.0
 71
     0
 42
0.1377952756
  3
TXT
  4

  0
ENDTAB
  0
TABLE
  2
VIEW
  5
6
330
0
100
AcDbSymbolTable
 70
     0
  0
ENDTAB
  0
TABLE
  2
UCS
  5
7
330
0
100
AcDbSymbolTable
 70
     0
  0
ENDTAB
  0
TABLE
  2
APPID
  5
9
330
0
100
AcDbSymbolTable
 70
     1
  0
APPID
  5
12
330
9
100
AcDbSymbolTableRecord
100
AcDbRegAppTableRecord
  2
ACAD
 70
     0
  0
ENDTAB
  0
TABLE
  2
DIMSTYLE
  5
A
330
0
100
AcDbSymbolTable
 70
     1
100
AcDbDimStyleTable
  0
DIMSTYLE
105
27
330
A
100
AcDbSymbolTableRecord
100
AcDbDimStyleTableRecord
  2
Standard
 70
     0
178
     0
340
11
  0
ENDTAB
  0
TABLE
  2
BLOCK_RECORD
  5
1
330
0
100
AcDbSymbolTable
 70
     1
  0
BLOCK_RECORD
  5
1F
330
1
100
AcDbSymbolTableRecord
100
AcDbBlockTableRecord
  2
*Model_Space
340
22
  0
BLOCK_RECORD
  5
1B
330
1
100
AcDbSymbolTableRecord
100
AcDbBlockTableRecord
  2
*Paper_Space
340
1E
  0
BLOCK_RECORD
  5
23
330
1
100
AcDbSymbolTableRecord
100
AcDbBlockTableRecord
  2
*Paper_Space0
340
26
  0
ENDTAB
  0
ENDSEC
  0
SECTION
  2
BLOCKS
  0
BLOCK
  5
20
330
1F
100
AcDbEntity
  8
0
100
AcDbBlockBegin
  2
*Model_Space
 70
     0
 10
0.0
 20
0.0
 30
0.0
  3
*Model_Space
  1

  0
ENDBLK
  5
21
330
1F
100
AcDbEntity
  8
0
100
AcDbBlockEnd
  0
BLOCK
  5
1C
330
1B
100
AcDbEntity
 67
     1
  8
0
100
AcDbBlockBegin
  2
*Paper_Space
 70
     0
 10
0.0
 20
0.0
 30
0.0
  3
*Paper_Space
  1

  0
ENDBLK
  5
1D
330
1B
100
AcDbEntity
 67
     1
  8
0
100
AcDbBlockEnd
  0
BLOCK
  5
24
330
23
100
AcDbEntity
  8
0
100
AcDbBlockBegin
  2
*Paper_Space0
 70
     0
 10
0.0
 20
0.0
 30
0.0
  3
*Paper_Space0
  1

  0
ENDBLK
  5
25
330
23
100
AcDbEntity
  8
0
100
AcDbBlockEnd
  0
ENDSEC
  0
SECTION
  2
ENTITIES
  0
CIRCLE
  5
93
330
1F
100
AcDbEntity
  8
0
  6
Continuous
 62
     7
370
    25
100
AcDbCircle
 10
7.75
 20
6.125
 30
0.0
 40
0.2500000000000018
  0
CIRCLE
  5
94
330
1F
100
AcDbEntity
  8
0
  6
Continuous
 62
     7
370
    25
100
AcDbCircle
 10
7.0
 20
6.125
 30
0.0
 40
0.25
  0
CIRCLE
  5
95
330
1F
100
AcDbEntity
  8
0
  6
Continuous
 62
     7
370
    25
100
AcDbCircle
 10
6.25
 20
6.125
 30
0.0
 40
0.25
  0
CIRCLE
  5
96
330
1F
100
AcDbEntity
  8
0
  6
Continuous
 62
     7
370
    25
100
AcDbCircle
 10
5.0
 20
6.125
 30
0.0
 40
0.375
  0
SPLINE
  5
B1
330
1F
100
AcDbEntity
  8
0
  6
Continuous
 62
     7
370
    25
100
AcDbSpline
210
0.0
220
0.0
230
1.0
 70
     8
 71
     3
 72
    23
 73
    19
 74
     0
 42
0.00000001
 43
0.00000001
 40
0.0
 40
0.0
 40
0.0
 40
0.0
 40
0.0787802355821468
 40
0.1537206442085846
 40
0.2267135303087792
 40
0.2991911660659405
 40
0.3711899968376727
 40
0.4430064143534141
 40
0.5166891732948847
 40
0.5932172166234212
 40
0.633872917807848
 40
0.6769891422899834
 40
0.7228995063258328
 40
0.7719586105061507
 40
0.8242113233348418
 40
0.8793786506272072
 40
0.937948119330421
 40
0.9999999999999999
 40
0.9999999999999999
 40
0.9999999999999999
 40
0.9999999999999999
 10
7.123010415666409
 20
5.444768549922506
 30
0.0
 10
7.122952581095209
 20
5.442932522181917
 30
0.0
 10
7.122839730867272
 20
5.439349956517034
 30
0.0
 10
7.121787561431046
 20
5.434150709217473
 30
0.0
 10
7.120064076402355
 20
5.429300736200134
 30
0.0
 10
7.117689143764196
 20
5.424806144156219
 30
0.0
 10
7.114664754956576
 20
5.420754543945189
 30
0.0
 10
7.111029920661172
 20
5.417195864602518
 30
0.0
 10
7.106782613122204
 20
5.414217915287915
 30
0.0
 10
7.102828703045859
 20
5.412152844236679
 30
0.0
 10
7.099336018018434
 20
5.410830288779009
 30
0.0
 10
7.096460690743314
 20
5.409899723469599
 30
0.0
 10
7.093324195566313
 20
5.409180748458691
 30
0.0
 10
7.089956583967659
 20
5.408536648782684
 30
0.0
 10
7.086343841625446
 20
5.408050361601127
 30
0.0
 10
7.082494627476268
 20
5.40769419646454
 30
0.0
 10
7.078406196309728
 20
5.407471596122088
 30
0.0
 10
7.075597571532044
 20
5.407438446323309
 30
0.0
 10
7.074152715787547
 20
5.40742139289646
 30
0.0
  0
SPLINE
  5
B2
330
1F
100
AcDbEntity
  8
0
  6
Continuous
 62
     7
370
    25
100
AcDbSpline
210
0.0
220
0.0
230
1.0
 70
     8
 71
     3
 72
    23
 73
    19
 74
     0
 42
0.00000001
 43
0.00000001
 40
0.0
 40
0.0
 40
0.0
 40
0.0
 40
0.0642168426314123
 40
0.127063765693114
 40
0.1887445383478178
 40
0.2491321028350425
 40
0.3094525327106119
 40
0.3698266762476803
 40
0.4306501418384661
 40
0.4923519318794664
 40
0.5540721062625281
 40
0.6156897837449684
 40
0.6767977025065347
 40
0.7384390482469496
 40
0.8013169100649048
 40
0.8651845117115349
 40
0.9316413244190725
 40
1.0
 40
1.0
 40
1.0
 40
1.0
 10
7.095241576074243
 20
5.479741830005283
 30
0.0
 10
7.09624971088278
 20
5.479492744754671
 30
0.0
 10
7.098244474247808
 20
5.478999887917981
 30
0.0
 10
7.101116524091896
 20
5.477958171350121
 30
0.0
 10
7.103853308499451
 20
5.476752674317654
 30
0.0
 10
7.106443459063293
 20
5.475336779816939
 30
0.0
 10
7.108874002023547
 20
5.473699977467629
 30
0.0
 10
7.111169998511525
 20
5.471870523828448
 30
0.0
 10
7.113341867148533
 20
5.469858429113078
 30
0.0
 10
7.115301773848547
 20
5.467612962912185
 30
0.0
 10
7.11714976800975
 20
5.465257194814548
 30
0.0
 10
7.118708375352292
 20
5.462709802812926
 30
0.0
 10
7.120051937546091
 20
5.460045963146626
 30
0.0
 10
7.121121642939799
 20
5.457238584494836
 30
0.0
 10
7.12198298047811
 20
5.45431489268922
 30
0.0
 10
7.122590312736811
 20
5.451248404629094
 30
0.0
 10
7.122954532722273
 20
5.448053090649413
 30
0.0
 10
7.12299161364958
 20
5.445873645421397
 30
0.0
 10
7.123010415666409
 20
5.444768549922506
 30
0.0
  0
SPLINE
  5
B3
330
1F
100
AcDbEntity
  8
0
  6
Continuous
 62
     7
370
    25
100
AcDbSpline
210
0.0
220
0.0
230
1.0
 70
     8
 71
     3
 72
    15
 73
    11
 74
     0
 42
0.00000001
 43
0.00000001
 40
0.0
 40
0.0
 40
0.0
 40
0.0
 40
0.1762577548178136
 40
0.3384344138804716
 40
0.484822050787821
 40
0.6171575782663093
 40
0.7346983606124509
 40
0.8373851838323368
 40
0.9263724209295665
 40
1.0
 40
1.0
 40
1.0
 40
1.0
 10
7.064022333948258
 20
5.481618848983681
 30
0.0
 10
7.065862535858242
 20
5.481612723551081
 30
0.0
 10
7.069395927370411
 20
5.481600962041955
 30
0.0
 10
7.074457867148349
 20
5.4815353808251
 30
0.0
 10
7.079057359156228
 20
5.481347414064932
 30
0.0
 10
7.083191998499423
 20
5.481185658809927
 30
0.0
 10
7.086861709325261
 20
5.48089070049012
 30
0.0
 10
7.090077744394078
 20
5.480608785249181
 30
0.0
 10
7.092825291539798
 20
5.480239743486233
 30
0.0
 10
7.094488514032023
 20
5.479897010298608
 30
0.0
 10
7.095241576074243
 20
5.479741830005283
 30
0.0
  0
SPLINE
  5
BE
330
1F
100
AcDbEntity
  8
0
  6
Continuous
 62
     7
370
    25
100
AcDbSpline
210
0.0
220
0.0
230
1.0
 70
     8
 71
     3
 72
    23
 73
    19
 74
     0
 42
0.00000001
 43
0.00000001
 40
0.0
 40
0.0
 40
0.0
 40
0.0
 40
0.0614842551968898
 40
0.1217745277022091
 40
0.18091955981393
 40
0.2402561150782681
 40
0.3001144444023381
 40
0.3611459476125946
 40
0.423500582412575
 40
0.4886693612807143
 40
0.5539541046535629
 40
0.617581261015243
 40
0.6802384268167262
 40
0.7421873887724378
 40
0.8046632117692812
 40
0.868258989312649
 40
0.9330202571803601
 40
1.0
 40
1.0
 40
1.0
 40
1.0
 10
6.9304503510591
 20
5.377582311784004
 30
0.0
 10
6.930424479479417
 20
5.376346943079453
 30
0.0
 10
6.930373238728648
 20
5.373900195695868
 30
0.0
 10
6.929784226375156
 20
5.370307476133577
 30
0.0
 10
6.928921247431749
 20
5.366818071815312
 30
0.0
 10
6.92762056892976
 20
5.363475114632437
 30
0.0
 10
6.926033043014016
 20
5.360217446810256
 30
0.0
 10
6.924018623806692
 20
5.357130521597226
 30
0.0
 10
6.921683675588674
 20
5.354146017715853
 30
0.0
 10
6.919005180907395
 20
5.351343518056198
 30
0.0
 10
6.916074239871314
 20
5.348770833174883
 30
0.0
 10
6.912976456616874
 20
5.346482287447622
 30
0.0
 10
6.909706760832065
 20
5.344574085739142
 30
0.0
 10
6.906282890096503
 20
5.343016965973398
 30
0.0
 10
6.902704057942684
 20
5.341799110952681
 30
0.0
 10
6.898971468027937
 20
5.340916714530204
 30
0.0
 10
6.895078967586225
 20
5.340375151108414
 30
0.0
 10
6.892433279335339
 20
5.340318940027131
 30
0.0
 10
6.891088158953305
 20
5.3402903611985
 30
0.0
  0
SPLINE
  5
BF
330
1F
100
AcDbEntity
  8
0
  6
Continuous
 62
     7
370
    25
100
AcDbSpline
210
0.0
220
0.0
230
1.0
 70
     8
 71
     3
 72
    19
 73
    15
 74
     0
 42
0.00000001
 43
0.00000001
 40
0.0
 40
0.0
 40
0.0
 40
0.0
 40
0.0969723103815273
 40
0.1877734389628777
 40
0.2723961390137029
 40
0.3513209973753005
 40
0.4243347744514825
 40
0.4919087840005348
 40
0.5542332197968007
 40
0.6112676582441529
 40
0.7163478449915444
 40
0.814540085821618
 40
0.9084954561491765
 40
1.0
 40
1.0
 40
1.0
 40
1.0
 10
6.897988964020941
 20
5.422051099639849
 30
0.0
 10
6.89948447241887
 20
5.420962857137891
 30
0.0
 10
6.902380317158181
 20
5.418855626360216
 30
0.0
 10
6.906500694320055
 20
5.415689654705595
 30
0.0
 10
6.910236671016699
 20
5.412593285864086
 30
0.0
 10
6.913601364070644
 20
5.409586293458728
 30
0.0
 10
6.916628014009221
 20
5.406691486647561
 30
0.0
 10
6.919283042382237
 20
5.403874038603063
 30
0.0
 10
6.92159350223843
 20
5.401154134166759
 30
0.0
 10
6.924080873043943
 20
5.397667024887574
 30
0.0
 10
6.926622519481762
 20
5.393384305034257
 30
0.0
 10
6.928805255994598
 20
5.38813713028838
 30
0.0
 10
6.930181568886512
 20
5.38286955861527
 30
0.0
 10
6.93036154980903
 20
5.379329131982394
 30
0.0
 10
6.9304503510591
 20
5.377582311784003
 30
0.0
  0
SPLINE
  5
C0
330
1F
100
AcDbEntity
  8
0
  6
Continuous
 62
     7
370
    25
100
AcDbSpline
210
0.0
220
0.0
230
1.0
 70
     8
 71
     3
 72
    15
 73
    11
 74
     0
 42
0.00000001
 43
0.00000001
 40
0.0
 40
0.0
 40
0.0
 40
0.0
 40
0.0525942815291579
 40
0.1249519739750406
 40
0.2180938989285986
 40
0.3335024107325299
 40
0.4687891785044874
 40
0.6249375859645948
 40
0.8016830479282427
 40
1.0
 40
1.0
 40
1.0
 40
1.0
 10
6.879467203219407
 20
5.435769900114308
 30
0.0
 10
6.879768832054356
 20
5.435500725869591
 30
0.0
 10
6.880485433122737
 20
5.434861229478675
 30
0.0
 10
6.881795508939264
 20
5.433814289295853
 30
0.0
 10
6.88352554036563
 20
5.432522841567687
 30
0.0
 10
6.885630351435591
 20
5.430924915722226
 30
0.0
 10
6.888148751503586
 20
5.429071314851468
 30
0.0
 10
6.89108101749353
 20
5.426985739569431
 30
0.0
 10
6.894394463668134
 20
5.42460048527782
 30
0.0
 10
6.896745720199613
 20
5.422932865568765
 30
0.0
 10
6.897988964020942
 20
5.42205109963985
 30
0.0
  0
SPLINE
  5
C1
330
1F
100
AcDbEntity
  8
0
  6
Continuous
 62
     7
370
    25
100
AcDbSpline
210
0.0
220
0.0
230
1.0
 70
     8
 71
     3
 72
    15
 73
    11
 74
     0
 42
0.00000001
 43
0.00000001
 40
0.0
 40
0.0
 40
0.0
 40
0.0
 40
0.1072852142689251
 40
0.2147458609696303
 40
0.3229385595552968
 40
0.4341161625174446
 40
0.5534123109628106
 40
0.686072984810708
 40
0.8342559920595941
 40
1.0
 40
1.0
 40
1.0
 40
1.0
 10
6.870385743750399
 20
5.453573977188809
 30
0.0
 10
6.870401221176969
 20
5.452835730002175
 30
0.0
 10
6.870432201338748
 20
5.451358028449524
 30
0.0
 10
6.870864279987818
 20
5.449174901600943
 30
0.0
 10
6.871419371679075
 20
5.446997289812811
 30
0.0
 10
6.872299002850466
 20
5.444834983402014
 30
0.0
 10
6.873513384882584
 20
5.442650166116493
 30
0.0
 10
6.875108076847407
 20
5.440405215818914
 30
0.0
 10
6.877116474959605
 20
5.438080345398749
 30
0.0
 10
6.878654940012811
 20
5.436568244069028
 30
0.0
 10
6.879467203219407
 20
5.435769900114308
 30
0.0
  0
SPLINE
  5
C2
330
1F
100
AcDbEntity
  8
0
  6
Continuous
 62
     7
370
    25
100
AcDbSpline
210
0.0
220
0.0
230
1.0
 70
     8
 71
     3
 72
    15
 73
    11
 74
     0
 42
0.00000001
 43
0.00000001
 40
0.0
 40
0.0
 40
0.0
 40
0.0
 40
0.1430730837303571
 40
0.2759029640929992
 40
0.4023708562739972
 40
0.5284136450935877
 40
0.6503563791869339
 40
0.7658950861246924
 40
0.8807741308440206
 40
0.9999999999999999
 40
0.9999999999999999
 40
0.9999999999999999
 40
0.9999999999999999
 10
6.890591300988437
 20
5.471019212399793
 30
0.0
 10
6.889167815854364
 20
5.470971507677278
 30
0.0
 10
6.886422758869547
 20
5.470879513613824
 30
0.0
 10
6.882525505479481
 20
5.469874789783443
 30
0.0
 10
6.879017870634475
 20
5.468292826779277
 30
0.0
 10
6.876003990120449
 20
5.466075701657399
 30
0.0
 10
6.873494660315608
 20
5.463448890921764
 30
0.0
 10
6.871679484773678
 20
5.460426101351886
 30
0.0
 10
6.870586958610214
 20
5.457088211485565
 30
0.0
 10
6.870453640513718
 20
5.454759799818964
 30
0.0
 10
6.870385743750399
 20
5.453573977188809
 30
0.0
  0
SPLINE
  5
C3
330
1F
100
AcDbEntity
  8
0
  6
Continuous
 62
     7
370
    25
100
AcDbSpline
210
0.0
220
0.0
230
1.0
 70
     8
 71
     3
 72
    19
 73
    15
 74
     0
 42
0.00000001
 43
0.00000001
 40
0.0
 40
0.0
 40
0.0
 40
0.0
 40
0.0984694310255721
 40
0.1896291011376174
 40
0.2741840894379748
 40
0.3521831609671571
 40
0.4231988731834735
 40
0.4885509460005156
 40
0.5484733460279471
 40
0.6014401636178647
 40
0.7011980824257557
 40
0.7995918021381841
 40
0.8985450984822276
 40
1.0
 40
1.0
 40
1.0
 40
1.0
 10
6.917504440752216
 20
5.453353151426645
 30
0.0
 10
6.916829404040708
 20
5.45422278490785
 30
0.0
 10
6.915529441163851
 20
5.455897495664709
 30
0.0
 10
6.913555839318952
 20
5.458242823050782
 30
0.0
 10
6.911695656329961
 20
5.460385204134715
 30
0.0
 10
6.909862963425073
 20
5.462246035946923
 30
0.0
 10
6.908154552737439
 20
5.463927222298808
 30
0.0
 10
6.906496401467873
 20
5.465366582803708
 30
0.0
 10
6.904912371891597
 20
5.466578220419065
 30
0.0
 10
6.902915643126003
 20
5.467871273960765
 30
0.0
 10
6.900407071538477
 20
5.469153026069219
 30
0.0
 10
6.89725807404874
 20
5.470237635442359
 30
0.0
 10
6.893967275819014
 20
5.470889409533648
 30
0.0
 10
6.891725951744579
 20
5.470975586209548
 30
0.0
 10
6.890591300988436
 20
5.471019212399792
 30
0.0
  0
SPLINE
  5
C5
330
1F
100
AcDbEntity
  8
0
  6
Continuous
 62
     7
370
    25
100
AcDbSpline
210
0.0
220
0.0
230
1.0
 70
     8
 71
     3
 72
    19
 73
    15
 74
     0
 42
0.00000001
 43
0.00000001
 40
0.0
 40
0.0
 40
0.0
 40
0.0
 40
0.1072327993600799
 40
0.2132518127818313
 40
0.3188304473075905
 40
0.4267935306342777
 40
0.4836459507827034
 40
0.543603822021128
 40
0.6083076495640833
 40
0.6771267602600195
 40
0.7506856360204861
 40
0.8287134184432878
 40
0.9121903482234461
 40
1.0
 40
1.0
 40
1.0
 40
1.0
 10
6.891971462001963
 20
5.48515206117831
 30
0.0
 10
6.893595245478263
 20
5.485096055209838
 30
0.0
 10
6.896824432554909
 20
5.484984677213793
 30
0.0
 10
6.901574401671819
 20
5.484016270468921
 30
0.0
 10
6.906147658223023
 20
5.482413881815849
 30
0.0
 10
6.909826526916707
 20
5.480595430714373
 30
0.0
 10
6.912705769493942
 20
5.478779233245344
 30
0.0
 10
6.914901546371457
 20
5.477124909454838
 30
0.0
 10
6.91712664285912
 20
5.475220377620027
 30
0.0
 10
6.919399007222455
 20
5.4730605647822
 30
0.0
 10
6.921680135546834
 20
5.470625653321981
 30
0.0
 10
6.924003893509202
 20
5.467932319112956
 30
0.0
 10
6.926375715115919
 20
5.464997021637978
 30
0.0
 10
6.927901536380642
 20
5.462901568852368
 30
0.0
 10
6.928683744961785
 20
5.461827340049701
 30
0.0
  0
SPLINE
  5
C6
330
1F
100
AcDbEntity
  8
0
  6
Continuous
 62
     7
370
    25
100
AcDbSpline
210
0.0
220
0.0
230
1.0
 70
     8
 71
     3
 72
    19
 73
    15
 74
     0
 42
0.00000001
 43
0.00000001
 40
0.0
 40
0.0
 40
0.0
 40
0.0
 40
0.0837853706537051
 40
0.1657798879221362
 40
0.2462800078932521
 40
0.3274609277364012
 40
0.4087969540320542
 40
0.4897152412309793
 40
0.5713760321300478
 40
0.6555233211112751
 40
0.7410194827999639
 40
0.8265467605037515
 40
0.9119888516548184
 40
1.0
 40
1.0
 40
1.0
 40
1.0
 10
6.858019501069195
 20
5.452994309563127
 30
0.0
 10
6.858070887250035
 20
5.45445217470347
 30
0.0
 10
6.858172561268235
 20
5.457336744141857
 30
0.0
 10
6.859032424152898
 20
5.461550556363987
 30
0.0
 10
6.860389624690475
 20
5.465573643656016
 30
0.0
 10
6.862290998228331
 20
5.469366176479824
 30
0.0
 10
6.864742075114878
 20
5.47282940407385
 30
0.0
 10
6.867578530798547
 20
5.476003163403849
 30
0.0
 10
6.870956935768525
 20
5.478671217821995
 30
0.0
 10
6.874663731959999
 20
5.481002401223146
 30
0.0
 10
6.87872106944357
 20
5.482827043947831
 30
0.0
 10
6.882972679813554
 20
5.484203460489586
 30
0.0
 10
6.887425320444469
 20
5.484983352524662
 30
0.0
 10
6.890441191886334
 20
5.485095272403111
 30
0.0
 10
6.891971462001963
 20
5.48515206117831
 30
0.0
  0
SPLINE
  5
C7
330
1F
100
AcDbEntity
  8
0
  6
Continuous
 62
     7
370
    25
100
AcDbSpline
210
0.0
220
0.0
230
1.0
 70
     8
 71
     3
 72
    15
 73
    11
 74
     0
 42
0.00000001
 43
0.00000001
 40
0.0
 40
0.0
 40
0.0
 40
0.0
 40
0.1335067689985423
 40
0.262558978730393
 40
0.3882644471488834
 40
0.512667354681437
 40
0.633722269965776
 40
0.7553938601370713
 40
0.8775529450912694
 40
1.0
 40
1.0
 40
1.0
 40
1.0
 10
6.865720799524677
 20
5.432015862157514
 30
0.0
 10
6.865111644200615
 20
5.432826926600593
 30
0.0
 10
6.863913658503161
 20
5.43442199367814
 30
0.0
 10
6.862332319705321
 20
5.436915098314665
 30
0.0
 10
6.860988258177823
 20
5.439467195378018
 30
0.0
 10
6.859934623054357
 20
5.442085142801824
 30
0.0
 10
6.859047370344133
 20
5.44473218724594
 30
0.0
 10
6.858450601418237
 20
5.447442866210492
 30
0.0
 10
6.858076924374309
 20
5.450205016543738
 30
0.0
 10
6.858038657187967
 20
5.452063815780847
 30
0.0
 10
6.858019501069196
 20
5.452994309563128
 30
0.0
  0
SPLINE
  5
C8
330
1F
100
AcDbEntity
  8
0
  6
Continuous
 62
     7
370
    25
100
AcDbSpline
210
0.0
220
0.0
230
1.0
 70
     8
 71
     3
 72
    15
 73
    11
 74
     0
 42
0.00000001
 43
0.00000001
 40
0.0
 40
0.0
 40
0.0
 40
0.0
 40
0.1815353013762839
 40
0.3470816724816612
 40
0.4955678164315659
 40
0.628357301877216
 40
0.7455196699921762
 40
0.8458307507576701
 40
0.9307818073847783
 40
1.0
 40
1.0
 40
1.0
 40
1.0
 10
6.888300233705981
 20
5.413273275593816
 30
0.0
 10
6.886850470076883
 20
5.414305897153632
 30
0.0
 10
6.884078632416248
 20
5.416280190942799
 30
0.0
 10
6.880202310276626
 20
5.419210280864593
 30
0.0
 10
6.87673599283529
 20
5.421889173366244
 30
0.0
 10
6.873695086672956
 20
5.424342087228547
 30
0.0
 10
6.871080929316813
 20
5.4265693551313
 30
0.0
 10
6.868872921009168
 20
5.428549588955793
 30
0.0
 10
6.867127308525092
 20
5.430336343320691
 30
0.0
 10
6.86615661637318
 20
5.431495451263411
 30
0.0
 10
6.865720799524677
 20
5.432015862157514
 30
0.0
  0
SPLINE
  5
C9
330
1F
100
AcDbEntity
  8
0
  6
Continuous
 62
     7
370
    25
100
AcDbSpline
210
0.0
220
0.0
230
1.0
 70
     8
 71
     3
 72
    15
 73
    11
 74
     0
 42
0.00000001
 43
0.00000001
 40
0.0
 40
0.0
 40
0.0
 40
0.0
 40
0.0902792146500342
 40
0.1895299184469697
 40
0.2991978724002892
 40
0.4189258867738309
 40
0.5483762854012666
 40
0.688136369538683
 40
0.8390835016589224
 40
0.9999999999999999
 40
0.9999999999999999
 40
0.9999999999999999
 40
0.9999999999999999
 10
6.91314313194947
 20
5.391301112258463
 30
0.0
 10
6.912526178635274
 20
5.392090357282219
 30
0.0
 10
6.911230962324649
 20
5.393747278485694
 30
0.0
 10
6.909004288600509
 20
5.396213626339053
 30
0.0
 10
6.90639144945463
 20
5.398757658581263
 30
0.0
 10
6.903481860678582
 20
5.40147651909108
 30
0.0
 10
6.900169534346271
 20
5.404243755181159
 30
0.0
 10
6.896558214881581
 20
5.407191325178756
 30
0.0
 10
6.892555700749057
 20
5.410207135298703
 30
0.0
 10
6.889748633953072
 20
5.412229677249355
 30
0.0
 10
6.888300233705981
 20
5.413273275593816
 30
0.0
  0
SPLINE
  5
CA
330
1F
100
AcDbEntity
  8
0
  6
Continuous
 62
     7
370
    25
100
AcDbSpline
210
0.0
220
0.0
230
1.0
 70
     8
 71
     3
 72
    11
 73
     7
 74
     0
 42
0.00000001
 43
0.00000001
 40
0.0
 40
0.0
 40
0.0
 40
0.0
 40
0.2347233736739038
 40
0.477158318928987
 40
0.7285562842030753
 40
1.0
 40
1.0
 40
1.0
 40
1.0
 10
6.918084108377896
 20
5.377775534325897
 30
0.0
 10
6.918026064649577
 20
5.378922811873434
 30
0.0
 10
6.917908070231744
 20
5.381255059477753
 30
0.0
 10
6.916910767866685
 20
5.384695990696414
 30
0.0
 10
6.915341899880721
 20
5.388101209988704
 30
0.0
 10
6.913894551703362
 20
5.3902075590272
 30
0.0
 10
6.91314313194947
 20
5.391301112258463
 30
0.0
  0
SPLINE
  5
CB
330
1F
100
AcDbEntity
  8
0
  6
Continuous
 62
     7
370
    25
100
AcDbSpline
210
0.0
220
0.0
230
1.0
 70
     8
 71
     3
 72
    19
 73
    15
 74
     0
 42
0.00000001
 43
0.00000001
 40
0.0
 40
0.0
 40
0.0
 40
0.0
 40
0.091263604896626
 40
0.1809303110850814
 40
0.2700882198317215
 40
0.3601561333877343
 40
0.448342532498158
 40
0.5326658421383478
 40
0.6138337041070406
 40
0.6939815272835652
 40
0.7727159770890111
 40
0.8493351720622657
 40
0.9239673265752555
 40
1.0
 40
1.0
 40
1.0
 40
1.0
 10
6.891088158953305
 20
5.354423209977018
 30
0.0
 10
6.89229630306793
 20
5.354456858501122
 30
0.0
 10
6.894691451613097
 20
5.354523566779194
 30
0.0
 10
6.898217524170622
 20
5.355164543237834
 30
0.0
 10
6.901642004574799
 20
5.356149272722614
 30
0.0
 10
6.904894313146867
 20
5.357559545616652
 30
0.0
 10
6.907929573561492
 20
5.35926578521212
 30
0.0
 10
6.910591254480259
 20
5.361326658342331
 30
0.0
 10
6.912892282558188
 20
5.363633989275939
 30
0.0
 10
6.914774531163196
 20
5.366208109537432
 30
0.0
 10
6.91621862704069
 20
5.368976501214886
 30
0.0
 10
6.917328550993967
 20
5.371818074102219
 30
0.0
 10
6.917944498775714
 20
5.374777466554149
 30
0.0
 10
6.918037284344877
 20
5.376770004461544
 30
0.0
 10
6.918084108377896
 20
5.377775534325897
 30
0.0
  0
SPLINE
  5
CC
330
1F
100
AcDbEntity
  8
0
  6
Continuous
 62
     7
370
    25
100
AcDbSpline
210
0.0
220
0.0
230
1.0
 70
     8
 71
     3
 72
    15
 73
    11
 74
     0
 42
0.00000001
 43
0.00000001
 40
0.0
 40
0.0
 40
0.0
 40
0.0
 40
0.1590042985173694
 40
0.3046460998968247
 40
0.4385469045796024
 40
0.562322298775941
 40
0.6774325425257341
 40
0.7868973929387622
 40
0.8936108891042704
 40
1.0
 40
1.0
 40
1.0
 40
1.0
 10
6.860835029536791
 20
5.377389089242111
 30
0.0
 10
6.861918424704136
 20
5.375575530779626
 30
0.0
 10
6.863994168035957
 20
5.372100822751713
 30
0.0
 10
6.867456819971091
 20
5.367405624309635
 30
0.0
 10
6.871044729859515
 20
5.363414988216761
 30
0.0
 10
6.874784467400831
 20
5.360152129652201
 30
0.0
 10
6.878653205515888
 20
5.357583275843241
 30
0.0
 10
6.882676199757485
 20
5.355764290342508
 30
0.0
 10
6.886839893092583
 20
5.354629803123167
 30
0.0
 10
6.889673508111459
 20
5.354492004439912
 30
0.0
 10
6.891088158953305
 20
5.354423209977018
 30
0.0
  0
SPLINE
  5
CE
330
1F
100
AcDbEntity
  8
0
  6
Continuous
 62
     7
370
    25
100
AcDbSpline
210
0.0
220
0.0
230
1.0
 70
     8
 71
     3
 72
    23
 73
    19
 74
     0
 42
0.00000001
 43
0.00000001
 40
0.0
 40
0.0
 40
0.0
 40
0.0
 40
0.0572082694334928
 40
0.1136960596574778
 40
0.1691779164171861
 40
0.2241592165805426
 40
0.2787198783810467
 40
0.3337942174469761
 40
0.3892414593399919
 40
0.4458220733936219
 40
0.5037042811090202
 40
0.5642938918193593
 40
0.6279754158952296
 40
0.695038259684051
 40
0.7653727258510079
 40
0.8396114430907371
 40
0.9175377500777855
 40
1.0
 40
1.0
 40
1.0
 40
1.0
 10
6.891088158953305
 20
5.3402903611985
 30
0.0
 10
6.890047397418621
 20
5.34031048645824
 30
0.0
 10
6.887978981668444
 20
5.340350483520811
 30
0.0
 10
6.884919553248244
 20
5.340704077238222
 30
0.0
 10
6.88192193162627
 20
5.341204356907163
 30
0.0
 10
6.879023731546186
 20
5.341998611630667
 30
0.0
 10
6.876187612977612
 20
5.342962272144132
 30
0.0
 10
6.873425910830921
 20
5.344148820671621
 30
0.0
 10
6.870737286663367
 20
5.345570757736477
 30
0.0
 10
6.868106673164616
 20
5.347196546107688
 30
0.0
 10
6.86554076077933
 20
5.349088583295225
 30
0.0
 10
6.863063616372684
 20
5.351292264257363
 30
0.0
 10
6.860593963399722
 20
5.353746811697965
 30
0.0
 10
6.858204695828006
 20
5.356518881121652
 30
0.0
 10
6.855847485422264
 20
5.359563687533377
 30
0.0
 10
6.853568807881458
 20
5.362909718375794
 30
0.0
 10
6.851321496161812
 20
5.366538748051346
 30
0.0
 10
6.849911438373335
 20
5.369092491583622
 30
0.0
 10
6.849186470582621
 20
5.370405474513662
 30
0.0
  0
SPLINE
  5
D3
330
1F
100
AcDbEntity
  8
0
  6
Continuous
 62
     7
370
    25
100
AcDbSpline
210
0.0
220
0.0
230
1.0
 70
     8
 71
     3
 72
    31
 73
    27
 74
     0
 42
0.00000001
 43
0.00000001
 40
0.0
 40
0.0
 40
0.0
 40
0.0
 40
0.042039379701213
 40
0.0835444645653641
 40
0.124643056673449
 40
0.1653030634519556
 40
0.2061707471365286
 40
0.2469707199288989
 40
0.2883292660238657
 40
0.3299865328252084
 40
0.3717974728955495
 40
0.4127376294246813
 40
0.453459280518727
 40
0.4940013424196698
 40
0.5343806676011683
 40
0.574951545297477
 40
0.6158917018266089
 40
0.6572495587215968
 40
0.6990066068243727
 40
0.7404862737502672
 40
0.7823251557075533
 40
0.8245674554627332
 40
0.8670412437308949
 40
0.9104995314822307
 40
0.9546191761738314
 40
0.9999999999999999
 40
0.9999999999999999
 40
0.9999999999999999
 40
0.9999999999999999
 10
6.147983178801113
 20
5.405202672882245
 30
0.0
 10
6.148004133058466
 20
5.406823391492025
 30
0.0
 10
6.148045775257358
 20
5.410044230368038
 30
0.0
 10
6.148550716838907
 20
5.414826014126198
 30
0.0
 10
6.149275182114259
 20
5.419522891770415
 30
0.0
 10
6.150340026783096
 20
5.424131023907179
 30
0.0
 10
6.151682399409691
 20
5.42865348814977
 30
0.0
 10
6.15335773350486
 20
5.433092384365025
 30
0.0
 10
6.155308319959834
 20
5.437450332066282
 30
0.0
 10
6.157575465478087
 20
5.441697334743211
 30
0.0
 10
6.1600984756935
 20
5.445777036033917
 30
0.0
 10
6.162836673344174
 20
5.449673012544467
 30
0.0
 10
6.165828941069985
 20
5.453314314315408
 30
0.0
 10
6.169026413492419
 20
5.456747056372844
 30
0.0
 10
6.172467239878877
 20
5.459928113340795
 30
0.0
 10
6.17611918569256
 20
5.462886936595958
 30
0.0
 10
6.179985065333427
 20
5.465627495092145
 30
0.0
 10
6.184077040923635
 20
5.468106622444257
 30
0.0
 10
6.188334036373888
 20
5.470333536635884
 30
0.0
 10
6.192745847454469
 20
5.472285867805986
 30
0.0
 10
6.197311127411433
 20
5.473899384162917
 30
0.0
 10
6.201995673774817
 20
5.475268430604983
 30
0.0
 10
6.206834945453717
 20
5.47628083771488
 30
0.0
 10
6.211793824858391
 20
5.477015040289095
 30
0.0
 10
6.216898159977184
 20
5.477517426102493
 30
0.0
 10
6.22034839735224
 20
5.477557829874501
 30
0.0
 10
6.222097825227521
 20
5.477578316431609
 30
0.0
  0
SPLINE
  5
D4
330
1F
100
AcDbEntity
  8
0
  6
Continuous
 62
     7
370
    25
100
AcDbSpline
210
0.0
220
0.0
230
1.0
 70
     8
 71
     3
 72
    15
 73
    11
 74
     0
 42
0.00000001
 43
0.00000001
 40
0.0
 40
0.0
 40
0.0
 40
0.0
 40
0.127895677373545
 40
0.2536684183228691
 40
0.3767384322070202
 40
0.4993444727460731
 40
0.6219993068560842
 40
0.745698547513119
 40
0.8713451527522093
 40
1.0
 40
1.0
 40
1.0
 40
1.0
 10
6.164876349606686
 20
5.358774056387191
 30
0.0
 10
6.163530446774574
 20
5.360454003356105
 30
0.0
 10
6.16086098171016
 20
5.363786011905745
 30
0.0
 10
6.157424833811759
 20
5.369124592395053
 30
0.0
 10
6.154495644723938
 20
5.374652224685192
 30
0.0
 10
6.152118958813097
 20
5.380384296667761
 30
0.0
 10
6.150263128642148
 20
5.386315446779816
 30
0.0
 10
6.148932173809571
 20
5.392438096040743
 30
0.0
 10
6.14815235927458
 20
5.398760128739076
 30
0.0
 10
6.148040015280851
 20
5.403038288765307
 30
0.0
 10
6.147983178801113
 20
5.405202672882245
 30
0.0
  0
SPLINE
  5
D5
330
1F
100
AcDbEntity
  8
0
  6
Continuous
 62
     7
370
    25
100
AcDbSpline
210
0.0
220
0.0
230
1.0
 70
     8
 71
     3
 72
    23
 73
    19
 74
     0
 42
0.00000001
 43
0.00000001
 40
0.0
 40
0.0
 40
0.0
 40
0.0
 40
0.0692365237083617
 40
0.1365567393229948
 40
0.2020941572673361
 40
0.26646426036606
 40
0.3297688228727773
 40
0.3918789659214283
 40
0.453270593103036
 40
0.5141146640704632
 40
0.5743895103654848
 40
0.6341416638513286
 40
0.6939232874993234
 40
0.7541521963073915
 40
0.814470164130043
 40
0.8756606301311862
 40
0.9373480106280091
 40
1.0
 40
1.0
 40
1.0
 40
1.0
 10
6.22458211505187
 20
5.332716616451799
 30
0.0
 10
6.223026597911558
 20
5.332739022799517
 30
0.0
 10
6.21995861677581
 20
5.332783215338667
 30
0.0
 10
6.215427477875289
 20
5.333097284135081
 30
0.0
 10
6.211021272340736
 20
5.33358077139086
 30
0.0
 10
6.206740642069478
 20
5.334310894362407
 30
0.0
 10
6.202569841196299
 20
5.335205172085144
 30
0.0
 10
6.1985297000576
 20
5.336350318493793
 30
0.0
 10
6.194604828323437
 20
5.33767585783819
 30
0.0
 10
6.190789159597377
 20
5.339183561518243
 30
0.0
 10
6.187117327046881
 20
5.340930477135115
 30
0.0
 10
6.183572975984987
 20
5.342871801524403
 30
0.0
 10
6.180136514341852
 20
5.344997524388482
 30
0.0
 10
6.176831350366437
 20
5.347344408078449
 30
0.0
 10
6.173640262906776
 20
5.349894898636328
 30
0.0
 10
6.170583828119161
 20
5.352654108044979
 30
0.0
 10
6.16764493528186
 20
5.355613600948131
 30
0.0
 10
6.16580397215032
 20
5.357715136759126
 30
0.0
 10
6.164876349606686
 20
5.358774056387191
 30
0.0
  0
SPLINE
  5
D6
330
1F
100
AcDbEntity
  8
0
  6
Continuous
 62
     7
370
    25
100
AcDbSpline
210
0.0
220
0.0
230
1.0
 70
     8
 71
     3
 72
    23
 73
    19
 74
     0
 42
0.00000001
 43
0.00000001
 40
0.0
 40
0.0
 40
0.0
 40
0.0
 40
0.0712722778918394
 40
0.1394927224241725
 40
0.2046354187153382
 40
0.2674057403862635
 40
0.3284455975269781
 40
0.3883971631415394
 40
0.4477339312582601
 40
0.5073916212312153
 40
0.5667675553634357
 40
0.6254783375164156
 40
0.6840665059187991
 40
0.7432484458153388
 40
0.8040333573982555
 40
0.8664987506996739
 40
0.9317232379841597
 40
1.0
 40
1.0
 40
1.0
 40
1.0
 10
6.292844878780923
 20
5.403380860344389
 30
0.0
 10
6.292777719395925
 20
5.400746707241205
 30
0.0
 10
6.292646276347843
 20
5.39559119378613
 30
0.0
 10
6.291724271794541
 20
5.388072679186346
 30
0.0
 10
6.290235432728934
 20
5.380971431418155
 30
0.0
 10
6.288201562183175
 20
5.374279971903774
 30
0.0
 10
6.285568677131929
 20
5.368007783212594
 30
0.0
 10
6.282365034279581
 20
5.362148497144036
 30
0.0
 10
6.278539360221848
 20
5.356739966401246
 30
0.0
 10
6.27422792551675
 20
5.351738037125167
 30
0.0
 10
6.269389344501548
 20
5.347276257118354
 30
0.0
 10
6.264154359463062
 20
5.343354763498458
 30
0.0
 10
6.258514321338948
 20
5.340051510925856
 30
0.0
 10
6.252474565138571
 20
5.337364083272156
 30
0.0
 10
6.24605486303467
 20
5.335266681897558
 30
0.0
 10
6.239240359893746
 20
5.333779611949387
 30
0.0
 10
6.232040296874684
 20
5.332888668510513
 30
0.0
 10
6.227105782036519
 20
5.332774834675829
 30
0.0
 10
6.22458211505187
 20
5.332716616451799
 30
0.0
  0
SPLINE
  5
DA
330
1F
100
AcDbEntity
  8
0
  6
Continuous
 62
     7
370
    25
100
AcDbSpline
210
0.0
220
0.0
230
1.0
 70
     8
 71
     3
 72
    23
 73
    19
 74
     0
 42
0.00000001
 43
0.00000001
 40
0.0
 40
0.0
 40
0.0
 40
0.0
 40
0.0706300675154782
 40
0.1386936125963036
 40
0.2049177148347091
 40
0.2694408834247038
 40
0.3326363346470514
 40
0.3953016944998464
 40
0.4577639314714134
 40
0.5206570204257456
 40
0.5828516518872704
 40
0.6433151976010457
 40
0.7025802319030124
 40
0.7609075386276841
 40
0.8194896127674705
 40
0.8782690759233545
 40
0.9384913105361216
 40
1.0
 40
1.0
 40
1.0
 40
1.0
 10
6.225658640642421
 20
5.346849465230317
 30
0.0
 10
6.227445189746131
 20
5.346886810754452
 30
0.0
 10
6.230953369165889
 20
5.346960144758493
 30
0.0
 10
6.23611031572911
 20
5.347531022293468
 30
0.0
 10
6.241063192529338
 20
5.348422628343145
 30
0.0
 10
6.245798082421319
 20
5.34972837230715
 30
0.0
 10
6.250320484811223
 20
5.351393871322785
 30
0.0
 10
6.254646978564344
 20
5.353401563703382
 30
0.0
 10
6.258743500558439
 20
5.355828455793054
 30
0.0
 10
6.262622365658935
 20
5.358567584418472
 30
0.0
 10
6.26619548319769
 20
5.361619349476989
 30
0.0
 10
6.269418086508312
 20
5.36491243826263
 30
0.0
 10
6.272238775060271
 20
5.368430866083687
 30
0.0
 10
6.274699589991688
 20
5.372153909993138
 30
0.0
 10
6.276735363785512
 20
5.376112386568347
 30
0.0
 10
6.278406339969528
 20
5.380286896901277
 30
0.0
 10
6.279687178222424
 20
5.384679318631055
 30
0.0
 10
6.280212964633503
 20
5.387714422242289
 30
0.0
 10
6.280478636099719
 20
5.389248011565872
 30
0.0
  0
SPLINE
  5
DB
330
1F
100
AcDbEntity
  8
0
  6
Continuous
 62
     7
370
    25
100
AcDbSpline
210
0.0
220
0.0
230
1.0
 70
     8
 71
     3
 72
    31
 73
    27
 74
     0
 42
0.00000001
 43
0.00000001
 40
0.0
 40
0.0
 40
0.0
 40
0.0
 40
0.0389942033259352
 40
0.077881926456628
 40
0.1166515665855554
 40
0.155416064511379
 40
0.1946182927830748
 40
0.234261463916928
 40
0.2745471077506711
 40
0.3156673089432883
 40
0.3570195563769777
 40
0.3980825120664353
 40
0.4390978641477968
 40
0.4798332779738398
 40
0.5212741319644025
 40
0.5628408280340169
 40
0.6052920613462572
 40
0.6484086595339286
 40
0.691727292205961
 40
0.7351488851450328
 40
0.7783689248959308
 40
0.8216608583029736
 40
0.8655236990058948
 40
0.9097314975427213
 40
0.9545225648198438
 40
1.0
 40
1.0
 40
1.0
 40
1.0
 10
6.160349421482317
 20
5.405754737287657
 30
0.0
 10
6.160379174170003
 20
5.404484232672581
 30
0.0
 10
6.160438598300682
 20
5.401946692767813
 30
0.0
 10
6.160818925842858
 20
5.398159524555494
 30
0.0
 10
6.161524762080367
 20
5.394428603200561
 30
0.0
 10
6.162468372665772
 20
5.39074166882798
 30
0.0
 10
6.163648719739476
 20
5.38709240709855
 30
0.0
 10
6.16512008454585
 20
5.383496638994687
 30
0.0
 10
6.166862824723347
 20
5.379954497607794
 30
0.0
 10
6.168880011811041
 20
5.376497898516119
 30
0.0
 10
6.171092067066516
 20
5.3731308503556
 30
0.0
 10
6.173570141121156
 20
5.369959215637966
 30
0.0
 10
6.17620244755552
 20
5.366940759841135
 30
0.0
 10
6.17908488455685
 20
5.364142501423989
 30
0.0
 10
6.182125024015498
 20
5.36148959212133
 30
0.0
 10
6.185413696299086
 20
5.359055122753602
 30
0.0
 10
6.188886234112851
 20
5.356792200577263
 30
0.0
 10
6.192547935368006
 20
5.354729345484504
 30
0.0
 10
6.196359068534984
 20
5.35288648974819
 30
0.0
 10
6.200266814719595
 20
5.351247753680282
 30
0.0
 10
6.204283657853805
 20
5.349898173472297
 30
0.0
 10
6.208388488154981
 20
5.348798248117467
 30
0.0
 10
6.212576412236658
 20
5.347896661612752
 30
0.0
 10
6.216868687933808
 20
5.34731664270156
 30
0.0
 10
6.221233755193052
 20
5.346895743846916
 30
0.0
 10
6.224176221023053
 20
5.346864969434888
 30
0.0
 10
6.225658640642421
 20
5.346849465230317
 30
0.0
  0
SPLINE
  5
DC
330
1F
100
AcDbEntity
  8
0
  6
Continuous
 62
     7
370
    25
100
AcDbSpline
210
0.0
220
0.0
230
1.0
 70
     8
 71
     3
 72
    31
 73
    27
 74
     0
 42
0.00000001
 43
0.00000001
 40
0.0
 40
0.0
 40
0.0
 40
0.0
 40
0.0428411974873103
 40
0.0855712844305971
 40
0.1277186681017298
 40
0.1700683868047366
 40
0.2127872447033966
 40
0.2554815926170225
 40
0.2988770906153855
 40
0.3428605721330472
 40
0.3865275858180464
 40
0.4295323755470687
 40
0.4718862134718272
 40
0.5137293024191354
 40
0.555081706254051
 40
0.5965352369663067
 40
0.6381200747249005
 40
0.6798222124149927
 40
0.7213314680361197
 40
0.7618883644915497
 40
0.8021993285625486
 40
0.8418062931797263
 40
0.881060412145182
 40
0.9206332256982772
 40
0.960101198728402
 40
1.0
 40
1.0
 40
1.0
 40
1.0
 10
6.221683776923463
 20
5.463445467653091
 30
0.0
 10
6.220348552516375
 20
5.463429183956457
 30
0.0
 10
6.217681566665867
 20
5.463396658795681
 30
0.0
 10
6.213720072805645
 20
5.462981532210407
 30
0.0
 10
6.209800126465631
 20
5.462384490319633
 30
0.0
 10
6.205929127459608
 20
5.461520636865858
 30
0.0
 10
6.20209954925645
 20
5.460425792003828
 30
0.0
 10
6.198324710980598
 20
5.45905628557718
 30
0.0
 10
6.194597571030323
 20
5.457459622417385
 30
0.0
 10
6.190953237130385
 20
5.455614643136848
 30
0.0
 10
6.187420146439983
 20
5.453587877529361
 30
0.0
 10
6.184083263146779
 20
5.451341871994537
 30
0.0
 10
6.180921318309697
 20
5.448948612551815
 30
0.0
 10
6.177993742509416
 20
5.44634818028733
 30
0.0
 10
6.17528369578881
 20
5.443564130472279
 30
0.0
 10
6.17272667327325
 20
5.440648252278582
 30
0.0
 10
6.170412606504034
 20
5.437520881468348
 30
0.0
 10
6.168322403161001
 20
5.434239557609524
 30
0.0
 10
6.166457772515209
 20
5.430861912361761
 30
0.0
 10
6.164811762533449
 20
5.427420456075148
 30
0.0
 10
6.163429987410078
 20
5.423926603539127
 30
0.0
 10
6.162336701768398
 20
5.420375970562422
 30
0.0
 10
6.161434707520804
 20
5.416796026075862
 30
0.0
 10
6.160800156057441
 20
5.41316198196401
 30
0.0
 10
6.160442411089691
 20
5.409469947106575
 30
0.0
 10
6.160380529988247
 20
5.406997614098796
 30
0.0
 10
6.160349421482316
 20
5.405754737287656
 30
0.0
  0
SPLINE
  5
DD
330
1F
100
AcDbEntity
  8
0
  6
Continuous
 62
     7
370
    25
100
AcDbSpline
210
0.0
220
0.0
230
1.0
 70
     8
 71
     3
 72
    15
 73
    11
 74
     0
 42
0.00000001
 43
0.00000001
 40
0.0
 40
0.0
 40
0.0
 40
0.0
 40
0.1361444912025617
 40
0.2690425392697011
 40
0.3985166179976867
 40
0.5270995386022249
 40
0.6522825446560199
 40
0.7716804045533966
 40
0.8874949318451694
 40
1.0
 40
1.0
 40
1.0
 40
1.0
 10
6.273412211710461
 20
5.440479588387999
 30
0.0
 10
6.271494145249008
 20
5.442283953073394
 30
0.0
 10
6.267703749716151
 20
5.445849656337911
 30
0.0
 10
6.261524212604847
 20
5.450476073469265
 30
0.0
 10
6.255076825439733
 20
5.454439305759111
 30
0.0
 10
6.248395231074209
 20
5.457663960736877
 30
0.0
 10
6.241644894306082
 20
5.460236904063958
 30
0.0
 10
6.234915414925338
 20
5.462068720607935
 30
0.0
 10
6.228275820383919
 20
5.463236930744107
 30
0.0
 10
6.223859788163264
 20
5.463376630325094
 30
0.0
 10
6.221683776923463
 20
5.463445467653091
 30
0.0
  0
SPLINE
  5
DF
330
1F
100
AcDbEntity
  8
0
  6
Continuous
 62
     7
370
    25
100
AcDbSpline
210
0.0
220
0.0
230
1.0
 70
     8
 71
     3
 72
    23
 73
    19
 74
     0
 42
0.00000001
 43
0.00000001
 40
0.0
 40
0.0
 40
0.0
 40
0.0
 40
0.0616169448205101
 40
0.1221791608191656
 40
0.1822162704483253
 40
0.2418641286611283
 40
0.300960055602622
 40
0.3599690678733924
 40
0.4190329181378663
 40
0.4780686870130235
 40
0.5379925810732171
 40
0.5989602303291958
 40
0.6613210788822645
 40
0.7252475688866875
 40
0.7912201541522453
 40
0.8587459718448132
 40
0.928317581412213
 40
1.0
 40
1.0
 40
1.0
 40
1.0
 10
6.222097825227521
 20
5.477578316431609
 30
0.0
 10
6.223524527733932
 20
5.477555501796023
 30
0.0
 10
6.226353511148802
 20
5.477510263054661
 30
0.0
 10
6.230563185649192
 20
5.477196694232989
 30
0.0
 10
6.234707792524959
 20
5.476699691039533
 30
0.0
 10
6.238793477165821
 20
5.476021471094905
 30
0.0
 10
6.242806326229843
 20
5.475097703752154
 30
0.0
 10
6.246757771325267
 20
5.473992259474604
 30
0.0
 10
6.250653540468869
 20
5.472705179845833
 30
0.0
 10
6.254481424294255
 20
5.471170185895426
 30
0.0
 10
6.25826716114588
 20
5.469427917197563
 30
0.0
 10
6.262031800534605
 20
5.467466758835159
 30
0.0
 10
6.265762479510091
 20
5.465253175975689
 30
0.0
 10
6.269465667755229
 20
5.462780595836827
 30
0.0
 10
6.273164717279475
 20
5.460091484897742
 30
0.0
 10
6.276801120521755
 20
5.457108932785683
 30
0.0
 10
6.280462653759823
 20
5.453950556571139
 30
0.0
 10
6.282817055894245
 20
5.451679604448919
 30
0.0
 10
6.284011848294349
 20
5.450527160566477
 30
0.0
  0
SPLINE
  5
11B
330
1F
100
AcDbEntity
  8
0
  6
Continuous
 62
     7
370
    25
100
AcDbSpline
210
0.0
220
0.0
230
1.0
 70
     8
 71
     3
 72
    15
 73
    11
 74
     0
 42
0.00000001
 43
0.00000001
 40
0.0
 40
0.0
 40
0.0
 40
0.0
 40
0.0781298651584416
 40
0.1694654174977207
 40
0.274335290854078
 40
0.3921101633539161
 40
0.523687329857513
 40
0.6683654211389508
 40
0.8271319021257983
 40
1.0
 40
1.0
 40
1.0
 40
1.0
 10
0.7234140432818996
 20
5.619783782743263
 30
0.0
 10
0.7232102181569272
 20
5.620517348666462
 30
0.0
 10
0.7227681169216323
 20
5.622108469490553
 30
0.0
 10
0.7222946800064831
 20
5.624741795811714
 30
0.0
 10
0.7218966846662678
 20
5.627773879183769
 30
0.0
 10
0.7215224500906295
 20
5.631204927151018
 30
0.0
 10
0.7213016249742235
 20
5.635037599064501
 30
0.0
 10
0.7211080250255496
 20
5.639270233547552
 30
0.0
 10
0.7209559927894648
 20
5.643907948574565
 30
0.0
 10
0.7209568893407847
 20
5.647138441315419
 30
0.0
 10
0.7209573566778213
 20
5.648822370467875
 30
0.0
  0
SPLINE
  5
11C
330
1F
100
AcDbEntity
  8
0
  6
Continuous
 62
     7
370
    25
100
AcDbSpline
210
0.0
220
0.0
230
1.0
 70
     8
 71
     3
 72
    23
 73
    19
 74
     0
 42
0.00000001
 43
0.00000001
 40
0.0
 40
0.0
 40
0.0
 40
0.0
 40
0.071174503745635
 40
0.1396441217506229
 40
0.2063172239119618
 40
0.2713732401918859
 40
0.3354180839163147
 40
0.3980763446528601
 40
0.4606079146322886
 40
0.5229695111172316
 40
0.5847157240924615
 40
0.6448949403163575
 40
0.7042905608207906
 40
0.7629981899193262
 40
0.8210874309038854
 40
0.8801038914766959
 40
0.9393884881896669
 40
1.0
 40
1.0
 40
1.0
 40
1.0
 10
0.7664750669039471
 20
5.590717591798382
 30
0.0
 10
0.7651495116831611
 20
5.590748488068625
 30
0.0
 10
0.7625487770816225
 20
5.59080910644032
 30
0.0
 10
0.7587165697084044
 20
5.59115645880756
 30
0.0
 10
0.7550427824525344
 20
5.591810726300285
 30
0.0
 10
0.7514886140657261
 20
5.592643794950797
 30
0.0
 10
0.748102452761199
 20
5.593792760985382
 30
0.0
 10
0.7448389313288449
 20
5.595135206846018
 30
0.0
 10
0.7417539438832237
 20
5.596783917880784
 30
0.0
 10
0.7387974427566323
 20
5.598618303432741
 30
0.0
 10
0.7360484366087504
 20
5.600682265565367
 30
0.0
 10
0.7335249168013624
 20
5.602931878713034
 30
0.0
 10
0.7312227171717803
 20
5.605331106169547
 30
0.0
 10
0.7291806425124076
 20
5.607905923719482
 30
0.0
 10
0.727364859654915
 20
5.61063630588499
 30
0.0
 10
0.7258006780248676
 20
5.613529976743617
 30
0.0
 10
0.7244576369177764
 20
5.616585815962289
 30
0.0
 10
0.7237644649863642
 20
5.618709957710527
 30
0.0
 10
0.7234140432818996
 20
5.619783782743263
 30
0.0
  0
SPLINE
  5
11D
330
1F
100
AcDbEntity
  8
0
  6
Continuous
 62
     7
370
    25
100
AcDbSpline
210
0.0
220
0.0
230
1.0
 70
     8
 71
     3
 72
    31
 73
    27
 74
     0
 42
0.00000001
 43
0.00000001
 40
0.0
 40
0.0
 40
0.0
 40
0.0
 40
0.0548580354451508
 40
0.1070587915426356
 40
0.1569783545765299
 40
0.2039922771829825
 40
0.2484915357868544
 40
0.2904833137405299
 40
0.3304890042981845
 40
0.367885925762961
 40
0.4038581313538717
 40
0.4400093433074153
 40
0.4762950107796791
 40
0.5127922945733467
 40
0.5504848246303734
 40
0.5883811157748394
 40
0.6276453271698531
 40
0.6679794644543846
 40
0.7084327575000828
 40
0.7486023022886364
 40
0.7890877771957818
 40
0.8294612046317048
 40
0.8703710453051796
 40
0.9122142271494438
 40
0.9555465749316864
 40
1.0
 40
1.0
 40
1.0
 40
1.0
 10
0.8092876615435592
 20
5.648822370467874
 30
0.0
 10
0.809277656804012
 20
5.64732243428879
 30
0.0
 10
0.8092581319464968
 20
5.644395217639109
 30
0.0
 10
0.8090888179111763
 20
5.640105794055486
 30
0.0
 10
0.8088188572870757
 20
5.636036779043403
 30
0.0
 10
0.8084374365006933
 20
5.632187625636801
 30
0.0
 10
0.8079320426751005
 20
5.628572107556348
 30
0.0
 10
0.8073700261197991
 20
5.625158534006137
 30
0.0
 10
0.8066542964718841
 20
5.621971408311371
 30
0.0
 10
0.8058183357953809
 20
5.618985880057612
 30
0.0
 10
0.804862684297868
 20
5.616143930710609
 30
0.0
 10
0.8036248438120067
 20
5.613446741156911
 30
0.0
 10
0.8022301784603195
 20
5.610812315974623
 30
0.0
 10
0.8005760582669431
 20
5.608280500664311
 30
0.0
 10
0.7987173424148661
 20
5.605840085186453
 30
0.0
 10
0.7966129455350515
 20
5.603505869634889
 30
0.0
 10
0.7943324667596996
 20
5.601240552852422
 30
0.0
 10
0.7918379959094005
 20
5.59910224316137
 30
0.0
 10
0.7891706523953551
 20
5.597141271630362
 30
0.0
 10
0.7863383705977912
 20
5.59541694993415
 30
0.0
 10
0.783362907221706
 20
5.593959327198675
 30
0.0
 10
0.7802519967443727
 20
5.592759487655324
 30
0.0
 10
0.777004311591249
 20
5.591857338080612
 30
0.0
 10
0.7736197698698287
 20
5.591185087853014
 30
0.0
 10
0.7700906677708295
 20
5.590803107634922
 30
0.0
 10
0.7676904844559459
 20
5.590746338734928
 30
0.0
 10
0.7664750669039468
 20
5.590717591798381
 30
0.0
  0
SPLINE
  5
121
330
1F
100
AcDbEntity
  8
0
  6
Continuous
 62
     7
370
    25
100
AcDbSpline
210
0.0
220
0.0
230
1.0
 70
     8
 71
     3
 72
    15
 73
    11
 74
     0
 42
0.00000001
 43
0.00000001
 40
0.0
 40
0.0
 40
0.0
 40
0.0
 40
0.0698351039154661
 40
0.1556207549116695
 40
0.2578015566582993
 40
0.3738112340663597
 40
0.5064024926743698
 40
0.6555644581431078
 40
0.8200792824038569
 40
1.0
 40
1.0
 40
1.0
 40
1.0
 10
0.7955136546285582
 20
5.628092352044696
 30
0.0
 10
0.7956317697976539
 20
5.6285785163889
 30
0.0
 10
0.7958949779945436
 20
5.629661886470906
 30
0.0
 10
0.796140924647537
 20
5.631493433343133
 30
0.0
 10
0.7963970870654795
 20
5.633654431924507
 30
0.0
 10
0.7965748260418929
 20
5.636160408806806
 30
0.0
 10
0.7967481024361596
 20
5.639002966783355
 30
0.0
 10
0.7968517667194819
 20
5.642196913928371
 30
0.0
 10
0.7968996814015353
 20
5.645730652542987
 30
0.0
 10
0.7969139601556481
 20
5.648196682534154
 30
0.0
 10
0.7969214188623559
 20
5.649484847754367
 30
0.0
  0
SPLINE
  5
122
330
1F
100
AcDbEntity
  8
0
  6
Continuous
 62
     7
370
    25
100
AcDbSpline
210
0.0
220
0.0
230
1.0
 70
     8
 71
     3
 72
    19
 73
    15
 74
     0
 42
0.00000001
 43
0.00000001
 40
0.0
 40
0.0
 40
0.0
 40
0.0
 40
0.0828906475568674
 40
0.1653025405594721
 40
0.2477618761145892
 40
0.3315277110598078
 40
0.4152798127751562
 40
0.4963662304840597
 40
0.577151348021147
 40
0.6577825401388889
 40
0.7393216419943599
 40
0.8237930816663119
 40
0.9094759533791136
 40
1.0
 40
1.0
 40
1.0
 40
1.0
 10
0.7657849863971833
 20
5.604850440576899
 30
0.0
 10
0.7669091494047668
 20
5.604892718147042
 30
0.0
 10
0.7691509825504068
 20
5.604977029103215
 30
0.0
 10
0.7724819443885499
 20
5.605499132687052
 30
0.0
 10
0.7757260431543099
 20
5.606440099839835
 30
0.0
 10
0.7788992982687708
 20
5.607654263557107
 30
0.0
 10
0.781873746474267
 20
5.609258499426995
 30
0.0
 10
0.7846510473408598
 20
5.611111682083385
 30
0.0
 10
0.7871299423892238
 20
5.613285338619518
 30
0.0
 10
0.789392068288126
 20
5.615690863994746
 30
0.0
 10
0.7913619476524008
 20
5.618405029347784
 30
0.0
 10
0.7930694729123123
 20
5.62136873557018
 30
0.0
 10
0.7944681315597731
 20
5.624626583872645
 30
0.0
 10
0.7951588215140827
 20
5.626916128055715
 30
0.0
 10
0.7955136546285582
 20
5.628092352044696
 30
0.0
  0
SPLINE
  5
123
330
1F
100
AcDbEntity
  8
0
  6
Continuous
 62
     7
370
    25
100
AcDbSpline
210
0.0
220
0.0
230
1.0
 70
     8
 71
     3
 72
    19
 73
    15
 74
     0
 42
0.00000001
 43
0.00000001
 40
0.0
 40
0.0
 40
0.0
 40
0.0
 40
0.0863150037405901
 40
0.1677664659179401
 40
0.2444326843848618
 40
0.3181346623514604
 40
0.3918841069799561
 40
0.4700680503917534
 40
0.5539041787139143
 40
0.644339498309819
 40
0.7368746633345149
 40
0.8261683643076477
 40
0.9136785948895797
 40
1.0
 40
1.0
 40
1.0
 40
1.0
 10
0.7338756637644355
 20
5.631156309494727
 30
0.0
 10
0.7340795007252727
 20
5.629863129835219
 30
0.0
 10
0.7344756891636796
 20
5.627349636562082
 30
0.0
 10
0.7354853890761288
 20
5.623770570347709
 30
0.0
 10
0.7368955269108194
 20
5.62054492238404
 30
0.0
 10
0.7385665128449199
 20
5.617572036907193
 30
0.0
 10
0.740768584157928
 20
5.614934660527484
 30
0.0
 10
0.7434065186176417
 20
5.61250506789788
 30
0.0
 10
0.7466024937566585
 20
5.610380193699378
 30
0.0
 10
0.7501560609091501
 20
5.608437248352092
 30
0.0
 10
0.7539861883703679
 20
5.606875630936081
 30
0.0
 10
0.7579000177542734
 20
5.605694789820317
 30
0.0
 10
0.7618387177210112
 20
5.604975148096949
 30
0.0
 10
0.7644755746139525
 20
5.604891819790939
 30
0.0
 10
0.7657849863971833
 20
5.604850440576899
 30
0.0
  0
SPLINE
  5
124
330
1F
100
AcDbEntity
  8
0
  6
Continuous
 62
     7
370
    25
100
AcDbSpline
210
0.0
220
0.0
230
1.0
 70
     8
 71
     3
 72
    15
 73
    11
 74
     0
 42
0.00000001
 43
0.00000001
 40
0.0
 40
0.0
 40
0.0
 40
0.0
 40
0.1910785917157229
 40
0.3626045563099827
 40
0.5160987502785249
 40
0.650038026039825
 40
0.765976720986801
 40
0.8623740257993701
 40
0.940842058221193
 40
1.0
 40
1.0
 40
1.0
 40
1.0
 10
0.7333235993590246
 20
5.649484847754367
 30
0.0
 10
0.7333217590451371
 20
5.648316314851032
 30
0.0
 10
0.733318266732395
 20
5.646098822293949
 30
0.0
 10
0.7333415940501656
 20
5.642942589989627
 30
0.0
 10
0.7334069235152544
 20
5.640136587664759
 30
0.0
 10
0.7334481108994384
 20
5.63766999917782
 30
0.0
 10
0.7335397382039713
 20
5.635554142978654
 30
0.0
 10
0.7336144644598757
 20
5.633777555943854
 30
0.0
 10
0.7337105493696715
 20
5.632348650335409
 30
0.0
 10
0.7338260264365896
 20
5.631514755608997
 30
0.0
 10
0.7338756637644355
 20
5.631156309494727
 30
0.0
  0
SPLINE
  5
13C
330
1F
100
AcDbEntity
  8
0
  6
Continuous
 62
     7
370
    25
100
AcDbSpline
210
0.0
220
0.0
230
1.0
 70
     8
 71
     3
 72
    23
 73
    19
 74
     0
 42
0.00000001
 43
0.00000001
 40
0.0
 40
0.0
 40
0.0
 40
0.0
 40
0.061965400687056
 40
0.1221219056382957
 40
0.1809884968498366
 40
0.2399332164518936
 40
0.2999058311065227
 40
0.3599888474769831
 40
0.4217757417416406
 40
0.4865758264211207
 40
0.5515348046197355
 40
0.6150175427599743
 40
0.6772586166616522
 40
0.7397299623627115
 40
0.8030501026629475
 40
0.866495132015696
 40
0.9319734741771479
 40
1.0
 40
1.0
 40
1.0
 40
1.0
 10
-0.6757500067122841
 20
4.685966093701763
 30
0.0
 10
-0.6757750359366707
 20
4.686906306237622
 30
0.0
 10
-0.6758243637316151
 20
4.688759284598303
 30
0.0
 10
-0.6762597061526308
 20
4.69147604676439
 30
0.0
 10
-0.6769176000933596
 20
4.694096708725642
 30
0.0
 10
-0.6778603267881602
 20
4.696629331525558
 30
0.0
 10
-0.6791046866340394
 20
4.699048451685642
 30
0.0
 10
-0.6806193866307956
 20
4.701357013898384
 30
0.0
 10
-0.6823670269228373
 20
4.703588862922008
 30
0.0
 10
-0.6843887304398008
 20
4.705681512451854
 30
0.0
 10
-0.6866096564164377
 20
4.707598095344864
 30
0.0
 10
-0.6889558867150688
 20
4.709295893983224
 30
0.0
 10
-0.6914381742843568
 20
4.7107147566131
 30
0.0
 10
-0.6940460531101763
 20
4.711877886423352
 30
0.0
 10
-0.6967722526931827
 20
4.712790303005884
 30
0.0
 10
-0.6996220458082375
 20
4.713422530542231
 30
0.0
 10
-0.7025875582603043
 20
4.713819478729104
 30
0.0
 10
-0.7046124990355266
 20
4.713873186284553
 30
0.0
 10
-0.7056442942652823
 20
4.713900552615553
 30
0.0
  0
SPLINE
  5
13D
330
1F
100
AcDbEntity
  8
0
  6
Continuous
 62
     7
370
    25
100
AcDbSpline
210
0.0
220
0.0
230
1.0
 70
     8
 71
     3
 72
    19
 73
    15
 74
     0
 42
0.00000001
 43
0.00000001
 40
0.0
 40
0.0
 40
0.0
 40
0.0
 40
0.1108026438013246
 40
0.2128292023477733
 40
0.306101309823114
 40
0.3906473211160058
 40
0.4669244693608504
 40
0.534481039284032
 40
0.5935869409656708
 40
0.6445570045087136
 40
0.7362004526293661
 40
0.8250240256188639
 40
0.9119855848297533
 40
1.0
 40
1.0
 40
1.0
 40
1.0
 10
-0.7018074466476769
 20
4.643733166687833
 30
0.0
 10
-0.7005063487418559
 20
4.645091367733054
 30
0.0
 10
-0.6980072059418991
 20
4.647700193977315
 30
0.0
 10
-0.6944724588234265
 20
4.651508971935344
 30
0.0
 10
-0.6912976955040407
 20
4.65504241842165
 30
0.0
 10
-0.688462365079953
 20
4.658293857336788
 30
0.0
 10
-0.6860279751049204
 20
4.661310848194877
 30
0.0
 10
-0.6838676510124888
 20
4.66399567904479
 30
0.0
 10
-0.6821367222336667
 20
4.666466326694708
 30
0.0
 10
-0.6802581633483251
 20
4.66933013039205
 30
0.0
 10
-0.6784387152617812
 20
4.67282667831229
 30
0.0
 10
-0.6768752366775135
 20
4.677099658204456
 30
0.0
 10
-0.6759218961874099
 20
4.681498368939731
 30
0.0
 10
-0.6758075325848187
 20
4.684470890083325
 30
0.0
 10
-0.6757500067122841
 20
4.685966093701763
 30
0.0
  0
SPLINE
  5
143
330
1F
100
AcDbEntity
  8
0
  6
Continuous
 62
     7
370
    25
100
AcDbSpline
210
0.0
220
0.0
230
1.0
 70
     8
 71
     3
 72
    19
 73
    15
 74
     0
 42
0.00000001
 43
0.00000001
 40
0.0
 40
0.0
 40
0.0
 40
0.0
 40
0.0987021963061513
 40
0.1956723088106624
 40
0.2924224265079532
 40
0.3913425437998247
 40
0.4444624406718889
 40
0.504228775449316
 40
0.5703523379946804
 40
0.6425457530977446
 40
0.7222875053440148
 40
0.8079211226827075
 40
0.9004695379850164
 40
1.0
 40
1.0
 40
1.0
 40
1.0
 10
-0.6633837640310809
 20
4.687070222512586
 30
0.0
 10
-0.6634504279230683
 20
4.685151016426962
 30
0.0
 10
-0.6635825858501225
 20
4.681346283605289
 30
0.0
 10
-0.6647130731165557
 20
4.675755147276578
 30
0.0
 10
-0.6664786837896055
 20
4.670338083533013
 30
0.0
 10
-0.6686045639805243
 20
4.665978347230472
 30
0.0
 10
-0.6707491483924019
 20
4.662465217555
 30
0.0
 10
-0.6726817274315215
 20
4.659572748857371
 30
0.0
 10
-0.674944121566238
 20
4.656458360338103
 30
0.0
 10
-0.6775692592813048
 20
4.653132480913932
 30
0.0
 10
-0.6805028369250345
 20
4.649569059453358
 30
0.0
 10
-0.6837714260335638
 20
4.645770248610902
 30
0.0
 10
-0.6873983347745632
 20
4.641775297043183
 30
0.0
 10
-0.6899439450404823
 20
4.639046730059411
 30
0.0
 10
-0.6912630165043293
 20
4.637632855008042
 30
0.0
  0
SPLINE
  5
144
330
1F
100
AcDbEntity
  8
0
  6
Continuous
 62
     7
370
    25
100
AcDbSpline
210
0.0
220
0.0
230
1.0
 70
     8
 71
     3
 72
    23
 73
    19
 74
     0
 42
0.00000001
 43
0.00000001
 40
0.0
 40
0.0
 40
0.0
 40
0.0
 40
0.0694754602496703
 40
0.1365167976177984
 40
0.2007888236092592
 40
0.2638296728558257
 40
0.3257350229654196
 40
0.3872906922152891
 40
0.4495092187626001
 40
0.5129678195454404
 40
0.5762752154930616
 40
0.6375801002639193
 40
0.6979026059170985
 40
0.7571720884269817
 40
0.8165985284886518
 40
0.8766531708928149
 40
0.9372896424102423
 40
1.0
 40
1.0
 40
1.0
 40
1.0
 10
-0.7050094201990598
 20
4.728033401394072
 30
0.0
 10
-0.7034984724003457
 20
4.727998029093071
 30
0.0
 10
-0.7005295139493058
 20
4.72792852378516
 30
0.0
 10
-0.6961963637739953
 20
4.727331632869122
 30
0.0
 10
-0.692071273440791
 20
4.726396767056712
 30
0.0
 10
-0.6881623062548899
 20
4.725085136493197
 30
0.0
 10
-0.6845006501694072
 20
4.723321970060418
 30
0.0
 10
-0.6810587980215197
 20
4.721203956727422
 30
0.0
 10
-0.6777957739746294
 20
4.718754357067099
 30
0.0
 10
-0.6748584990292692
 20
4.715870348663619
 30
0.0
 10
-0.672161330555401
 20
4.712791514629354
 30
0.0
 10
-0.6698344701166495
 20
4.709504589290292
 30
0.0
 10
-0.6678418258854167
 20
4.706109735521985
 30
0.0
 10
-0.6661808936066297
 20
4.70258106616838
 30
0.0
 10
-0.6649582109712312
 20
4.698885356388355
 30
0.0
 10
-0.6640299350645628
 20
4.695076411396557
 30
0.0
 10
-0.6635052337382606
 20
4.691114804664017
 30
0.0
 10
-0.6634247052540927
 20
4.688433444205443
 30
0.0
 10
-0.6633837640310807
 20
4.687070222512585
 30
0.0
  0
SPLINE
  5
145
330
1F
100
AcDbEntity
  8
0
  6
Continuous
 62
     7
370
    25
100
AcDbSpline
210
0.0
220
0.0
230
1.0
 70
     8
 71
     3
 72
    23
 73
    19
 74
     0
 42
0.00000001
 43
0.00000001
 40
0.0
 40
0.0
 40
0.0
 40
0.0
 40
0.06879079439062
 40
0.1351032894311323
 40
0.1989786743106527
 40
0.2619042997808618
 40
0.3234949693679732
 40
0.3851953779660542
 40
0.4469692387407774
 40
0.5097647767031352
 40
0.5722505688473687
 40
0.6334051756611545
 40
0.693251162921753
 40
0.7525831627856712
 40
0.8125792661534227
 40
0.8732750849201916
 40
0.9355499428950298
 40
1.0
 40
1.0
 40
1.0
 40
1.0
 10
-0.749947462799504
 20
4.682101642863887
 30
0.0
 10
-0.7498668662243887
 20
4.683742228996477
 30
0.0
 10
-0.7497085766958053
 20
4.686964296499426
 30
0.0
 10
-0.7489673054650285
 20
4.691662088089943
 30
0.0
 10
-0.7479066410081431
 20
4.696152434496431
 30
0.0
 10
-0.7464069774642537
 20
4.700399281503113
 30
0.0
 10
-0.7445445255835538
 20
4.704440179425564
 30
0.0
 10
-0.7423110599386372
 20
4.708259077681129
 30
0.0
 10
-0.7396656327530691
 20
4.711841407945482
 30
0.0
 10
-0.7366653676331706
 20
4.715153960831131
 30
0.0
 10
-0.7334067597963594
 20
4.718192841571263
 30
0.0
 10
-0.7298907779274209
 20
4.720817063728985
 30
0.0
 10
-0.7261960918137869
 20
4.723034294884969
 30
0.0
 10
-0.722333910752157
 20
4.724887887082757
 30
0.0
 10
-0.7182606602183205
 20
4.726279219599394
 30
0.0
 10
-0.7140133036104681
 20
4.72731156761532
 30
0.0
 10
-0.7095731801297818
 20
4.727932683588613
 30
0.0
 10
-0.7065479824113984
 20
4.727999446801379
 30
0.0
 10
-0.7050094201990598
 20
4.728033401394072
 30
0.0
  0
SPLINE
  5
147
330
1F
100
AcDbEntity
  8
0
  6
Continuous
 62
     7
370
    25
100
AcDbSpline
210
0.0
220
0.0
230
1.0
 70
     8
 71
     3
 72
    23
 73
    19
 74
     0
 42
0.00000001
 43
0.00000001
 40
0.0
 40
0.0
 40
0.0
 40
0.0
 40
0.0644386715952423
 40
0.1265469112716771
 40
0.18688715343657
 40
0.2458775355894525
 40
0.3040408846912655
 40
0.3621912180726612
 40
0.4209759327916449
 40
0.4806602832796656
 40
0.5406002749537546
 40
0.6006890983494472
 40
0.6619357897571951
 40
0.7244425059139764
 40
0.7890383938817414
 40
0.8563137570509942
 40
0.9263520282058639
 40
1.0
 40
1.0
 40
1.0
 40
1.0
 10
-0.7056442942652823
 20
4.713900552615553
 30
0.0
 10
-0.7067218861060827
 20
4.713872401739021
 30
0.0
 10
-0.7088380985556714
 20
4.71381711806562
 30
0.0
 10
-0.7119451470964804
 20
4.713430399010817
 30
0.0
 10
-0.7149091540856084
 20
4.712763239940071
 30
0.0
 10
-0.7177375754617077
 20
4.711850772444518
 30
0.0
 10
-0.7204351969503975
 20
4.710690987057811
 30
0.0
 10
-0.7229888994715522
 20
4.709246430180698
 30
0.0
 10
-0.7253929502298168
 20
4.707522670607762
 30
0.0
 10
-0.7276518684717651
 20
4.705568317996579
 30
0.0
 10
-0.7297331274900148
 20
4.703392428184928
 30
0.0
 10
-0.7315617446500512
 20
4.700966839087805
 30
0.0
 10
-0.7331595404824774
 20
4.698335838482642
 30
0.0
 10
-0.7345536047927059
 20
4.695506525468103
 30
0.0
 10
-0.7356857185754919
 20
4.692453227043513
 30
0.0
 10
-0.736550803238134
 20
4.689186781970741
 30
0.0
 10
-0.7372353247626068
 20
4.685721373252687
 30
0.0
 10
-0.7374640066761834
 20
4.683328259675656
 30
0.0
 10
-0.7375812201183007
 20
4.682101642863887
 30
0.0
  0
SPLINE
  5
148
330
1F
100
AcDbEntity
  8
0
  6
Continuous
 62
     7
370
    25
100
AcDbSpline
210
0.0
220
0.0
230
1.0
 70
     8
 71
     3
 72
    31
 73
    27
 74
     0
 42
0.00000001
 43
0.00000001
 40
0.0
 40
0.0
 40
0.0
 40
0.0
 40
0.065063289617282
 40
0.1267731664665241
 40
0.1855157632260795
 40
0.2407646791677157
 40
0.2929797960236001
 40
0.3422503727797662
 40
0.3889192861856624
 40
0.4327756640583112
 40
0.4746284326311185
 40
0.5147746906379544
 40
0.5536058934984446
 40
0.5914264064311721
 40
0.6280281199460684
 40
0.6638036341103197
 40
0.6989843361316657
 40
0.7335914893067069
 40
0.7676284691511412
 40
0.8012083477865934
 40
0.834263839726623
 40
0.8669806947287767
 40
0.8997197415181605
 40
0.9327019124985388
 40
0.96617588343275
 40
1.0
 40
1.0
 40
1.0
 40
1.0
 10
-0.5556207920948805
 20
4.655547344963625
 30
0.0
 10
-0.5556464450296806
 20
4.653440104493511
 30
0.0
 10
-0.5556964287269838
 20
4.649334232373086
 30
0.0
 10
-0.5559554329304368
 20
4.64332907586443
 30
0.0
 10
-0.5564656152603087
 20
4.63765986156134
 30
0.0
 10
-0.5571038037764018
 20
4.632312992960601
 30
0.0
 10
-0.5579876999564578
 20
4.627310724502609
 30
0.0
 10
-0.5590745175254062
 20
4.622635746216474
 30
0.0
 10
-0.56028122314831
 20
4.618267869379251
 30
0.0
 10
-0.5617707819715307
 20
4.614242876796181
 30
0.0
 10
-0.5634011248985874
 20
4.610504619990484
 30
0.0
 10
-0.5651749515196649
 20
4.607013787379074
 30
0.0
 10
-0.5670753383734317
 20
4.603739523887751
 30
0.0
 10
-0.5691457614050475
 20
4.6007080377881
 30
0.0
 10
-0.5713525886962448
 20
4.597897854438774
 30
0.0
 10
-0.5737430528219537
 20
4.59535857795643
 30
0.0
 10
-0.5762497687708502
 20
4.593029023942133
 30
0.0
 10
-0.5789038008902972
 20
4.59095612522315
 30
0.0
 10
-0.5816759092065237
 20
4.589141762835892
 30
0.0
 10
-0.5845089437311257
 20
4.58751917030094
 30
0.0
 10
-0.5874531714219638
 20
4.586210796480079
 30
0.0
 10
-0.5904418703483222
 20
4.585087369669932
 30
0.0
 10
-0.5935177902741078
 20
4.584229084162603
 30
0.0
 10
-0.5966770969941647
 20
4.58363562528384
 30
0.0
 10
-0.599903720455924
 20
4.583219410777745
 30
0.0
 10
-0.602084884435501
 20
4.583187659601553
 30
0.0
 10
-0.6031811406210262
 20
4.583171701414261
 30
0.0
  0
SPLINE
  5
149
330
1F
100
AcDbEntity
  8
0
  6
Continuous
 62
     7
370
    25
100
AcDbSpline
210
0.0
220
0.0
230
1.0
 70
     8
 71
     3
 72
    31
 73
    27
 74
     0
 42
0.00000001
 43
0.00000001
 40
0.0
 40
0.0
 40
0.0
 40
0.0
 40
0.0337881161627101
 40
0.0671939323738802
 40
0.0998624108568252
 40
0.132566612126258
 40
0.1651511732547862
 40
0.1979131873557934
 40
0.2313190035669632
 40
0.2650832782673748
 40
0.2992553087581156
 40
0.334398566504979
 40
0.3699428235093064
 40
0.4062835607000619
 40
0.4440638196985107
 40
0.482997706872774
 40
0.5233544466133033
 40
0.5655365896041478
 40
0.6096129240658225
 40
0.6563908113764179
 40
0.7058854949364549
 40
0.7583245002617303
 40
0.8138317829411496
 40
0.8727945590393886
 40
0.9347222295400767
 40
1.0
 40
1.0
 40
1.0
 40
1.0
 10
-0.6031811406210262
 20
4.728033401394072
 30
0.0
 10
-0.6020852556413278
 20
4.728014196072195
 30
0.0
 10
-0.5999058852123638
 20
4.727976002729506
 30
0.0
 10
-0.5966838231948083
 20
4.727608918377752
 30
0.0
 10
-0.5935361979304536
 20
4.726999819043225
 30
0.0
 10
-0.5904764286901593
 20
4.726136788547845
 30
0.0
 10
-0.5874793819788295
 20
4.725066092616372
 30
0.0
 10
-0.5845684997880557
 20
4.723724080131757
 30
0.0
 10
-0.5817257012982116
 20
4.722161920000088
 30
0.0
 10
-0.5789961624194753
 20
4.720326334279353
 30
0.0
 10
-0.5763499177208107
 20
4.718279787972393
 30
0.0
 10
-0.5738519664226968
 20
4.715966297074625
 30
0.0
 10
-0.571502081151143
 20
4.713409221512866
 30
0.0
 10
-0.5692707699154649
 20
4.710635919785048
 30
0.0
 10
-0.5672213369548644
 20
4.707593199909708
 30
0.0
 10
-0.5652696270243356
 20
4.704333982987893
 30
0.0
 10
-0.5635226964770261
 20
4.700801271775539
 30
0.0
 10
-0.5618402289503096
 20
4.697054009262111
 30
0.0
 10
-0.5603879853778986
 20
4.692988510883896
 30
0.0
 10
-0.5590782906821383
 20
4.688627693540665
 30
0.0
 10
-0.5580200635728887
 20
4.683920048388958
 30
0.0
 10
-0.5571385961580017
 20
4.678890274952142
 30
0.0
 10
-0.5564557262388827
 20
4.673519901596229
 30
0.0
 10
-0.5559583781255543
 20
4.667820440355611
 30
0.0
 10
-0.555695658242037
 20
4.661788141511485
 30
0.0
 10
-0.5556461818165774
 20
4.657663816740731
 30
0.0
 10
-0.5556207920948805
 20
4.655547344963625
 30
0.0
  0
SPLINE
  5
14A
330
1F
100
AcDbEntity
  8
0
  6
Continuous
 62
     7
370
    25
100
AcDbSpline
210
0.0
220
0.0
230
1.0
 70
     8
 71
     3
 72
    31
 73
    27
 74
     0
 42
0.00000001
 43
0.00000001
 40
0.0
 40
0.0
 40
0.0
 40
0.0
 40
0.0685946222587445
 40
0.1332460424433006
 40
0.1943125864682546
 40
0.2512792231169647
 40
0.3045134392563465
 40
0.3542349066533269
 40
0.4004805887739888
 40
0.4434107549384909
 40
0.4840148686163445
 40
0.5232523007732027
 40
0.5610423727283611
 40
0.5979002393643984
 40
0.6335184888561967
 40
0.6683143511696501
 40
0.7024956712863802
 40
0.7366853535134603
 40
0.7702931693607877
 40
0.8034372550192481
 40
0.8359129516660282
 40
0.8684602457892905
 40
0.900846538243182
 40
0.9334665246307071
 40
0.9662575752981232
 40
1.0
 40
1.0
 40
1.0
 40
1.0
 10
-0.6492509152525628
 20
4.655547344963625
 30
0.0
 10
-0.6492380011518751
 20
4.65775590353584
 30
0.0
 10
-0.6492129153251489
 20
4.662046060395976
 30
0.0
 10
-0.6489338436345095
 20
4.668297424256873
 30
0.0
 10
-0.6484702474804477
 20
4.674162002563771
 30
0.0
 10
-0.6478349178406727
 20
4.67964007602985
 30
0.0
 10
-0.6470617690129723
 20
4.684733058884878
 30
0.0
 10
-0.6460296632412672
 20
4.6894273406619
 30
0.0
 10
-0.644855930854851
 20
4.693744648008868
 30
0.0
 10
-0.6434955983426268
 20
4.697699059366193
 30
0.0
 10
-0.6419606460190695
 20
4.701343850823756
 30
0.0
 10
-0.6402900058331621
 20
4.704746417803829
 30
0.0
 10
-0.6384173761314461
 20
4.70790161199043
 30
0.0
 10
-0.6364497811343158
 20
4.710859792715628
 30
0.0
 10
-0.634307573589914
 20
4.713572536605089
 30
0.0
 10
-0.6320517156975026
 20
4.716078153239677
 30
0.0
 10
-0.6295941615137571
 20
4.718318733966599
 30
0.0
 10
-0.6270184525266143
 20
4.720359926973885
 30
0.0
 10
-0.6243012688891441
 20
4.722149276252306
 30
0.0
 10
-0.6215200615606723
 20
4.723725368323795
 30
0.0
 10
-0.6186556873143753
 20
4.725071819790629
 30
0.0
 10
-0.6157003257829609
 20
4.726130498367777
 30
0.0
 10
-0.6126805400392721
 20
4.7270049411541
 30
0.0
 10
-0.6095857736341035
 20
4.727602931218926
 30
0.0
 10
-0.6064109167862166
 20
4.727979187458667
 30
0.0
 10
-0.6042679469122737
 20
4.728015158629539
 30
0.0
 10
-0.6031811406210262
 20
4.728033401394072
 30
0.0
  0
SPLINE
  5
14B
330
1F
100
AcDbEntity
  8
0
  6
Continuous
 62
     7
370
    25
100
AcDbSpline
210
0.0
220
0.0
230
1.0
 70
     8
 71
     3
 72
    31
 73
    27
 74
     0
 42
0.00000001
 43
0.00000001
 40
0.0
 40
0.0
 40
0.0
 40
0.0
 40
0.0337871463469908
 40
0.0666216577242936
 40
0.0992848780959729
 40
0.1313611650426511
 40
0.1635851875953439
 40
0.1961039269870666
 40
0.2289022543238157
 40
0.2621580559050065
 40
0.2959912222583154
 40
0.3302178457248015
 40
0.365059825891954
 40
0.4009507373401057
 40
0.4376203820767373
 40
0.4757075294370927
 40
0.5153806916250498
 40
0.5564135414931654
 40
0.5997648298727316
 40
0.6464241555840854
 40
0.6964314445175671
 40
0.749781517801559
 40
0.8065733069755339
 40
0.8674355315653998
 40
0.9318867532508719
 40
1.0
 40
1.0
 40
1.0
 40
1.0
 10
-0.6031811406210262
 20
4.583171701414261
 30
0.0
 10
-0.604267916762178
 20
4.583190061865395
 30
0.0
 10
-0.6064108271860169
 20
4.583226265091278
 30
0.0
 10
-0.609586119526153
 20
4.58360082144908
 30
0.0
 10
-0.6126681054883553
 20
4.584203006614921
 30
0.0
 10
-0.615671993442592
 20
4.585046180004333
 30
0.0
 10
-0.6186131948238394
 20
4.586078260174234
 30
0.0
 10
-0.6214516313063512
 20
4.587422893386949
 30
0.0
 10
-0.6242188629477161
 20
4.588971478778917
 30
0.0
 10
-0.626907506885436
 20
4.59073507804814
 30
0.0
 10
-0.6294670407846422
 20
4.592755616753982
 30
0.0
 10
-0.6319118677655013
 20
4.594990431269199
 30
0.0
 10
-0.6341805693047525
 20
4.597495289981695
 30
0.0
 10
-0.6362921478723637
 20
4.600230641285147
 30
0.0
 10
-0.638299001738338
 20
4.603171320117148
 30
0.0
 10
-0.6401450400579932
 20
4.606357476536258
 30
0.0
 10
-0.6418525539976807
 20
4.609776476949236
 30
0.0
 10
-0.6434133213468348
 20
4.613450410440379
 30
0.0
 10
-0.644797126997029
 20
4.617432887915175
 30
0.0
 10
-0.6460194777101557
 20
4.62176946974598
 30
0.0
 10
-0.6469846020200004
 20
4.626498431797714
 30
0.0
 10
-0.6478107026236575
 20
4.631581792707376
 30
0.0
 10
-0.6484770169167086
 20
4.637041396265874
 30
0.0
 10
-0.6489319116142821
 20
4.642880206430713
 30
0.0
 10
-0.6492130657495482
 20
4.649094584734891
 30
0.0
 10
-0.6492380685219938
 20
4.653357174274916
 30
0.0
 10
-0.6492509152525628
 20
4.655547344963625
 30
0.0
  0
SPLINE
  5
157
330
1F
100
AcDbEntity
  8
0
  6
Continuous
 62
     7
370
    25
100
AcDbSpline
210
0.0
220
0.0
230
1.0
 70
     8
 71
     3
 72
    15
 73
    11
 74
     0
 42
0.00000001
 43
0.00000001
 40
0.0
 40
0.0
 40
0.0
 40
0.0
 40
0.0751731173762204
 40
0.1647462575117997
 40
0.2680168809877783
 40
0.3859118756529539
 40
0.5177894792733968
 40
0.6636909770022801
 40
0.824413220536641
 40
0.9999999999999999
 40
0.9999999999999999
 40
0.9999999999999999
 40
0.9999999999999999
 10
-0.3742664009982375
 20
5.166423866790969
 30
0.0
 10
-0.3751296818640412
 20
5.166240284858768
 30
0.0
 10
-0.3770216120750889
 20
5.165837954380368
 30
0.0
 10
-0.3801374672789373
 20
5.165388802536083
 30
0.0
 10
-0.3837652383785363
 20
5.165005432430356
 30
0.0
 10
-0.3878999738082831
 20
5.164717986068897
 30
0.0
 10
-0.3925379621910223
 20
5.164471908570391
 30
0.0
 10
-0.3976817124795949
 20
5.164276314322729
 30
0.0
 10
-0.4033413218173629
 20
5.164168839762288
 30
0.0
 10
-0.4072890085920857
 20
5.164163296738726
 30
0.0
 10
-0.4093500939620978
 20
5.164160402728784
 30
0.0
  0
SPLINE
  5
158
330
1F
100
AcDbEntity
  8
0
  6
Continuous
 62
     7
370
    25
100
AcDbSpline
210
0.0
220
0.0
230
1.0
 70
     8
 71
     3
 72
    23
 73
    19
 74
     0
 42
0.00000001
 43
0.00000001
 40
0.0
 40
0.0
 40
0.0
 40
0.0
 40
0.0701188944197158
 40
0.1371923527859739
 40
0.2020161807247568
 40
0.2646314069747527
 40
0.3261165471458316
 40
0.3860103046676394
 40
0.4458118469576843
 40
0.50529769673097
 40
0.5646332777264884
 40
0.6242826253338469
 40
0.6839020319037499
 40
0.7439527709382753
 40
0.8053877310076355
 40
0.8683880308962765
 40
0.9330840282524785
 40
1.0
 40
1.0
 40
1.0
 40
1.0
 10
-0.3467735936087766
 20
5.201397146873748
 30
0.0
 10
-0.3467901851335389
 20
5.200264163535659
 30
0.0
 10
-0.3468226475723333
 20
5.198047405112607
 30
0.0
 10
-0.3472122651049648
 20
5.194804381955575
 30
0.0
 10
-0.3477370757986148
 20
5.191705232737792
 30
0.0
 10
-0.3485440463626778
 20
5.188756829176006
 30
0.0
 10
-0.3496009626263942
 20
5.18597668073227
 30
0.0
 10
-0.3508408072266189
 20
5.18332230151886
 30
0.0
 10
-0.3523362218081057
 20
5.180838849869306
 30
0.0
 10
-0.3540545221904086
 20
5.178517309808613
 30
0.0
 10
-0.3559660022846178
 20
5.176355502237187
 30
0.0
 10
-0.3580625746526194
 20
5.174369093005193
 30
0.0
 10
-0.3603357751447567
 20
5.172569709602731
 30
0.0
 10
-0.3627783793997307
 20
5.170953318119251
 30
0.0
 10
-0.3654142002200675
 20
5.169557401603596
 30
0.0
 10
-0.368203261384278
 20
5.168307114008099
 30
0.0
 10
-0.3711698053378966
 20
5.167257072250679
 30
0.0
 10
-0.3732226602188169
 20
5.166704707627593
 30
0.0
 10
-0.3742664009982375
 20
5.166423866790969
 30
0.0
  0
SPLINE
  5
159
330
1F
100
AcDbEntity
  8
0
  6
Continuous
 62
     7
370
    25
100
AcDbSpline
210
0.0
220
0.0
230
1.0
 70
     8
 71
     3
 72
    23
 73
    19
 74
     0
 42
0.00000001
 43
0.00000001
 40
0.0
 40
0.0
 40
0.0
 40
0.0
 40
0.0624813386352036
 40
0.1234903826872876
 40
0.1834110942063158
 40
0.2431532209997797
 40
0.3021267353720827
 40
0.3617096708329092
 40
0.4218422916948746
 40
0.4829319014466708
 40
0.5445522544313333
 40
0.6056807199653548
 40
0.6676797383436901
 40
0.7299843875380715
 40
0.7945509212861421
 40
0.8603456197120771
 40
0.9289073562657063
 40
1.0
 40
1.0
 40
1.0
 40
1.0
 10
-0.3731622721874158
 20
5.236287617295713
 30
0.0
 10
-0.3722097708572862
 20
5.236026910609425
 30
0.0
 10
-0.3703272126993279
 20
5.235511640463778
 30
0.0
 10
-0.3676145732071378
 20
5.234479604106474
 30
0.0
 10
-0.3650337131488555
 20
5.233255896816095
 30
0.0
 10
-0.3625757777769982
 20
5.231861253514882
 30
0.0
 10
-0.3602709713568844
 20
5.230235837602002
 30
0.0
 10
-0.3580849067519243
 20
5.228445537691007
 30
0.0
 10
-0.3560368760316204
 20
5.226449019243272
 30
0.0
 10
-0.354138396036181
 20
5.224268675154791
 30
0.0
 10
-0.3523949000683093
 20
5.221941107836621
 30
0.0
 10
-0.3508937314570023
 20
5.219431571226089
 30
0.0
 10
-0.3496367540147484
 20
5.216782307311925
 30
0.0
 10
-0.3485586724602538
 20
5.213995158841161
 30
0.0
 10
-0.3477827490559551
 20
5.211046720908435
 30
0.0
 10
-0.3471982254455037
 20
5.207957480263777
 30
0.0
 10
-0.346827216484258
 20
5.204727768051123
 30
0.0
 10
-0.3467916825568901
 20
5.202520686652663
 30
0.0
 10
-0.3467735936087766
 20
5.201397146873748
 30
0.0
  0
SPLINE
  5
15A
330
1F
100
AcDbEntity
  8
0
  6
Continuous
 62
     7
370
    25
100
AcDbSpline
210
0.0
220
0.0
230
1.0
 70
     8
 71
     3
 72
    15
 73
    11
 74
     0
 42
0.00000001
 43
0.00000001
 40
0.0
 40
0.0
 40
0.0
 40
0.0
 40
0.1769557521312492
 40
0.3390550796425802
 40
0.4863182249420747
 40
0.6187809228353743
 40
0.7356188277673789
 40
0.8387424767201076
 40
0.9264570678763184
 40
0.9999999999999999
 40
0.9999999999999999
 40
0.9999999999999999
 40
0.9999999999999999
 10
-0.4045471336350234
 20
5.238357858816006
 30
0.0
 10
-0.4026884365424383
 20
5.238355815656917
 30
0.0
 10
-0.399127090368789
 20
5.238351900873368
 30
0.0
 10
-0.394020198411746
 20
5.238233210092829
 30
0.0
 10
-0.3893820200012604
 20
5.238074678908075
 30
0.0
 10
-0.3852225561852479
 20
5.237854919333545
 30
0.0
 10
-0.3815290090164845
 20
5.23759521105608
 30
0.0
 10
-0.3783180917115019
 20
5.237230957537288
 30
0.0
 10
-0.375564565871587
 20
5.236850630940696
 30
0.0
 10
-0.3739147056571571
 20
5.23646396139269
 30
0.0
 10
-0.3731622721874158
 20
5.236287617295713
 30
0.0
  0
SPLINE
  5
16F
330
1F
100
AcDbEntity
  8
0
  6
Continuous
 62
     7
370
    25
100
AcDbSpline
210
0.0
220
0.0
230
1.0
 70
     8
 71
     3
 72
    15
 73
    11
 74
     0
 42
0.00000001
 43
0.00000001
 40
0.0
 40
0.0
 40
0.0
 40
0.0
 40
0.0781298651584416
 40
0.1694654174977207
 40
0.274335290854078
 40
0.3921101633539161
 40
0.5236873298575127
 40
0.6683654211389508
 40
0.8271319021257983
 40
1.0
 40
1.0
 40
1.0
 40
1.0
 10
-0.7965680679172766
 20
5.126095561975705
 30
0.0
 10
-0.796771893042249
 20
5.126829127898906
 30
0.0
 10
-0.7972139942775439
 20
5.128420248722995
 30
0.0
 10
-0.7976874311926936
 20
5.131053575044157
 30
0.0
 10
-0.798085426532908
 20
5.134085658416213
 30
0.0
 10
-0.7984596611085468
 20
5.137516706383459
 30
0.0
 10
-0.7986804862249525
 20
5.141349378296945
 30
0.0
 10
-0.7988740861736269
 20
5.145582012779995
 30
0.0
 10
-0.7990261184097113
 20
5.150219727807007
 30
0.0
 10
-0.7990252218583914
 20
5.15345022054786
 30
0.0
 10
-0.799024754521355
 20
5.155134149700318
 30
0.0
  0
SPLINE
  5
170
330
1F
100
AcDbEntity
  8
0
  6
Continuous
 62
     7
370
    25
100
AcDbSpline
210
0.0
220
0.0
230
1.0
 70
     8
 71
     3
 72
    23
 73
    19
 74
     0
 42
0.00000001
 43
0.00000001
 40
0.0
 40
0.0
 40
0.0
 40
0.0
 40
0.0711745037456351
 40
0.139644121750623
 40
0.206317223911962
 40
0.271373240191886
 40
0.3354180839163126
 40
0.398076344652858
 40
0.4606079146322865
 40
0.5229695111172316
 40
0.5847157240924616
 40
0.644894940316356
 40
0.704290560820789
 40
0.7629981899193262
 40
0.8210874309038855
 40
0.8801038914766948
 40
0.9393884881896658
 40
0.9999999999999999
 40
0.9999999999999999
 40
0.9999999999999999
 40
0.9999999999999999
 10
-0.7535070442952293
 20
5.097029371030824
 30
0.0
 10
-0.7548325995160154
 20
5.097060267301066
 30
0.0
 10
-0.7574333341175539
 20
5.09712088567276
 30
0.0
 10
-0.7612655414907719
 20
5.097468238040003
 30
0.0
 10
-0.7649393287466419
 20
5.098122505532727
 30
0.0
 10
-0.7684934971334504
 20
5.098955574183242
 30
0.0
 10
-0.771879658437977
 20
5.100104540217822
 30
0.0
 10
-0.7751431798703312
 20
5.101446986078459
 30
0.0
 10
-0.7782281673159527
 20
5.103095697113226
 30
0.0
 10
-0.7811846684425438
 20
5.104930082665184
 30
0.0
 10
-0.7839336745904257
 20
5.106994044797811
 30
0.0
 10
-0.7864571943978136
 20
5.109243657945478
 30
0.0
 10
-0.7887593940273956
 20
5.111642885401988
 30
0.0
 10
-0.790801468686769
 20
5.114217702951924
 30
0.0
 10
-0.7926172515442611
 20
5.116948085117432
 30
0.0
 10
-0.794181433174309
 20
5.119841755976061
 30
0.0
 10
-0.7955244742813989
 20
5.122897595194734
 30
0.0
 10
-0.7962176462128119
 20
5.125021736942968
 30
0.0
 10
-0.7965680679172766
 20
5.126095561975705
 30
0.0
  0
SPLINE
  5
171
330
1F
100
AcDbEntity
  8
0
  6
Continuous
 62
     7
370
    25
100
AcDbSpline
210
0.0
220
0.0
230
1.0
 70
     8
 71
     3
 72
    31
 73
    27
 74
     0
 42
0.00000001
 43
0.00000001
 40
0.0
 40
0.0
 40
0.0
 40
0.0
 40
0.0548580354451507
 40
0.1070587915426354
 40
0.1569783545765298
 40
0.2039922771829824
 40
0.2484915357868542
 40
0.2904833137405294
 40
0.3304890042981839
 40
0.3678859257629604
 40
0.403858131353871
 40
0.4400093433074146
 40
0.4762950107796784
 40
0.512792294573347
 40
0.5504848246303735
 40
0.5883811157748384
 40
0.6276453271698532
 40
0.6679794644543834
 40
0.7084327575000816
 40
0.7486023022886351
 40
0.7890877771957819
 40
0.8294612046317033
 40
0.8703710453051796
 40
0.9122142271494421
 40
0.9555465749316864
 40
1.0
 40
1.0
 40
1.0
 40
1.0
 10
-0.710694449655617
 20
5.155134149700317
 30
0.0
 10
-0.7107044543951644
 20
5.153634213521234
 30
0.0
 10
-0.7107239792526799
 20
5.150706996871554
 30
0.0
 10
-0.7108932932879993
 20
5.146417573287925
 30
0.0
 10
-0.711163253912101
 20
5.142348558275847
 30
0.0
 10
-0.7115446746984828
 20
5.138499404869244
 30
0.0
 10
-0.7120500685240757
 20
5.134883886788792
 30
0.0
 10
-0.712612085079377
 20
5.131470313238579
 30
0.0
 10
-0.7133278147272918
 20
5.128283187543815
 30
0.0
 10
-0.7141637754037949
 20
5.125297659290053
 30
0.0
 10
-0.7151194269013084
 20
5.122455709943051
 30
0.0
 10
-0.716357267387169
 20
5.119758520389353
 30
0.0
 10
-0.7177519327388568
 20
5.117124095207067
 30
0.0
 10
-0.7194060529322329
 20
5.114592279896753
 30
0.0
 10
-0.7212647687843102
 20
5.112151864418897
 30
0.0
 10
-0.7233691656641241
 20
5.109817648867332
 30
0.0
 10
-0.7256496444394767
 20
5.107552332084869
 30
0.0
 10
-0.7281441152897755
 20
5.10541402239381
 30
0.0
 10
-0.7308114588038209
 20
5.103453050862806
 30
0.0
 10
-0.7336437406013852
 20
5.101728729166592
 30
0.0
 10
-0.7366192039774699
 20
5.100271106431116
 30
0.0
 10
-0.7397301144548034
 20
5.099071266887767
 30
0.0
 10
-0.7429777996079269
 20
5.09816911731305
 30
0.0
 10
-0.7463623413293479
 20
5.09749686708546
 30
0.0
 10
-0.7498914434283466
 20
5.097114886867363
 30
0.0
 10
-0.7522916267432304
 20
5.097058117967372
 30
0.0
 10
-0.7535070442952293
 20
5.097029371030824
 30
0.0
  0
SPLINE
  5
175
330
1F
100
AcDbEntity
  8
0
  6
Continuous
 62
     7
370
    25
100
AcDbSpline
210
0.0
220
0.0
230
1.0
 70
     8
 71
     3
 72
    15
 73
    11
 74
     0
 42
0.00000001
 43
0.00000001
 40
0.0
 40
0.0
 40
0.0
 40
0.0
 40
0.0698351039154661
 40
0.1556207549116685
 40
0.2578015566582992
 40
0.3738112340663592
 40
0.5064024926743697
 40
0.6555644581431075
 40
0.8200792824038566
 40
1.0
 40
1.0
 40
1.0
 40
1.0
 10
-0.724468456570618
 20
5.134404131277138
 30
0.0
 10
-0.7243503414015222
 20
5.134890295621342
 30
0.0
 10
-0.7240871332046322
 20
5.135973665703349
 30
0.0
 10
-0.7238411865516394
 20
5.137805212575577
 30
0.0
 10
-0.7235850241336965
 20
5.139966211156949
 30
0.0
 10
-0.7234072851572836
 20
5.142472188039251
 30
0.0
 10
-0.7232340087630162
 20
5.145314746015796
 30
0.0
 10
-0.7231303444796943
 20
5.148508693160816
 30
0.0
 10
-0.7230824297976414
 20
5.152042431775429
 30
0.0
 10
-0.723068151043528
 20
5.154508461766596
 30
0.0
 10
-0.7230606923368202
 20
5.15579662698681
 30
0.0
  0
SPLINE
  5
176
330
1F
100
AcDbEntity
  8
0
  6
Continuous
 62
     7
370
    25
100
AcDbSpline
210
0.0
220
0.0
230
1.0
 70
     8
 71
     3
 72
    19
 73
    15
 74
     0
 42
0.00000001
 43
0.00000001
 40
0.0
 40
0.0
 40
0.0
 40
0.0
 40
0.0828906475568675
 40
0.1653025405594689
 40
0.2477618761145894
 40
0.3315277110598049
 40
0.4152798127751564
 40
0.4963662304840599
 40
0.5771513480211448
 40
0.6577825401388889
 40
0.73932164199436
 40
0.823793081666312
 40
0.9094759533791126
 40
1.0
 40
1.0
 40
1.0
 40
1.0
 10
-0.7541971248019929
 20
5.111162219809342
 30
0.0
 10
-0.7530729617944094
 20
5.111204497379487
 30
0.0
 10
-0.7508311286487693
 20
5.111288808335659
 30
0.0
 10
-0.7475001668106261
 20
5.111810911919497
 30
0.0
 10
-0.7442560680448661
 20
5.112751879072277
 30
0.0
 10
-0.7410828129304055
 20
5.11396604278955
 30
0.0
 10
-0.7381083647249091
 20
5.115570278659438
 30
0.0
 10
-0.7353310638583163
 20
5.117423461315827
 30
0.0
 10
-0.7328521688099521
 20
5.11959711785196
 30
0.0
 10
-0.73059004291105
 20
5.122002643227185
 30
0.0
 10
-0.7286201635467754
 20
5.124716808580229
 30
0.0
 10
-0.7269126382868635
 20
5.127680514802623
 30
0.0
 10
-0.725513979639403
 20
5.130938363105089
 30
0.0
 10
-0.7248232896850937
 20
5.133227907288156
 30
0.0
 10
-0.724468456570618
 20
5.134404131277138
 30
0.0
  0
SPLINE
  5
177
330
1F
100
AcDbEntity
  8
0
  6
Continuous
 62
     7
370
    25
100
AcDbSpline
210
0.0
220
0.0
230
1.0
 70
     8
 71
     3
 72
    19
 73
    15
 74
     0
 42
0.00000001
 43
0.00000001
 40
0.0
 40
0.0
 40
0.0
 40
0.0
 40
0.0863150037405904
 40
0.1677664659179393
 40
0.244432684384861
 40
0.3181346623514593
 40
0.3918841069799568
 40
0.4700680503917517
 40
0.5539041787139124
 40
0.6443394983098168
 40
0.7368746633345125
 40
0.8261683643076452
 40
0.9136785948895798
 40
1.0
 40
1.0
 40
1.0
 40
1.0
 10
-0.7861064474347409
 20
5.137468088727171
 30
0.0
 10
-0.7859026104739038
 20
5.136174909067662
 30
0.0
 10
-0.7855064220354966
 20
5.133661415794528
 30
0.0
 10
-0.7844967221230472
 20
5.13008234958015
 30
0.0
 10
-0.7830865842883569
 20
5.126856701616486
 30
0.0
 10
-0.7814155983542563
 20
5.123883816139635
 30
0.0
 10
-0.7792135270412482
 20
5.121246439759926
 30
0.0
 10
-0.7765755925815342
 20
5.118816847130324
 30
0.0
 10
-0.773379617442518
 20
5.11669197293182
 30
0.0
 10
-0.7698260502900258
 20
5.114749027584534
 30
0.0
 10
-0.7659959228288084
 20
5.113187410168523
 30
0.0
 10
-0.762082093444903
 20
5.11200656905276
 30
0.0
 10
-0.758143393478165
 20
5.111286927329392
 30
0.0
 10
-0.7555065365852233
 20
5.111203599023381
 30
0.0
 10
-0.7541971248019929
 20
5.111162219809342
 30
0.0
  0
SPLINE
  5
178
330
1F
100
AcDbEntity
  8
0
  6
Continuous
 62
     7
370
    25
100
AcDbSpline
210
0.0
220
0.0
230
1.0
 70
     8
 71
     3
 72
    15
 73
    11
 74
     0
 42
0.00000001
 43
0.00000001
 40
0.0
 40
0.0
 40
0.0
 40
0.0
 40
0.1910785917157229
 40
0.3626045563099827
 40
0.516098750278525
 40
0.6500380260398251
 40
0.7659767209868016
 40
0.8623740257993706
 40
0.940842058221193
 40
1.0
 40
1.0
 40
1.0
 40
1.0
 10
-0.7866585118401516
 20
5.15579662698681
 30
0.0
 10
-0.7866603521540391
 20
5.154628094083474
 30
0.0
 10
-0.7866638444667814
 20
5.152410601526392
 30
0.0
 10
-0.7866405171490105
 20
5.149254369222072
 30
0.0
 10
-0.786575187683922
 20
5.1464483668972
 30
0.0
 10
-0.7865340002997377
 20
5.143981778410262
 30
0.0
 10
-0.7864423729952051
 20
5.141865922211098
 30
0.0
 10
-0.7863676467392999
 20
5.140089335176295
 30
0.0
 10
-0.7862715618295051
 20
5.138660429567854
 30
0.0
 10
-0.7861560847625868
 20
5.137826534841439
 30
0.0
 10
-0.7861064474347408
 20
5.137468088727169
 30
0.0
  0
SPLINE
  5
187
330
1F
100
AcDbEntity
  8
0
  6
Continuous
 62
     7
370
    25
100
AcDbSpline
210
0.0
220
0.0
230
1.0
 70
     8
 71
     3
 72
    23
 73
    19
 74
     0
 42
0.00000001
 43
0.00000001
 40
0.0
 40
0.0
 40
0.0
 40
0.0
 40
0.0716681496796055
 40
0.1389132862742067
 40
0.2011845700265643
 40
0.2591244282905348
 40
0.3122550414262307
 40
0.3606815096231126
 40
0.4050861433286335
 40
0.4451016585907091
 40
0.5187777804882556
 40
0.5894615790332018
 40
0.6584622419857152
 40
0.7272832183683582
 40
0.7963224869047085
 40
0.8631748932078789
 40
0.9309493809878548
 40
1.0
 40
1.0
 40
1.0
 40
1.0
 10
7.074042302906466
 20
5.421361019133085
 30
0.0
 10
7.075220257194728
 20
5.421360498004968
 30
0.0
 10
7.077503468104941
 20
5.421359487910253
 30
0.0
 10
7.080806643884918
 20
5.421516723195434
 30
0.0
 10
7.083882238833402
 20
5.421695593992399
 30
0.0
 10
7.086718488918536
 20
5.421969190273375
 30
0.0
 10
7.089316661175469
 20
5.422321791522423
 30
0.0
 10
7.091675456971593
 20
5.42276285389402
 30
0.0
 10
7.093798726731304
 20
5.423276714628147
 30
0.0
 10
7.096275047141651
 20
5.424072054226969
 30
0.0
 10
7.099040264911607
 20
5.425332133686227
 30
0.0
 10
7.102045440497318
 20
5.427165421036407
 30
0.0
 10
7.104604587652849
 20
5.429471291869774
 30
0.0
 10
7.106766708216036
 20
5.432108042107347
 30
0.0
 10
7.108504087407981
 20
5.435007107022219
 30
0.0
 10
7.109728971436899
 20
5.438133735731514
 30
0.0
 10
7.110506232944459
 20
5.441408995495595
 30
0.0
 10
7.110597907962154
 20
5.443660102103655
 30
0.0
 10
7.110644172985205
 20
5.444796153142776
 30
0.0
  0
SPLINE
  5
188
330
1F
100
AcDbEntity
  8
0
  6
Continuous
 62
     7
370
    25
100
AcDbSpline
210
0.0
220
0.0
230
1.0
 70
     8
 71
     3
 72
    23
 73
    19
 74
     0
 42
0.00000001
 43
0.00000001
 40
0.0
 40
0.0
 40
0.0
 40
0.0
 40
0.0688142958243116
 40
0.1363648245522193
 40
0.2040193535112401
 40
0.2730637386246036
 40
0.3429133195614932
 40
0.4109654441389583
 40
0.4791687665134393
 40
0.5493080065097752
 40
0.5876515764176531
 40
0.6306466687627863
 40
0.6788787856966527
 40
0.7319342992295713
 40
0.7911114229480405
 40
0.8552831895130746
 40
0.9250859386773841
 40
1.0
 40
1.0
 40
1.0
 40
1.0
 10
7.110644172985205
 20
5.444796153142776
 30
0.0
 10
7.110596845383296
 20
5.44590428596678
 30
0.0
 10
7.110503059345764
 20
5.448100200875384
 30
0.0
 10
7.109737359797471
 20
5.451315000493008
 30
0.0
 10
7.108442502263752
 20
5.454349132387921
 30
0.0
 10
7.106697532266712
 20
5.457190253844285
 30
0.0
 10
7.104571581283936
 20
5.459769219822804
 30
0.0
 10
7.102078754012497
 20
5.461975800651842
 30
0.0
 10
7.099287210896348
 20
5.463796645717908
 30
0.0
 10
7.096678108599033
 20
5.464960204005778
 30
0.0
 10
7.094346052989093
 20
5.465673584054828
 30
0.0
 10
7.092321263223706
 20
5.4661755983781
 30
0.0
 10
7.090033409770187
 20
5.46657892392652
 30
0.0
 10
7.087471383840583
 20
5.466902075929483
 30
0.0
 10
7.084646122786058
 20
5.467179829640064
 30
0.0
 10
7.081543341247024
 20
5.467366907539992
 30
0.0
 10
7.078183625488704
 20
5.467477689591409
 30
0.0
 10
7.075855006150458
 20
5.467483165531588
 30
0.0
 10
7.074649573752417
 20
5.467486000205162
 30
0.0
  0
SPLINE
  5
18B
330
1F
100
AcDbEntity
  8
0
  6
Continuous
 62
     7
370
    25
100
AcDbSpline
210
0.0
220
0.0
230
1.0
 70
     8
 71
     3
 72
    19
 73
    15
 74
     0
 42
0.00000001
 43
0.00000001
 40
0.0
 40
0.0
 40
0.0
 40
0.0
 40
0.112813400744458
 40
0.2253938839207295
 40
0.3395948145627015
 40
0.4596754102248611
 40
0.5217351900879307
 40
0.5839258387389142
 40
0.6481741447653673
 40
0.7138810381130625
 40
0.7810044549073819
 40
0.851450927556555
 40
0.9240506926641725
 40
1.0
 40
1.0
 40
1.0
 40
1.0
 10
-0.6027670923169681
 20
4.597304550192779
 30
0.0
 10
-0.6012411997320962
 20
4.597367454949139
 30
0.0
 10
-0.5981925649610447
 20
4.597493134587015
 30
0.0
 10
-0.5937384785380394
 20
4.598705683302535
 30
0.0
 10
-0.5894144521568481
 20
4.600535192730241
 30
0.0
 10
-0.5860257930907496
 20
4.602698480345169
 30
0.0
 10
-0.5834477401969929
 20
4.60475865079601
 30
0.0
 10
-0.5816006146022717
 20
4.606515133013051
 30
0.0
 10
-0.5799052583647422
 20
4.608481899442439
 30
0.0
 10
-0.5782973026618048
 20
4.610603918966648
 30
0.0
 10
-0.5768225359029507
 20
4.612921733304198
 30
0.0
 10
-0.575481467489754
 20
4.615424196897349
 30
0.0
 10
-0.5742577136493928
 20
4.618118259019875
 30
0.0
 10
-0.5735605071159181
 20
4.619998957410262
 30
0.0
 10
-0.5732040434072164
 20
4.620960509964634
 30
0.0
  0
SPLINE
  5
18C
330
1F
100
AcDbEntity
  8
0
  6
Continuous
 62
     7
370
    25
100
AcDbSpline
210
0.0
220
0.0
230
1.0
 70
     8
 71
     3
 72
    15
 73
    11
 74
     0
 42
0.00000001
 43
0.00000001
 40
0.0
 40
0.0
 40
0.0
 40
0.0
 40
0.1105883385953355
 40
0.2245417540535935
 40
0.3425034940500984
 40
0.4643240984173629
 40
0.5907560327017647
 40
0.7222274753555199
 40
0.8588428362087199
 40
1.0
 40
1.0
 40
1.0
 40
1.0
 10
-0.5732040434072164
 20
4.620960509964634
 30
0.0
 10
-0.572788619478328
 20
4.622190027266459
 30
0.0
 10
-0.5719451307447667
 20
4.62468647467762
 30
0.0
 10
-0.5708580530175723
 20
4.628559059405196
 30
0.0
 10
-0.5700019349386864
 20
4.632622160347636
 30
0.0
 10
-0.569231723688709
 20
4.636851495651511
 30
0.0
 10
-0.5687060128266084
 20
4.641278255533832
 30
0.0
 10
-0.5682828705713627
 20
4.645888743089571
 30
0.0
 10
-0.5680336309280847
 20
4.650686434516163
 30
0.0
 10
-0.5680027352166149
 20
4.653946079838811
 30
0.0
 10
-0.5679870347760838
 20
4.655602551404166
 30
0.0
  0
SPLINE
  5
18D
330
1F
100
AcDbEntity
  8
0
  6
Continuous
 62
     7
370
    25
100
AcDbSpline
210
0.0
220
0.0
230
1.0
 70
     8
 71
     3
 72
    27
 73
    23
 74
     0
 42
0.00000001
 43
0.00000001
 40
0.0
 40
0.0
 40
0.0
 40
0.0
 40
0.0656811979906408
 40
0.1284864641740624
 40
0.1881751303280091
 40
0.2451061306699852
 40
0.2994484245294726
 40
0.3508229360093789
 40
0.3999416805337744
 40
0.4466717436323698
 40
0.4912545333734977
 40
0.5333763442704389
 40
0.573852754968223
 40
0.6125263117194497
 40
0.6495971364453305
 40
0.6855320415538508
 40
0.7201057860682019
 40
0.7538376629736511
 40
0.8189254160467131
 40
0.8804934616501641
 40
0.940311333846057
 40
1.0
 40
1.0
 40
1.0
 40
1.0
 10
-0.5679870347760838
 20
4.655602551404166
 30
0.0
 10
-0.5680086957695064
 20
4.657258755046609
 30
0.0
 10
-0.568051069303189
 20
4.660498643423796
 30
0.0
 10
-0.5682130373229187
 20
4.665243453686084
 30
0.0
 10
-0.5686312882871707
 20
4.669750058446289
 30
0.0
 10
-0.5690958205259307
 20
4.674037872330709
 30
0.0
 10
-0.5697807504901862
 20
4.678083159838761
 30
0.0
 10
-0.5705192468240562
 20
4.681919786029954
 30
0.0
 10
-0.5715114205362697
 20
4.68550022007796
 30
0.0
 10
-0.5725712541966629
 20
4.688880518570542
 30
0.0
 10
-0.5737842618947508
 20
4.692022276621756
 30
0.0
 10
-0.5751195270230014
 20
4.694940142226558
 30
0.0
 10
-0.576545580517845
 20
4.697648202256351
 30
0.0
 10
-0.5780944876225406
 20
4.70013902672787
 30
0.0
 10
-0.5797478609715666
 20
4.702423772511772
 30
0.0
 10
-0.5815493392864317
 20
4.7044566305652
 30
0.0
 10
-0.5834274642002445
 20
4.706300605687582
 30
0.0
 10
-0.5860580620673177
 20
4.708405431243555
 30
0.0
 10
-0.5895019317444983
 20
4.710551560986984
 30
0.0
 10
-0.5937871934508935
 20
4.712526590902744
 30
0.0
 10
-0.5982466676340092
 20
4.713660775651601
 30
0.0
 10
-0.6012613705510181
 20
4.713820684590108
 30
0.0
 10
-0.6027670923169681
 20
4.713900552615553
 30
0.0
  0
SPLINE
  5
18E
330
1F
100
AcDbEntity
  8
0
  6
Continuous
 62
     7
370
    25
100
AcDbSpline
210
0.0
220
0.0
230
1.0
 70
     8
 71
     3
 72
    27
 73
    23
 74
     0
 42
0.00000001
 43
0.00000001
 40
0.0
 40
0.0
 40
0.0
 40
0.0
 40
0.0603866193110621
 40
0.120883248585997
 40
0.1827546186251398
 40
0.2478110297583508
 40
0.2812991000432487
 40
0.3150876241506567
 40
0.3497023955502748
 40
0.3848565811185547
 40
0.4209661972261057
 40
0.4585111882611399
 40
0.4971747221273161
 40
0.53760204786627
 40
0.580503018420014
 40
0.6274675400267078
 40
0.6783882095592461
 40
0.7339832205925609
 40
0.7937467045508391
 40
0.8577136721607316
 40
0.9266978643613865
 40
1.0
 40
1.0
 40
1.0
 40
1.0
 10
-0.6027670923169681
 20
4.713900552615554
 30
0.0
 10
-0.6042911313755039
 20
4.713820574401096
 30
0.0
 10
-0.6073419859268863
 20
4.713660472271018
 30
0.0
 10
-0.6118478109161286
 20
4.712530816617805
 30
0.0
 10
-0.6161668798784234
 20
4.710561802210812
 30
0.0
 10
-0.6196016426610559
 20
4.708398322979908
 30
0.0
 10
-0.6222340752007248
 20
4.706337759537325
 30
0.0
 10
-0.6240877245462664
 20
4.704550891267307
 30
0.0
 10
-0.6258257628225536
 20
4.702596314323798
 30
0.0
 10
-0.6274268533791542
 20
4.700454506652524
 30
0.0
 10
-0.6289264314575895
 20
4.698152720537599
 30
0.0
 10
-0.6303036366771055
 20
4.695672847910617
 30
0.0
 10
-0.6315444764281305
 20
4.693002321760012
 30
0.0
 10
-0.6326895369076649
 20
4.690143406979733
 30
0.0
 10
-0.6336963395858628
 20
4.68701029893109
 30
0.0
 10
-0.6345268105791692
 20
4.683554826742371
 30
0.0
 10
-0.6352940173949134
 20
4.679757114467208
 30
0.0
 10
-0.6358371382177699
 20
4.675594929115033
 30
0.0
 10
-0.6363199632477585
 20
4.671095631738292
 30
0.0
 10
-0.6366302525372176
 20
4.666242194012729
 30
0.0
 10
-0.6368716406265573
 20
4.661042808957518
 30
0.0
 10
-0.6368802415857208
 20
4.657452290906232
 30
0.0
 10
-0.6368846725713594
 20
4.655602551404166
 30
0.0
  0
SPLINE
  5
18F
330
1F
100
AcDbEntity
  8
0
  6
Continuous
 62
     7
370
    25
100
AcDbSpline
210
0.0
220
0.0
230
1.0
 70
     8
 71
     3
 72
    27
 73
    23
 74
     0
 42
0.00000001
 43
0.00000001
 40
0.0
 40
0.0
 40
0.0
 40
0.0
 40
0.0729510658758663
 40
0.1415836941865458
 40
0.2059264601708701
 40
0.2653013571846052
 40
0.3205972327139259
 40
0.3718165030988145
 40
0.41878976970945
 40
0.4616987286157644
 40
0.5021335821035686
 40
0.5408043152926476
 40
0.5781805253279634
 40
0.614296865207516
 40
0.6496782432647883
 40
0.6842994600896383
 40
0.7183589527723614
 40
0.7520808646475973
 40
0.8176524386023853
 40
0.8797220764054361
 40
0.9399655597309875
 40
1.0
 40
1.0
 40
1.0
 40
1.0
 10
-0.6368846725713594
 20
4.655602551404166
 30
0.0
 10
-0.636879969930906
 20
4.653762051451258
 30
0.0
 10
-0.6368708430291972
 20
4.650190002443417
 30
0.0
 10
-0.6366324099356055
 20
4.644999322877434
 30
0.0
 10
-0.6363075976521619
 20
4.640157971349202
 30
0.0
 10
-0.6358886489440851
 20
4.635659800622227
 30
0.0
 10
-0.6352664856162888
 20
4.631520036350186
 30
0.0
 10
-0.634569367985672
 20
4.627710206308256
 30
0.0
 10
-0.6337210180006626
 20
4.624250472563613
 30
0.0
 10
-0.6327172771397576
 20
4.621117094189423
 30
0.0
 10
-0.6315740056085187
 20
4.61825689464236
 30
0.0
 10
-0.6303257432593037
 20
4.615595429479868
 30
0.0
 10
-0.6289847699165902
 20
4.613101258754048
 30
0.0
 10
-0.627484015957812
 20
4.610796785983415
 30
0.0
 10
-0.6258495646495834
 20
4.608674496059285
 30
0.0
 10
-0.6241183339748786
 20
4.606696825495415
 30
0.0
 10
-0.6222257125480238
 20
4.604933164812913
 30
0.0
 10
-0.6196074549675825
 20
4.602817934299941
 30
0.0
 10
-0.616150900856281
 20
4.60063214163342
 30
0.0
 10
-0.6117957648235607
 20
4.598728752269972
 30
0.0
 10
-0.6073206289581471
 20
4.59753259256791
 30
0.0
 10
-0.6042831781673229
 20
4.597380476191725
 30
0.0
 10
-0.6027670923169681
 20
4.597304550192779
 30
0.0
  0
SPLINE
  5
194
330
1F
100
AcDbEntity
  8
0
  6
Continuous
 62
     7
370
    25
100
AcDbSpline
210
0.0
220
0.0
230
1.0
 70
     8
 71
     3
 72
    23
 73
    19
 74
     0
 42
0.00000001
 43
0.00000001
 40
0.0
 40
0.0
 40
0.0
 40
0.0
 40
0.0725383714064937
 40
0.1400338305012505
 40
0.2024956806336228
 40
0.260575055669414
 40
0.3132283378464664
 40
0.3615831937532656
 40
0.4048783612951266
 40
0.4441274373055379
 40
0.5163996933371924
 40
0.5865066709977652
 40
0.6550853737960528
 40
0.7243837831470276
 40
0.7939735287256574
 40
0.8616376821817745
 40
0.930110942306403
 40
1.0
 40
1.0
 40
1.0
 40
1.0
 10
-0.3950792290822271
 20
5.177989616084326
 30
0.0
 10
-0.3939012792470752
 20
5.177989007281525
 30
0.0
 10
-0.3916272713757065
 20
5.17798783200027
 30
0.0
 10
-0.3883423806972325
 20
5.178144730562444
 30
0.0
 10
-0.3852947709608921
 20
5.178325853895691
 30
0.0
 10
-0.3824938034265091
 20
5.178591047732773
 30
0.0
 10
-0.3799382154547252
 20
5.178965900389635
 30
0.0
 10
-0.3776237458139986
 20
5.1793443152683
 30
0.0
 10
-0.3755683409756164
 20
5.179891770488713
 30
0.0
 10
-0.3731628605911345
 20
5.180628899194981
 30
0.0
 10
-0.3704824138400794
 20
5.181886088787931
 30
0.0
 10
-0.3675663686226313
 20
5.183710887608939
 30
0.0
 10
-0.3650950856954163
 20
5.186036899742801
 30
0.0
 10
-0.3629565700748816
 20
5.188652168692664
 30
0.0
 10
-0.3612594882662833
 20
5.191561583236994
 30
0.0
 10
-0.36001712636406
 20
5.194674533501801
 30
0.0
 10
-0.3592871595387235
 20
5.197959094506592
 30
0.0
 10
-0.3591892778987362
 20
5.200206659028447
 30
0.0
 10
-0.3591398362899799
 20
5.201341940433206
 30
0.0
  0
SPLINE
  5
195
330
1F
100
AcDbEntity
  8
0
  6
Continuous
 62
     7
370
    25
100
AcDbSpline
210
0.0
220
0.0
230
1.0
 70
     8
 71
     3
 72
    23
 73
    19
 74
     0
 42
0.00000001
 43
0.00000001
 40
0.0
 40
0.0
 40
0.0
 40
0.0
 40
0.0700437554181585
 40
0.1392383167626294
 40
0.2081974550441257
 40
0.2791733744245599
 40
0.3499868116864754
 40
0.4183538456626445
 40
0.4876095837571464
 40
0.5574110731083819
 40
0.5953301567632333
 40
0.6379640515652176
 40
0.6859127777112913
 40
0.7381851646524763
 40
0.7961026471849404
 40
0.8585165439469253
 40
0.9266577264685191
 40
1.0
 40
1.0
 40
1.0
 40
1.0
 10
-0.3591398362899799
 20
5.201341940433206
 30
0.0
 10
-0.35918954678193
 20
5.202449755923318
 30
0.0
 10
-0.3592883650874772
 20
5.204651956008195
 30
0.0
 10
-0.360022847889079
 20
5.20787946626842
 30
0.0
 10
-0.3612570728443361
 20
5.210959612110418
 30
0.0
 10
-0.3629679623921648
 20
5.213832568226695
 30
0.0
 10
-0.3650443848315597
 20
5.216438426650526
 30
0.0
 10
-0.3674577447964414
 20
5.218702093070321
 30
0.0
 10
-0.3702023613843806
 20
5.22052184514635
 30
0.0
 10
-0.3727554413462997
 20
5.221696383793937
 30
0.0
 10
-0.375023204575727
 20
5.222413520622011
 30
0.0
 10
-0.3769929667758758
 20
5.222915285994347
 30
0.0
 10
-0.3792170090784879
 20
5.223315900413437
 30
0.0
 10
-0.3816960555159037
 20
5.223640290287301
 30
0.0
 10
-0.3844108914954474
 20
5.223917985611056
 30
0.0
 10
-0.3873848409007473
 20
5.224106409911607
 30
0.0
 10
-0.3906066378796617
 20
5.224216703464227
 30
0.0
 10
-0.392843274527888
 20
5.224222174143624
 30
0.0
 10
-0.3940027034916759
 20
5.224225010037486
 30
0.0
  0
SPLINE
  5
199
330
1F
100
AcDbEntity
  8
0
  6
Continuous
 62
     7
370
    25
100
AcDbSpline
210
0.0
220
0.0
230
1.0
 70
     8
 71
     3
 72
    23
 73
    19
 74
     0
 42
0.00000001
 43
0.00000001
 40
0.0
 40
0.0
 40
0.0
 40
0.0
 40
0.0725383714064924
 40
0.1400338305012505
 40
0.2024956806336216
 40
0.2605750556694142
 40
0.3132283378464666
 40
0.3615831937532645
 40
0.4048783612951255
 40
0.4441274373055368
 40
0.5163996933371913
 40
0.5865066709977653
 40
0.6550853737960519
 40
0.7243837831470277
 40
0.793973528725657
 40
0.8616376821817745
 40
0.9301109423064031
 40
1.0
 40
1.0
 40
1.0
 40
1.0
 10
-0.4990227597790577
 20
5.675753122275165
 30
0.0
 10
-0.4978448099439058
 20
5.675752513472365
 30
0.0
 10
-0.495570802072537
 20
5.675751338191108
 30
0.0
 10
-0.4922859113940633
 20
5.675908236753283
 30
0.0
 10
-0.4892383016577225
 20
5.676089360086527
 30
0.0
 10
-0.4864373341233398
 20
5.676354553923616
 30
0.0
 10
-0.4838817461515559
 20
5.676729406580472
 30
0.0
 10
-0.4815672765108293
 20
5.677107821459139
 30
0.0
 10
-0.4795118716724473
 20
5.677655276679554
 30
0.0
 10
-0.4771063912879652
 20
5.678392405385819
 30
0.0
 10
-0.4744259445369102
 20
5.679649594978772
 30
0.0
 10
-0.471509899319462
 20
5.681474393799776
 30
0.0
 10
-0.469038616392247
 20
5.68380040593364
 30
0.0
 10
-0.4669001007717121
 20
5.6864156748835
 30
0.0
 10
-0.4652030189631142
 20
5.689325089427835
 30
0.0
 10
-0.4639606570608905
 20
5.69243803969264
 30
0.0
 10
-0.4632306902355541
 20
5.69572260069743
 30
0.0
 10
-0.463132808595567
 20
5.697970165219288
 30
0.0
 10
-0.4630833669868106
 20
5.699105446624046
 30
0.0
  0
SPLINE
  5
19A
330
1F
100
AcDbEntity
  8
0
  6
Continuous
 62
     7
370
    25
100
AcDbSpline
210
0.0
220
0.0
230
1.0
 70
     8
 71
     3
 72
    23
 73
    19
 74
     0
 42
0.00000001
 43
0.00000001
 40
0.0
 40
0.0
 40
0.0
 40
0.0
 40
0.0700437554181585
 40
0.1392383167626293
 40
0.2081974550441263
 40
0.2791733744245598
 40
0.3499868116864753
 40
0.4183538456626456
 40
0.4876095837571475
 40
0.5574110731083817
 40
0.5953301567632344
 40
0.6379640515652173
 40
0.6859127777112911
 40
0.7381851646524775
 40
0.7961026471849416
 40
0.8585165439469268
 40
0.9266577264685191
 40
1.0
 40
1.0
 40
1.0
 40
1.0
 10
-0.4630833669868106
 20
5.699105446624046
 30
0.0
 10
-0.4631330774787608
 20
5.700213262114159
 30
0.0
 10
-0.463231895784308
 20
5.702415462199035
 30
0.0
 10
-0.4639663785859095
 20
5.705642972459259
 30
0.0
 10
-0.4652006035411668
 20
5.708723118301257
 30
0.0
 10
-0.4669114930889954
 20
5.711596074417532
 30
0.0
 10
-0.4689879155283901
 20
5.714201932841364
 30
0.0
 10
-0.4714012754932723
 20
5.716465599261161
 30
0.0
 10
-0.4741458920812111
 20
5.718285351337188
 30
0.0
 10
-0.4766989720431306
 20
5.719459889984777
 30
0.0
 10
-0.4789667352725575
 20
5.720177026812848
 30
0.0
 10
-0.4809364974727066
 20
5.720678792185185
 30
0.0
 10
-0.4831605397753186
 20
5.721079406604276
 30
0.0
 10
-0.4856395862127343
 20
5.721403796478141
 30
0.0
 10
-0.488354422192278
 20
5.721681491801895
 30
0.0
 10
-0.491328371597578
 20
5.721869916102447
 30
0.0
 10
-0.4945501685764922
 20
5.721980209655065
 30
0.0
 10
-0.4967868052247186
 20
5.721985680334464
 30
0.0
 10
-0.4979462341885065
 20
5.721988516228325
 30
0.0
  0
SPLINE
  5
19D
330
1F
100
AcDbEntity
  8
0
  6
Continuous
 62
     7
370
    25
100
AcDbSpline
210
0.0
220
0.0
230
1.0
 70
     8
 71
     3
 72
    15
 73
    11
 74
     0
 42
0.00000001
 43
0.00000001
 40
0.0
 40
0.0
 40
0.0
 40
0.0
 40
0.1769557521312514
 40
0.3390550796425803
 40
0.486318224942077
 40
0.6187809228353767
 40
0.735618827767379
 40
0.8387424767201077
 40
0.9264570678763185
 40
1.0
 40
1.0
 40
1.0
 40
1.0
 10
-0.508490664331854
 20
5.736121365006844
 30
0.0
 10
-0.506631967239269
 20
5.736119321847756
 30
0.0
 10
-0.5030706210656195
 20
5.736115407064206
 30
0.0
 10
-0.497963729108577
 20
5.735996716283671
 30
0.0
 10
-0.4933255506980909
 20
5.735838185098912
 30
0.0
 10
-0.4891660868820782
 20
5.735618425524382
 30
0.0
 10
-0.4854725397133154
 20
5.735358717246922
 30
0.0
 10
-0.4822616224083326
 20
5.734994463728126
 30
0.0
 10
-0.4795080965684176
 20
5.734614137131536
 30
0.0
 10
-0.4778582363539878
 20
5.734227467583528
 30
0.0
 10
-0.4771058028842465
 20
5.734051123486553
 30
0.0
  0
SPLINE
  5
19E
330
1F
100
AcDbEntity
  8
0
  6
Continuous
 62
     7
370
    25
100
AcDbSpline
210
0.0
220
0.0
230
1.0
 70
     8
 71
     3
 72
    23
 73
    19
 74
     0
 42
0.00000001
 43
0.00000001
 40
0.0
 40
0.0
 40
0.0
 40
0.0
 40
0.0624813386352049
 40
0.1234903826872889
 40
0.1834110942063159
 40
0.243153220999781
 40
0.3021267353720838
 40
0.3617096708329093
 40
0.4218422916948746
 40
0.4829319014466718
 40
0.5445522544313333
 40
0.6056807199653549
 40
0.6676797383436907
 40
0.7299843875380716
 40
0.7945509212861426
 40
0.8603456197120772
 40
0.9289073562657066
 40
1.0
 40
1.0
 40
1.0
 40
1.0
 10
-0.4771058028842465
 20
5.734051123486553
 30
0.0
 10
-0.4761533015541169
 20
5.733790416800265
 30
0.0
 10
-0.4742707433961588
 20
5.733275146654618
 30
0.0
 10
-0.4715581039039682
 20
5.732243110297309
 30
0.0
 10
-0.4689772438456863
 20
5.731019403006936
 30
0.0
 10
-0.4665193084738287
 20
5.729624759705721
 30
0.0
 10
-0.4642145020537151
 20
5.727999343792841
 30
0.0
 10
-0.4620284374487551
 20
5.726209043881846
 30
0.0
 10
-0.459980406728451
 20
5.72421252543411
 30
0.0
 10
-0.4580819267330117
 20
5.722032181345631
 30
0.0
 10
-0.4563384307651397
 20
5.719704614027457
 30
0.0
 10
-0.4548372621538331
 20
5.71719507741693
 30
0.0
 10
-0.4535802847115789
 20
5.714545813502761
 30
0.0
 10
-0.4525022031570847
 20
5.711758665032002
 30
0.0
 10
-0.4517262797527856
 20
5.708810227099272
 30
0.0
 10
-0.4511417561423345
 20
5.705720986454619
 30
0.0
 10
-0.4507707471810883
 20
5.70249127424196
 30
0.0
 10
-0.4507352132537208
 20
5.700284192843502
 30
0.0
 10
-0.4507171243056074
 20
5.699160653064588
 30
0.0
  0
SPLINE
  5
19F
330
1F
100
AcDbEntity
  8
0
  6
Continuous
 62
     7
370
    25
100
AcDbSpline
210
0.0
220
0.0
230
1.0
 70
     8
 71
     3
 72
    23
 73
    19
 74
     0
 42
0.00000001
 43
0.00000001
 40
0.0
 40
0.0
 40
0.0
 40
0.0
 40
0.0701188944197157
 40
0.137192352785974
 40
0.2020161807247565
 40
0.2646314069747527
 40
0.3261165471458312
 40
0.3860103046676395
 40
0.4458118469576836
 40
0.5052976967309701
 40
0.5646332777264875
 40
0.6242826253338459
 40
0.6839020319037489
 40
0.7439527709382754
 40
0.8053877310076355
 40
0.8683880308962765
 40
0.9330840282524785
 40
1.0
 40
1.0
 40
1.0
 40
1.0
 10
-0.4507171243056073
 20
5.699160653064586
 30
0.0
 10
-0.4507337158303695
 20
5.698027669726497
 30
0.0
 10
-0.4507661782691639
 20
5.695810911303447
 30
0.0
 10
-0.4511557958017955
 20
5.692567888146411
 30
0.0
 10
-0.4516806064954454
 20
5.689468738928633
 30
0.0
 10
-0.4524875770595086
 20
5.686520335366843
 30
0.0
 10
-0.4535444933232248
 20
5.683740186923112
 30
0.0
 10
-0.4547843379234496
 20
5.681085807709699
 30
0.0
 10
-0.4562797525049365
 20
5.678602356060148
 30
0.0
 10
-0.4579980528872392
 20
5.676280815999451
 30
0.0
 10
-0.4599095329814485
 20
5.674119008428026
 30
0.0
 10
-0.4620061053494498
 20
5.672132599196031
 30
0.0
 10
-0.4642793058415874
 20
5.670333215793573
 30
0.0
 10
-0.4667219100965614
 20
5.668716824310088
 30
0.0
 10
-0.4693577309168981
 20
5.667320907794433
 30
0.0
 10
-0.4721467920811087
 20
5.66607062019894
 30
0.0
 10
-0.4751133360347273
 20
5.665020578441519
 30
0.0
 10
-0.4771661909156475
 20
5.664468213818433
 30
0.0
 10
-0.4782099316950683
 20
5.664187372981808
 30
0.0
  0
SPLINE
  5
1A0
330
1F
100
AcDbEntity
  8
0
  6
Continuous
 62
     7
370
    25
100
AcDbSpline
210
0.0
220
0.0
230
1.0
 70
     8
 71
     3
 72
    15
 73
    11
 74
     0
 42
0.00000001
 43
0.00000001
 40
0.0
 40
0.0
 40
0.0
 40
0.0
 40
0.0751731173762204
 40
0.1647462575117997
 40
0.2680168809877783
 40
0.3859118756529539
 40
0.5177894792733948
 40
0.6636909770022801
 40
0.824413220536641
 40
0.9999999999999999
 40
0.9999999999999999
 40
0.9999999999999999
 40
0.9999999999999999
 10
-0.4782099316950683
 20
5.664187372981808
 30
0.0
 10
-0.4790732125608718
 20
5.664003791049606
 30
0.0
 10
-0.4809651427719195
 20
5.663601460571206
 30
0.0
 10
-0.4840809979757681
 20
5.663152308726923
 30
0.0
 10
-0.487708769075367
 20
5.662768938621196
 30
0.0
 10
-0.4918435045051138
 20
5.662481492259735
 30
0.0
 10
-0.4964814928878528
 20
5.662235414761231
 30
0.0
 10
-0.5016252431764257
 20
5.662039820513569
 30
0.0
 10
-0.5072848525141935
 20
5.661932345953126
 30
0.0
 10
-0.5112325392889163
 20
5.661926802929564
 30
0.0
 10
-0.5132936246589285
 20
5.661923908919623
 30
0.0
  0
SPLINE
  5
1B0
330
1F
100
AcDbEntity
  8
0
  6
Continuous
 62
     7
370
    25
100
AcDbSpline
210
0.0
220
0.0
230
1.0
 70
     8
 71
     3
 72
    23
 73
    19
 74
     0
 42
0.00000001
 43
0.00000001
 40
0.0
 40
0.0
 40
0.0
 40
0.0
 40
0.0645039992970598
 40
0.1268993215900376
 40
0.1877465401000146
 40
0.2481497329298243
 40
0.3085860647627465
 40
0.3695830050869951
 40
0.4318269653810484
 40
0.4961797225241547
 40
0.5606678546118841
 40
0.6235044551176621
 40
0.6852604113304265
 40
0.7465368217511682
 40
0.8083273517367058
 40
0.8704861878877681
 40
0.9343168833592466
 40
1.0
 40
1.0
 40
1.0
 40
1.0
 10
-0.8853022242450379
 20
5.666671662806158
 30
0.0
 10
-0.8852520328293866
 20
5.664681024191865
 30
0.0
 10
-0.8851532907875723
 20
5.660764822213112
 30
0.0
 10
-0.8842888195231898
 20
5.655025918910559
 30
0.0
 10
-0.8829572457258342
 20
5.649510632046619
 30
0.0
 10
-0.8809943572834439
 20
5.644249139554751
 30
0.0
 10
-0.8785396086748757
 20
5.639196215033821
 30
0.0
 10
-0.8755070539396519
 20
5.634396683353212
 30
0.0
 10
-0.871914176555045
 20
5.629849247354644
 30
0.0
 10
-0.8678329353502487
 20
5.62558565408812
 30
0.0
 10
-0.8633714114683765
 20
5.621694086992074
 30
0.0
 10
-0.8586339024160533
 20
5.618278204761954
 30
0.0
 10
-0.8536711619637978
 20
5.615388037446068
 30
0.0
 10
-0.8484702484711806
 20
5.613033507037272
 30
0.0
 10
-0.8430589280369548
 20
5.611167769328653
 30
0.0
 10
-0.8374023315394176
 20
5.609889083063785
 30
0.0
 10
-0.8315381402172285
 20
5.609047529702849
 30
0.0
 10
-0.827540870329035
 20
5.608966712540597
 30
0.0
 10
-0.8255136491390416
 20
5.608925726000181
 30
0.0
  0
SPLINE
  5
1B1
330
1F
100
AcDbEntity
  8
0
  6
Continuous
 62
     7
370
    25
100
AcDbSpline
210
0.0
220
0.0
230
1.0
 70
     8
 71
     3
 72
    31
 73
    27
 74
     0
 42
0.00000001
 43
0.00000001
 40
0.0
 40
0.0
 40
0.0
 40
0.0
 40
0.043633218265758
 40
0.0865377766972014
 40
0.1291773360898924
 40
0.1714363236638278
 40
0.2134158945709088
 40
0.2552659545538496
 40
0.2973694811566258
 40
0.3399407478985551
 40
0.3823474587518146
 40
0.4239529468152694
 40
0.464871163261019
 40
0.5055722941182766
 40
0.546002577108314
 40
0.5865679748069126
 40
0.6270647991481688
 40
0.668270684033175
 40
0.7095492248503361
 40
0.750428153513192
 40
0.7910961944485966
 40
0.8320271447794376
 40
0.8731359553359699
 40
0.9146107643654513
 40
0.9569559864804388
 40
1.0
 40
1.0
 40
1.0
 40
1.0
 10
-0.8255136491390416
 20
5.608925726000181
 30
0.0
 10
-0.8241510703354115
 20
5.608944446644519
 30
0.0
 10
-0.8214486673285397
 20
5.608981575304831
 30
0.0
 10
-0.8174291585744934
 20
5.609355538959828
 30
0.0
 10
-0.8134820636244554
 20
5.609955218858179
 30
0.0
 10
-0.809612918747279
 20
5.610818630496321
 30
0.0
 10
-0.8058261151493868
 20
5.611899229174593
 30
0.0
 10
-0.8021058473102152
 20
5.613182997991876
 30
0.0
 10
-0.7984917413921241
 20
5.614784620184133
 30
0.0
 10
-0.7949382044708171
 20
5.616554224577003
 30
0.0
 10
-0.7915367776325829
 20
5.618571553613751
 30
0.0
 10
-0.7882897094321559
 20
5.620738409899552
 30
0.0
 10
-0.7852788440835384
 20
5.623138749297573
 30
0.0
 10
-0.7824288806417702
 20
5.625670946641829
 30
0.0
 10
-0.7797663732011163
 20
5.628386058762187
 30
0.0
 10
-0.7773093265780792
 20
5.631280555685298
 30
0.0
 10
-0.7750660142887028
 20
5.634372707544867
 30
0.0
 10
-0.7730004376505533
 20
5.637612290448031
 30
0.0
 10
-0.7711577895105606
 20
5.640997969687604
 30
0.0
 10
-0.7695523131700449
 20
5.644483390079274
 30
0.0
 10
-0.7681902613656068
 20
5.648059969188197
 30
0.0
 10
-0.7670907139313838
 20
5.651732865703212
 30
0.0
 10
-0.7662290815816536
 20
5.655495103843796
 30
0.0
 10
-0.7656353839474807
 20
5.659351721094242
 30
0.0
 10
-0.7652200910873633
 20
5.663295002294642
 30
0.0
 10
-0.7651887888359191
 20
5.665962083238016
 30
0.0
 10
-0.7651730096276343
 20
5.667306536872379
 30
0.0
  0
SPLINE
  5
1B2
330
1F
100
AcDbEntity
  8
0
  6
Continuous
 62
     7
370
    25
100
AcDbSpline
210
0.0
220
0.0
230
1.0
 70
     8
 71
     3
 72
    31
 73
    27
 74
     0
 42
0.00000001
 43
0.00000001
 40
0.0
 40
0.0
 40
0.0
 40
0.0
 40
0.0429150821010486
 40
0.0851299705846971
 40
0.1264733185549961
 40
0.1674530378853855
 40
0.2079763328949852
 40
0.2482493780637579
 40
0.2887499869834412
 40
0.3296698569108725
 40
0.3705372867119749
 40
0.4111285639171194
 40
0.4518189126736408
 40
0.4924058769342609
 40
0.5334858617420232
 40
0.5752630624415533
 40
0.6174406128021894
 40
0.6606716882923652
 40
0.7039402042434867
 40
0.7468675221598706
 40
0.7890793003947217
 40
0.8311040424574025
 40
0.8732379898547749
 40
0.9151657696593336
 40
0.957380658142982
 40
0.9999999999999999
 40
0.9999999999999999
 40
0.9999999999999999
 40
0.9999999999999999
 10
-0.7651730096276345
 20
5.667306536872381
 30
0.0
 10
-0.7651888014771686
 20
5.668641792945941
 30
0.0
 10
-0.765220127519681
 20
5.671290519330704
 30
0.0
 10
-0.7656351855757577
 20
5.675206299581149
 30
0.0
 10
-0.766229708818665
 20
5.679035166174607
 30
0.0
 10
-0.7670865083477801
 20
5.682762087552405
 30
0.0
 10
-0.7681908451090248
 20
5.686388013736136
 30
0.0
 10
-0.7695525510298453
 20
5.689909539236181
 30
0.0
 10
-0.771158271481571
 20
5.693339783137096
 30
0.0
 10
-0.7730011149611645
 20
5.696670267270949
 30
0.0
 10
-0.7750726040744083
 20
5.699866123097224
 30
0.0
 10
-0.7773361569606647
 20
5.702921336188781
 30
0.0
 10
-0.7798308557063781
 20
5.705778530728564
 30
0.0
 10
-0.7824854236147957
 20
5.708508243092478
 30
0.0
 10
-0.785366167131689
 20
5.711052254494359
 30
0.0
 10
-0.7884600369773239
 20
5.713411408850956
 30
0.0
 10
-0.7917294731096659
 20
5.715642640122174
 30
0.0
 10
-0.7951911752920664
 20
5.717655457517473
 30
0.0
 10
-0.7987637718956836
 20
5.71951428557705
 30
0.0
 10
-0.802429675752871
 20
5.721106844755969
 30
0.0
 10
-0.8061473568401262
 20
5.722460077802718
 30
0.0
 10
-0.8099073612626513
 20
5.723614289025181
 30
0.0
 10
-0.8137413367876661
 20
5.724457124857626
 30
0.0
 10
-0.8176233772934504
 20
5.725056654379673
 30
0.0
 10
-0.8215481118830401
 20
5.725473913666817
 30
0.0
 10
-0.8241876087225508
 20
5.725505739593435
 30
0.0
 10
-0.8255136491390416
 20
5.725521728422955
 30
0.0
  0
SPLINE
  5
1B3
330
1F
100
AcDbEntity
  8
0
  6
Continuous
 62
     7
370
    25
100
AcDbSpline
210
0.0
220
0.0
230
1.0
 70
     8
 71
     3
 72
    31
 73
    27
 74
     0
 42
0.00000001
 43
0.00000001
 40
0.0
 40
0.0
 40
0.0
 40
0.0
 40
0.0420233285259243
 40
0.0836449111687117
 40
0.1249837954173936
 40
0.1662474611728974
 40
0.2077015560969893
 40
0.2496310707996491
 40
0.2917417703321333
 40
0.3347428753531985
 40
0.3774601685508674
 40
0.4195563188419377
 40
0.4610441763330345
 40
0.5020962839443999
 40
0.5428907140755966
 40
0.5838008186265046
 40
0.6248635833101933
 40
0.666224689069172
 40
0.7073991864779385
 40
0.7485566775366963
 40
0.7896545909521833
 40
0.8307397264898352
 40
0.8720701422586074
 40
0.9139933952421347
 40
0.9564981300675894
 40
1.0
 40
1.0
 40
1.0
 40
1.0
 10
-0.8255136491390416
 20
5.725521728422955
 30
0.0
 10
-0.8268213118770866
 20
5.725505787861803
 30
0.0
 10
-0.8294241360083298
 20
5.725474059132352
 30
0.0
 10
-0.833293605939304
 20
5.725056117574393
 30
0.0
 10
-0.8371121860113833
 20
5.724460452654261
 30
0.0
 10
-0.8408806648370376
 20
5.723610786482429
 30
0.0
 10
-0.8445832746550612
 20
5.722453146609451
 30
0.0
 10
-0.8482545282445537
 20
5.721120827389398
 30
0.0
 10
-0.8518609476882042
 20
5.719497949806899
 30
0.0
 10
-0.8553906271313687
 20
5.717664378768725
 30
0.0
 10
-0.8588124804835722
 20
5.71563489369771
 30
0.0
 10
-0.8620413269975401
 20
5.713391910743574
 30
0.0
 10
-0.8650855255787899
 20
5.710988030655098
 30
0.0
 10
-0.867937622691101
 20
5.708417643356777
 30
0.0
 10
-0.8705892436428537
 20
5.70566765903429
 30
0.0
 10
-0.8730925783457181
 20
5.702779767848552
 30
0.0
 10
-0.8753472862845398
 20
5.69967142568148
 30
0.0
 10
-0.8774136475769381
 20
5.696426921474123
 30
0.0
 10
-0.8792627751469124
 20
5.693050481269169
 30
0.0
 10
-0.880907080450948
 20
5.689577652046023
 30
0.0
 10
-0.8822521201676999
 20
5.685980105322463
 30
0.0
 10
-0.8833490641158959
 20
5.682296870772221
 30
0.0
 10
-0.8842585054878151
 20
5.678533781809088
 30
0.0
 10
-0.8848346442316867
 20
5.67466229169731
 30
0.0
 10
-0.8852571780682478
 20
5.670701854215826
 30
0.0
 10
-0.8852870932435465
 20
5.668025403269286
 30
0.0
 10
-0.8853022242450379
 20
5.666671662806158
 30
0.0
  0
SPLINE
  5
1B4
330
1F
100
AcDbEntity
  8
0
  6
Continuous
 62
     7
370
    25
100
AcDbSpline
210
0.0
220
0.0
230
1.0
 70
     8
 71
     3
 72
    23
 73
    19
 74
     0
 42
0.00000001
 43
0.00000001
 40
0.0
 40
0.0
 40
0.0
 40
0.0
 40
0.0652265038922752
 40
0.1285689957067284
 40
0.1903203781044678
 40
0.2513779886240649
 40
0.3123875283336899
 40
0.373788704276722
 40
0.4364311597804517
 40
0.5005667553098517
 40
0.564686795384746
 40
0.6271355178835148
 40
0.6884554088949808
 40
0.7492457464637482
 40
0.8101551773646779
 40
0.871670925652924
 40
0.9347734961077248
 40
1.0
 40
1.0
 40
1.0
 40
1.0
 10
-0.7528067669464311
 20
5.667278933652109
 30
0.0
 10
-0.7528677879119462
 20
5.664800294031772
 30
0.0
 10
-0.7529880673042973
 20
5.659914608187994
 30
0.0
 10
-0.754018334136405
 20
5.652743606448988
 30
0.0
 10
-0.7556341215369574
 20
5.645850271941816
 30
0.0
 10
-0.7579410611504455
 20
5.639246112383748
 30
0.0
 10
-0.7609026941608118
 20
5.632924161054416
 30
0.0
 10
-0.7645505355439195
 20
5.62690105263387
 30
0.0
 10
-0.7688474336046331
 20
5.621174812539936
 30
0.0
 10
-0.7737374671098828
 20
5.615808172176801
 30
0.0
 10
-0.7790682167954746
 20
5.610887011913272
 30
0.0
 10
-0.7847859438351976
 20
5.606598867201315
 30
0.0
 10
-0.7907620587927575
 20
5.602908941036006
 30
0.0
 10
-0.7970734646258031
 20
5.599964701903517
 30
0.0
 10
-0.8036364582016476
 20
5.597611476689144
 30
0.0
 10
-0.8105097780082815
 20
5.596007042435939
 30
0.0
 10
-0.8176612171437297
 20
5.594972119473258
 30
0.0
 10
-0.8225380283170599
 20
5.594853280262112
 30
0.0
 10
-0.8250167911741718
 20
5.594792877221663
 30
0.0
  0
SPLINE
  5
1B5
330
1F
100
AcDbEntity
  8
0
  6
Continuous
 62
     7
370
    25
100
AcDbSpline
210
0.0
220
0.0
230
1.0
 70
     8
 71
     3
 72
    23
 73
    19
 74
     0
 42
0.00000001
 43
0.00000001
 40
0.0
 40
0.0
 40
0.0
 40
0.0
 40
0.0658188768433061
 40
0.1297465269068303
 40
0.1920719544880054
 40
0.2534594242982002
 40
0.3145695877964189
 40
0.3762798811880243
 40
0.4390256536685569
 40
0.5032670288290862
 40
0.5674928228792917
 40
0.6297047956052453
 40
0.6909996492157506
 40
0.751451650917444
 40
0.8120043642646931
 40
0.8731496810680428
 40
0.935635483731786
 40
1.0
 40
1.0
 40
1.0
 40
1.0
 10
-0.8250167911741718
 20
5.594792877221663
 30
0.0
 10
-0.8275138116064386
 20
5.594853876704115
 30
0.0
 10
-0.8324361035725155
 20
5.59497412292178
 30
0.0
 10
-0.8396619711071526
 20
5.596004886890364
 30
0.0
 10
-0.8466020397625762
 20
5.597616749244742
 30
0.0
 10
-0.8532364630386534
 20
5.599920270355708
 30
0.0
 10
-0.8595689405819009
 20
5.602897326683459
 30
0.0
 10
-0.8656118572234185
 20
5.606527420347436
 30
0.0
 10
-0.8713409575085233
 20
5.610834788110451
 30
0.0
 10
-0.8767087428031883
 20
5.615723235928601
 30
0.0
 10
-0.8816201285584039
 20
5.621044950574892
 30
0.0
 10
-0.8859019937431627
 20
5.626747086601593
 30
0.0
 10
-0.8895329037163598
 20
5.632717773871019
 30
0.0
 10
-0.8924999640508188
 20
5.638973581906952
 30
0.0
 10
-0.8948489585132093
 20
5.645484268627497
 30
0.0
 10
-0.8964515104084488
 20
5.652293263804244
 30
0.0
 10
-0.8974883589150964
 20
5.659361748285144
 30
0.0
 10
-0.8976078410600462
 20
5.664174460817636
 30
0.0
 10
-0.8976684669262414
 20
5.666616456365617
 30
0.0
  0
SPLINE
  5
1B6
330
1F
100
AcDbEntity
  8
0
  6
Continuous
 62
     7
370
    25
100
AcDbSpline
210
0.0
220
0.0
230
1.0
 70
     8
 71
     3
 72
    31
 73
    27
 74
     0
 42
0.00000001
 43
0.00000001
 40
0.0
 40
0.0
 40
0.0
 40
0.0
 40
0.0432089861713333
 40
0.0858728716306123
 40
0.1281200066967029
 40
0.1701519644541968
 40
0.2119176209878566
 40
0.2537530026191263
 40
0.2960064088559507
 40
0.3384433571447829
 40
0.3810153681620317
 40
0.4228204794407582
 40
0.4640890557943104
 40
0.505125848683684
 40
0.5459749706852399
 40
0.5869852111338599
 40
0.6283385916346637
 40
0.670083801591204
 40
0.7119916023637215
 40
0.7530391548630168
 40
0.7940493953116368
 40
0.8348855427015801
 40
0.8754983129295134
 40
0.9165472998303791
 40
0.9580037786449601
 40
1.0
 40
1.0
 40
1.0
 40
1.0
 10
-0.8976684669262414
 20
5.666616456365617
 30
0.0
 10
-0.8976474182843077
 20
5.668255537827689
 30
0.0
 10
-0.8976055865384852
 20
5.671513023005115
 30
0.0
 10
-0.8971019765987679
 20
5.676350290727648
 30
0.0
 10
-0.8963712009607081
 20
5.681109765442883
 30
0.0
 10
-0.8953238815689994
 20
5.685777913000535
 30
0.0
 10
-0.8939541309002395
 20
5.69034330609905
 30
0.0
 10
-0.8923379093494423
 20
5.694837430620168
 30
0.0
 10
-0.890363899689697
 20
5.699214742578645
 30
0.0
 10
-0.8881323781133648
 20
5.703495978472786
 30
0.0
 10
-0.8856417557502612
 20
5.707614399962404
 30
0.0
 10
-0.8828907419923091
 20
5.711507296936856
 30
0.0
 10
-0.8799759637061727
 20
5.715207336180253
 30
0.0
 10
-0.8767805545082176
 20
5.718618635543991
 30
0.0
 10
-0.8734098283194197
 20
5.721840433039661
 30
0.0
 10
-0.8698091047708281
 20
5.724823217174317
 30
0.0
 10
-0.8660003549926569
 20
5.727593884534809
 30
0.0
 10
-0.8619671904349561
 20
5.730090748356874
 30
0.0
 10
-0.8578089906365489
 20
5.732348982003167
 30
0.0
 10
-0.8535225033223999
 20
5.734286850152094
 30
0.0
 10
-0.8491659453891071
 20
5.735950080920224
 30
0.0
 10
-0.8447189120062134
 20
5.737298144904361
 30
0.0
 10
-0.8401932123180116
 20
5.738362398289873
 30
0.0
 10
-0.8355789688308902
 20
5.739087097254787
 30
0.0
 10
-0.8308798575600463
 20
5.739591991659807
 30
0.0
 10
-0.8277140576013854
 20
5.739633625596393
 30
0.0
 10
-0.8261209199849935
 20
5.739654577201473
 30
0.0
  0
SPLINE
  5
1B7
330
1F
100
AcDbEntity
  8
0
  6
Continuous
 62
     7
370
    25
100
AcDbSpline
210
0.0
220
0.0
230
1.0
 70
     8
 71
     3
 72
    23
 73
    19
 74
     0
 42
0.00000001
 43
0.00000001
 40
0.0
 40
0.0
 40
0.0
 40
0.0
 40
0.0665700352151791
 40
0.1307490414821776
 40
0.1934128000295044
 40
0.2549893988897106
 40
0.3161135558758989
 40
0.3772617579089826
 40
0.4394007841555564
 40
0.5029705893719773
 40
0.5665249763607292
 40
0.62823110251331
 40
0.6890906105998669
 40
0.7493446689958018
 40
0.8101695933722056
 40
0.8716098243170438
 40
0.9348691840727641
 40
1.0
 40
1.0
 40
1.0
 40
1.0
 10
-0.8261209199849935
 20
5.739654577201473
 30
0.0
 10
-0.8235694197523937
 20
5.739589952029383
 30
0.0
 10
-0.81855806278562
 20
5.739463022859543
 30
0.0
 10
-0.81119290933192
 20
5.73849140460933
 30
0.0
 10
-0.8041616063679606
 20
5.736810483744485
 30
0.0
 10
-0.797406876493875
 20
5.734571783646815
 30
0.0
 10
-0.7910095152116224
 20
5.731585390521591
 30
0.0
 10
-0.7849213698379776
 20
5.72797573901216
 30
0.0
 10
-0.7791569259865777
 20
5.723705012289395
 30
0.0
 10
-0.7737938794697107
 20
5.718806223830669
 30
0.0
 10
-0.7688861255215529
 20
5.71347616659045
 30
0.0
 10
-0.7645622717314243
 20
5.707788059894668
 30
0.0
 10
-0.7609385593797816
 20
5.701776296024322
 30
0.0
 10
-0.757962740987449
 20
5.695458940487248
 30
0.0
 10
-0.7556281500546214
 20
5.688850280330767
 30
0.0
 10
-0.7540171640825505
 20
5.681915083372445
 30
0.0
 10
-0.7529881030529072
 20
5.674698284550709
 30
0.0
 10
-0.7528677968557633
 20
5.669775967041902
 30
0.0
 10
-0.7528067669464311
 20
5.667278933652109
 30
0.0
  0
LINE
  5
1B8
330
1F
100
AcDbEntity
  8
0
  6
Continuous
 62
     7
370
    25
100
AcDbLine
 10
8.0
 20
5.5329398651
 30
0.0
 11
8.0
 21
5.2829398651
 31
0.0
  0
LINE
  5
1B9
330
1F
100
AcDbEntity
  8
0
  6
Continuous
 62
     7
370
    25
100
AcDbLine
 10
7.5
 20
5.5329398651
 30
0.0
 11
8.0
 21
5.5329398651
 31
0.0
  0
LINE
  5
1BA
330
1F
100
AcDbEntity
  8
0
  6
Continuous
 62
     7
370
    25
100
AcDbLine
 10
7.5
 20
5.2829398651
 30
0.0
 11
7.5
 21
5.5329398651
 31
0.0
  0
LINE
  5
1BB
330
1F
100
AcDbEntity
  8
0
  6
Continuous
 62
     7
370
    25
100
AcDbLine
 10
8.0
 20
5.2829398651
 30
0.0
 11
7.5
 21
5.2829398651
 31
0.0
  0
LINE
  5
1BC
330
1F
100
AcDbEntity
  8
0
  6
Continuous
 62
     7
370
    25
100
AcDbLine
 10
7.25
 20
5.5329398651
 30
0.0
 11
7.25
 21
5.2829398651
 31
0.0
  0
LINE
  5
1BD
330
1F
100
AcDbEntity
  8
0
  6
Continuous
 62
     7
370
    25
100
AcDbLine
 10
6.75
 20
5.5329398651
 30
0.0
 11
7.25
 21
5.5329398651
 31
0.0
  0
LINE
  5
1BE
330
1F
100
AcDbEntity
  8
0
  6
Continuous
 62
     7
370
    25
100
AcDbLine
 10
6.75
 20
5.2829398651
 30
0.0
 11
6.75
 21
5.5329398651
 31
0.0
  0
LINE
  5
1BF
330
1F
100
AcDbEntity
  8
0
  6
Continuous
 62
     7
370
    25
100
AcDbLine
 10
7.25
 20
5.2829398651
 30
0.0
 11
6.75
 21
5.2829398651
 31
0.0
  0
LINE
  5
1C0
330
1F
100
AcDbEntity
  8
0
  6
Continuous
 62
     7
370
    25
100
AcDbLine
 10
5.375
 20
5.5329398651
 30
0.0
 11
5.375
 21
5.2829398651
 31
0.0
  0
LINE
  5
1C1
330
1F
100
AcDbEntity
  8
0
  6
Continuous
 62
     7
370
    25
100
AcDbLine
 10
4.625
 20
5.5329398651
 30
0.0
 11
5.375
 21
5.5329398651
 31
0.0
  0
LINE
  5
1C2
330
1F
100
AcDbEntity
  8
0
  6
Continuous
 62
     7
370
    25
100
AcDbLine
 10
4.625
 20
5.2829398651
 30
0.0
 11
4.625
 21
5.5329398651
 31
0.0
  0
LINE
  5
1C3
330
1F
100
AcDbEntity
  8
0
  6
Continuous
 62
     7
370
    25
100
AcDbLine
 10
5.375
 20
5.2829398651
 30
0.0
 11
4.625
 21
5.2829398651
 31
0.0
  0
LINE
  5
1C4
330
1F
100
AcDbEntity
  8
0
  6
Continuous
 62
     7
370
    25
100
AcDbLine
 10
0.9596063325
 20
5.7863784509
 30
0.0
 11
0.9596063325
 21
5.5363784509
 31
0.0
  0
LINE
  5
1C5
330
1F
100
AcDbEntity
  8
0
  6
Continuous
 62
     7
370
    25
100
AcDbLine
 10
0.2096063325
 20
5.7863784509
 30
0.0
 11
0.9596063325
 21
5.7863784509
 31
0.0
  0
LINE
  5
1C6
330
1F
100
AcDbEntity
  8
0
  6
Continuous
 62
     7
370
    25
100
AcDbLine
 10
0.2096063325
 20
5.5363784509
 30
0.0
 11
0.2096063325
 21
5.7863784509
 31
0.0
  0
LINE
  5
1C7
330
1F
100
AcDbEntity
  8
0
  6
Continuous
 62
     7
370
    25
100
AcDbLine
 10
0.9596063325
 20
5.5363784509
 30
0.0
 11
0.2096063325
 21
5.5363784509
 31
0.0
  0
LINE
  5
1C8
330
1F
100
AcDbEntity
  8
0
  6
Continuous
 62
     7
370
    25
100
AcDbLine
 10
-0.191219487
 20
5.302715691
 30
0.0
 11
-0.191219487
 21
5.052715691
 31
0.0
  0
LINE
  5
1C9
330
1F
100
AcDbEntity
  8
0
  6
Continuous
 62
     7
370
    25
100
AcDbLine
 10
-0.941219487
 20
5.302715691
 30
0.0
 11
-0.191219487
 21
5.302715691
 31
0.0
  0
LINE
  5
1CA
330
1F
100
AcDbEntity
  8
0
  6
Continuous
 62
     7
370
    25
100
AcDbLine
 10
-0.941219487
 20
5.052715691
 30
0.0
 11
-0.941219487
 21
5.302715691
 31
0.0
  0
LINE
  5
1CB
330
1F
100
AcDbEntity
  8
0
  6
Continuous
 62
     7
370
    25
100
AcDbLine
 10
-0.191219487
 20
5.052715691
 30
0.0
 11
-0.941219487
 21
5.052715691
 31
0.0
  0
LINE
  5
1CC
330
1F
100
AcDbEntity
  8
0
  6
Continuous
 62
     7
370
    25
100
AcDbLine
 10
-3.1752168727
 20
4.0701015297
 30
0.0
 11
-1.083703472
 21
0.1694455217
 31
0.0
  0
LINE
  5
1CD
330
1F
100
AcDbEntity
  8
0
  6
Continuous
 62
     7
370
    25
100
AcDbLine
 10
-8.75
 20
5.125
 30
0.0
 11
-4.9378237768
 21
5.125
 31
0.0
  0
LINE
  5
1CE
330
1F
100
AcDbEntity
  8
0
  6
Continuous
 62
     7
370
    25
100
AcDbLine
 10
-8.75
 20
7.125
 30
0.0
 11
-8.75
 21
5.125
 31
0.0
  0
LINE
  5
1CF
330
1F
100
AcDbEntity
  8
0
  6
Continuous
 62
     7
370
    25
100
AcDbLine
 10
-8.75
 20
7.125
 30
0.0
 11
8.75
 21
7.125
 31
0.0
  0
LINE
  5
1D0
330
1F
100
AcDbEntity
  8
0
  6
Continuous
 62
     7
370
    25
100
AcDbLine
 10
8.75
 20
7.125
 30
0.0
 11
8.75
 21
5.125
 31
0.0
  0
LINE
  5
1D1
330
1F
100
AcDbEntity
  8
0
  6
Continuous
 62
     7
370
    25
100
AcDbLine
 10
8.75
 20
5.125
 30
0.0
 11
4.9378237768
 21
5.125
 31
0.0
  0
LINE
  5
1D2
330
1F
100
AcDbEntity
  8
0
  6
Continuous
 62
     7
370
    25
100
AcDbLine
 10
3.1752168727
 20
4.0701015297
 30
0.0
 11
1.083703472
 21
0.1694455217
 31
0.0
  0
LINE
  5
1D3
330
1F
100
AcDbEntity
  8
0
  6
Continuous
 62
     7
370
    25
100
AcDbLine
 10
-1.561637931
 20
5.625
 30
0.0
 11
-1.561637931
 21
4.625
 31
0.0
  0
LINE
  5
1D4
330
1F
100
AcDbEntity
  8
0
  6
Continuous
 62
     7
370
    25
100
AcDbLine
 10
-1.061637931
 20
4.625
 30
0.0
 11
-1.061637931
 21
5.625
 31
0.0
  0
LINE
  5
1D5
330
1F
100
AcDbEntity
  8
0
  6
Continuous
 62
     7
370
    25
100
AcDbLine
 10
1.061637931
 20
5.625
 30
0.0
 11
1.061637931
 21
4.625
 31
0.0
  0
LINE
  5
1D6
330
1F
100
AcDbEntity
  8
0
  6
Continuous
 62
     7
370
    25
100
AcDbLine
 10
1.561637931
 20
4.625
 30
0.0
 11
1.561637931
 21
5.625
 31
0.0
  0
LINE
  5
1D7
330
1F
100
AcDbEntity
  8
0
  6
Continuous
 62
     7
370
    25
100
AcDbLine
 10
-1.561637931
 20
6.5
 30
0.0
 11
-1.561637931
 21
6.25
 31
0.0
  0
LINE
  5
1D8
330
1F
100
AcDbEntity
  8
0
  6
Continuous
 62
     7
370
    25
100
AcDbLine
 10
-1.311637931
 20
6.0
 30
0.0
 11
1.311637931
 21
6.0
 31
0.0
  0
LINE
  5
1D9
330
1F
100
AcDbEntity
  8
0
  6
Continuous
 62
     7
370
    25
100
AcDbLine
 10
1.561637931
 20
6.25
 30
0.0
 11
1.561637931
 21
6.5
 31
0.0
  0
LINE
  5
1DA
330
1F
100
AcDbEntity
  8
0
  6
Continuous
 62
     7
370
    25
100
AcDbLine
 10
-0.191219487
 20
5.7863784509
 30
0.0
 11
-0.191219487
 21
5.5363784509
 31
0.0
  0
LINE
  5
1DB
330
1F
100
AcDbEntity
  8
0
  6
Continuous
 62
     7
370
    25
100
AcDbLine
 10
-0.941219487
 20
5.7863784509
 30
0.0
 11
-0.191219487
 21
5.7863784509
 31
0.0
  0
LINE
  5
1DC
330
1F
100
AcDbEntity
  8
0
  6
Continuous
 62
     7
370
    25
100
AcDbLine
 10
-0.941219487
 20
5.5363784509
 30
0.0
 11
-0.941219487
 21
5.7863784509
 31
0.0
  0
LINE
  5
1DD
330
1F
100
AcDbEntity
  8
0
  6
Continuous
 62
     7
370
    25
100
AcDbLine
 10
-0.191219487
 20
5.5363784509
 30
0.0
 11
-0.941219487
 21
5.5363784509
 31
0.0
  0
LINE
  5
1DE
330
1F
100
AcDbEntity
  8
0
  6
Continuous
 62
     7
370
    25
100
AcDbLine
 10
-0.191219487
 20
4.7774136294
 30
0.0
 11
-0.191219487
 21
4.5274136294
 31
0.0
  0
LINE
  5
1DF
330
1F
100
AcDbEntity
  8
0
  6
Continuous
 62
     7
370
    25
100
AcDbLine
 10
-0.941219487
 20
4.7774136294
 30
0.0
 11
-0.191219487
 21
4.7774136294
 31
0.0
  0
LINE
  5
1E0
330
1F
100
AcDbEntity
  8
0
  6
Continuous
 62
     7
370
    25
100
AcDbLine
 10
-0.941219487
 20
4.5274136294
 30
0.0
 11
-0.941219487
 21
4.7774136294
 31
0.0
  0
LINE
  5
1E1
330
1F
100
AcDbEntity
  8
0
  6
Continuous
 62
     7
370
    25
100
AcDbLine
 10
-0.191219487
 20
4.5274136294
 30
0.0
 11
-0.941219487
 21
4.5274136294
 31
0.0
  0
LINE
  5
1E2
330
1F
100
AcDbEntity
  8
0
  6
Continuous
 62
     7
370
    25
100
AcDbLine
 10
0.9596063325
 20
5.302715691
 30
0.0
 11
0.9596063325
 21
5.052715691
 31
0.0
  0
LINE
  5
1E3
330
1F
100
AcDbEntity
  8
0
  6
Continuous
 62
     7
370
    25
100
AcDbLine
 10
0.2096063325
 20
5.302715691
 30
0.0
 11
0.9596063325
 21
5.302715691
 31
0.0
  0
LINE
  5
1E4
330
1F
100
AcDbEntity
  8
0
  6
Continuous
 62
     7
370
    25
100
AcDbLine
 10
0.2096063325
 20
5.052715691
 30
0.0
 11
0.2096063325
 21
5.302715691
 31
0.0
  0
LINE
  5
1E5
330
1F
100
AcDbEntity
  8
0
  6
Continuous
 62
     7
370
    25
100
AcDbLine
 10
0.9596063325
 20
5.052715691
 30
0.0
 11
0.2096063325
 21
5.052715691
 31
0.0
  0
LINE
  5
1E6
330
1F
100
AcDbEntity
  8
0
  6
Continuous
 62
     7
370
    25
100
AcDbLine
 10
0.9596063325
 20
4.7774136294
 30
0.0
 11
0.9596063325
 21
4.5274136294
 31
0.0
  0
LINE
  5
1E7
330
1F
100
AcDbEntity
  8
0
  6
Continuous
 62
     7
370
    25
100
AcDbLine
 10
0.2096063325
 20
4.7774136294
 30
0.0
 11
0.9596063325
 21
4.7774136294
 31
0.0
  0
LINE
  5
1E8
330
1F
100
AcDbEntity
  8
0
  6
Continuous
 62
     7
370
    25
100
AcDbLine
 10
0.2096063325
 20
4.5274136294
 30
0.0
 11
0.2096063325
 21
4.7774136294
 31
0.0
  0
LINE
  5
1E9
330
1F
100
AcDbEntity
  8
0
  6
Continuous
 62
     7
370
    25
100
AcDbLine
 10
0.9596063325
 20
4.5274136294
 30
0.0
 11
0.2096063325
 21
4.5274136294
 31
0.0
  0
LINE
  5
1EA
330
1F
100
AcDbEntity
  8
0
  6
Continuous
 62
     7
370
    25
100
AcDbLine
 10
6.5
 20
5.5329398651
 30
0.0
 11
6.5
 21
5.2829398651
 31
0.0
  0
LINE
  5
1EB
330
1F
100
AcDbEntity
  8
0
  6
Continuous
 62
     7
370
    25
100
AcDbLine
 10
6.0
 20
5.5329398651
 30
0.0
 11
6.5
 21
5.5329398651
 31
0.0
  0
LINE
  5
1EC
330
1F
100
AcDbEntity
  8
0
  6
Continuous
 62
     7
370
    25
100
AcDbLine
 10
6.0
 20
5.2829398651
 30
0.0
 11
6.0
 21
5.5329398651
 31
0.0
  0
LINE
  5
1ED
330
1F
100
AcDbEntity
  8
0
  6
Continuous
 62
     7
370
    25
100
AcDbLine
 10
6.5
 20
5.2829398651
 30
0.0
 11
6.0
 21
5.2829398651
 31
0.0
  0
LINE
  5
1EE
330
1F
100
AcDbEntity
  8
0
  6
Continuous
 62
     7
370
    25
100
AcDbLine
 10
7.0364467169
 20
5.3438235734
 30
0.0
 11
7.0488129596
 21
5.3438235734
 31
0.0
  0
LINE
  5
1EF
330
1F
100
AcDbEntity
  8
0
  6
Continuous
 62
     7
370
    25
100
AcDbLine
 10
7.0488129596
 20
5.3438235734
 30
0.0
 11
7.0488129596
 21
5.4074213929
 31
0.0
  0
LINE
  5
1F0
330
1F
100
AcDbEntity
  8
0
  6
Continuous
 62
     7
370
    25
100
AcDbLine
 10
7.0488129596
 20
5.4074213929
 30
0.0
 11
7.0588605318
 21
5.4074213929
 31
0.0
  0
LINE
  5
1F1
330
1F
100
AcDbEntity
  8
0
  6
Continuous
 62
     7
370
    25
100
AcDbLine
 10
7.0588605318
 20
5.4074213929
 30
0.0
 11
7.1094848377
 21
5.3438235734
 31
0.0
  0
LINE
  5
1F2
330
1F
100
AcDbEntity
  8
0
  6
Continuous
 62
     7
370
    25
100
AcDbLine
 10
7.1094848377
 20
5.3438235734
 30
0.0
 11
7.1247770218
 21
5.3438235734
 31
0.0
  0
LINE
  5
1F3
330
1F
100
AcDbEntity
  8
0
  6
Continuous
 62
     7
370
    25
100
AcDbLine
 10
7.1247770218
 20
5.3438235734
 30
0.0
 11
7.0741527158
 21
5.4074213929
 31
0.0
  0
LINE
  5
1F4
330
1F
100
AcDbEntity
  8
0
  6
Continuous
 62
     7
370
    25
100
AcDbLine
 10
7.0640223339
 20
5.481618849
 30
0.0
 11
7.0364467169
 21
5.481618849
 31
0.0
  0
LINE
  5
1F5
330
1F
100
AcDbEntity
  8
0
  6
Continuous
 62
     7
370
    25
100
AcDbLine
 10
7.0364467169
 20
5.481618849
 30
0.0
 11
7.0364467169
 21
5.3438235734
 31
0.0
  0
LINE
  5
1F6
330
1F
100
AcDbEntity
  8
0
  6
Continuous
 62
     7
370
    25
100
AcDbLine
 10
6.9728488974
 20
5.4674860002
 30
0.0
 11
6.9728488974
 21
5.3438235734
 31
0.0
  0
LINE
  5
1F7
330
1F
100
AcDbEntity
  8
0
  6
Continuous
 62
     7
370
    25
100
AcDbLine
 10
6.9728488974
 20
5.3438235734
 30
0.0
 11
6.9852151401
 21
5.3438235734
 31
0.0
  0
LINE
  5
1F8
330
1F
100
AcDbEntity
  8
0
  6
Continuous
 62
     7
370
    25
100
AcDbLine
 10
6.9852151401
 20
5.3438235734
 30
0.0
 11
6.9852151401
 21
5.4674860002
 31
0.0
  0
LINE
  5
1F9
330
1F
100
AcDbEntity
  8
0
  6
Continuous
 62
     7
370
    25
100
AcDbLine
 10
6.9852151401
 20
5.4674860002
 30
0.0
 11
7.0152474437
 21
5.4674860002
 31
0.0
  0
LINE
  5
1FA
330
1F
100
AcDbEntity
  8
0
  6
Continuous
 62
     7
370
    25
100
AcDbLine
 10
7.0152474437
 20
5.4674860002
 30
0.0
 11
7.0152474437
 21
5.481618849
 31
0.0
  0
LINE
  5
1FB
330
1F
100
AcDbEntity
  8
0
  6
Continuous
 62
     7
370
    25
100
AcDbLine
 10
7.0152474437
 20
5.481618849
 30
0.0
 11
6.9428165937
 21
5.481618849
 31
0.0
  0
LINE
  5
1FC
330
1F
100
AcDbEntity
  8
0
  6
Continuous
 62
     7
370
    25
100
AcDbLine
 10
6.9428165937
 20
5.481618849
 30
0.0
 11
6.9428165937
 21
5.4674860002
 31
0.0
  0
LINE
  5
1FD
330
1F
100
AcDbEntity
  8
0
  6
Continuous
 62
     7
370
    25
100
AcDbLine
 10
6.9428165937
 20
5.4674860002
 30
0.0
 11
6.9728488974
 21
5.4674860002
 31
0.0
  0
LINE
  5
1FE
330
1F
100
AcDbEntity
  8
0
  6
Continuous
 62
     7
370
    25
100
AcDbLine
 10
6.9175044408
 20
5.4533531514
 30
0.0
 11
6.928683745
 21
5.46182734
 31
0.0
  0
LINE
  5
1FF
330
1F
100
AcDbEntity
  8
0
  6
Continuous
 62
     7
370
    25
100
AcDbLine
 10
6.8608350295
 20
5.3773890892
 30
0.0
 11
6.8491864706
 21
5.3704054745
 31
0.0
  0
LINE
  5
200
330
1F
100
AcDbEntity
  8
0
  6
Continuous
 62
     7
370
    25
100
AcDbLine
 10
6.1073512386
 20
5.3362498286
 30
0.0
 11
6.1197174812
 21
5.3362498286
 31
0.0
  0
LINE
  5
201
330
1F
100
AcDbEntity
  8
0
  6
Continuous
 62
     7
370
    25
100
AcDbLine
 10
6.1197174812
 20
5.3362498286
 30
0.0
 11
6.1197174812
 21
5.4740451042
 31
0.0
  0
LINE
  5
202
330
1F
100
AcDbEntity
  8
0
  6
Continuous
 62
     7
370
    25
100
AcDbLine
 10
6.1197174812
 20
5.4740451042
 30
0.0
 11
6.1073512386
 21
5.4740451042
 31
0.0
  0
LINE
  5
203
330
1F
100
AcDbEntity
  8
0
  6
Continuous
 62
     7
370
    25
100
AcDbLine
 10
6.1073512386
 20
5.4740451042
 30
0.0
 11
6.1073512386
 21
5.3362498286
 31
0.0
  0
LINE
  5
204
330
1F
100
AcDbEntity
  8
0
  6
Continuous
 62
     7
370
    25
100
AcDbLine
 10
6.2928448788
 20
5.4033808603
 30
0.0
 11
6.2345468776
 21
5.4033808603
 31
0.0
  0
LINE
  5
205
330
1F
100
AcDbEntity
  8
0
  6
Continuous
 62
     7
370
    25
100
AcDbLine
 10
6.2345468776
 20
5.4033808603
 30
0.0
 11
6.2345468776
 21
5.3892480116
 31
0.0
  0
LINE
  5
206
330
1F
100
AcDbEntity
  8
0
  6
Continuous
 62
     7
370
    25
100
AcDbLine
 10
6.2345468776
 20
5.3892480116
 30
0.0
 11
6.2804786361
 21
5.3892480116
 31
0.0
  0
LINE
  5
207
330
1F
100
AcDbEntity
  8
0
  6
Continuous
 62
     7
370
    25
100
AcDbLine
 10
6.2734122117
 20
5.4404795884
 30
0.0
 11
6.2840118483
 21
5.4505271606
 31
0.0
  0
LINE
  5
208
330
1F
100
AcDbEntity
  8
0
  6
Continuous
 62
     7
370
    25
100
AcDbLine
 10
6.333476819
 20
5.3362498286
 30
0.0
 11
6.333476819
 21
5.4444544521
 31
0.0
  0
LINE
  5
209
330
1F
100
AcDbEntity
  8
0
  6
Continuous
 62
     7
370
    25
100
AcDbLine
 10
6.333476819
 20
5.4444544521
 30
0.0
 11
6.4242914137
 21
5.3362498286
 31
0.0
  0
LINE
  5
20A
330
1F
100
AcDbEntity
  8
0
  6
Continuous
 62
     7
370
    25
100
AcDbLine
 10
6.4242914137
 20
5.3362498286
 30
0.0
 11
6.4271069422
 21
5.3362498286
 31
0.0
  0
LINE
  5
20B
330
1F
100
AcDbEntity
  8
0
  6
Continuous
 62
     7
370
    25
100
AcDbLine
 10
6.4271069422
 20
5.3362498286
 30
0.0
 11
6.4271069422
 21
5.4740451042
 31
0.0
  0
LINE
  5
20C
330
1F
100
AcDbEntity
  8
0
  6
Continuous
 62
     7
370
    25
100
AcDbLine
 10
6.4271069422
 20
5.4740451042
 30
0.0
 11
6.4147406995
 21
5.4740451042
 31
0.0
  0
LINE
  5
20D
330
1F
100
AcDbEntity
  8
0
  6
Continuous
 62
     7
370
    25
100
AcDbLine
 10
6.4147406995
 20
5.4740451042
 30
0.0
 11
6.4147406995
 21
5.3655920518
 31
0.0
  0
LINE
  5
20E
330
1F
100
AcDbEntity
  8
0
  6
Continuous
 62
     7
370
    25
100
AcDbLine
 10
6.4147406995
 20
5.3655920518
 30
0.0
 11
6.323705279
 21
5.4740451042
 31
0.0
  0
LINE
  5
20F
330
1F
100
AcDbEntity
  8
0
  6
Continuous
 62
     7
370
    25
100
AcDbLine
 10
6.323705279
 20
5.4740451042
 30
0.0
 11
6.3211105763
 21
5.4740451042
 31
0.0
  0
LINE
  5
210
330
1F
100
AcDbEntity
  8
0
  6
Continuous
 62
     7
370
    25
100
AcDbLine
 10
6.3211105763
 20
5.4740451042
 30
0.0
 11
6.3211105763
 21
5.3362498286
 31
0.0
  0
LINE
  5
211
330
1F
100
AcDbEntity
  8
0
  6
Continuous
 62
     7
370
    25
100
AcDbLine
 10
6.3211105763
 20
5.3362498286
 30
0.0
 11
6.333476819
 21
5.3362498286
 31
0.0
  0
LINE
  5
212
330
1F
100
AcDbEntity
  8
0
  6
Continuous
 62
     7
370
    25
100
AcDbLine
 10
5.1140522055
 20
5.3498029228
 30
0.0
 11
5.1794166311
 21
5.3498029228
 31
0.0
  0
LINE
  5
213
330
1F
100
AcDbEntity
  8
0
  6
Continuous
 62
     7
370
    25
100
AcDbLine
 10
5.1794166311
 20
5.3498029228
 30
0.0
 11
5.1794166311
 21
5.3639357715
 31
0.0
  0
LINE
  5
214
330
1F
100
AcDbEntity
  8
0
  6
Continuous
 62
     7
370
    25
100
AcDbLine
 10
5.1794166311
 20
5.3639357715
 30
0.0
 11
5.1264184482
 21
5.3639357715
 31
0.0
  0
LINE
  5
215
330
1F
100
AcDbEntity
  8
0
  6
Continuous
 62
     7
370
    25
100
AcDbLine
 10
5.1264184482
 20
5.3639357715
 30
0.0
 11
5.1264184482
 21
5.4875981984
 31
0.0
  0
LINE
  5
216
330
1F
100
AcDbEntity
  8
0
  6
Continuous
 62
     7
370
    25
100
AcDbLine
 10
5.1264184482
 20
5.4875981984
 30
0.0
 11
5.1140522055
 21
5.4875981984
 31
0.0
  0
LINE
  5
217
330
1F
100
AcDbEntity
  8
0
  6
Continuous
 62
     7
370
    25
100
AcDbLine
 10
5.1140522055
 20
5.4875981984
 30
0.0
 11
5.1140522055
 21
5.3498029228
 31
0.0
  0
LINE
  5
218
330
1F
100
AcDbEntity
  8
0
  6
Continuous
 62
     7
370
    25
100
AcDbLine
 10
5.0257219006
 20
5.3498029228
 30
0.0
 11
5.0910863262
 21
5.3498029228
 31
0.0
  0
LINE
  5
219
330
1F
100
AcDbEntity
  8
0
  6
Continuous
 62
     7
370
    25
100
AcDbLine
 10
5.0910863262
 20
5.3498029228
 30
0.0
 11
5.0910863262
 21
5.3639357715
 31
0.0
  0
LINE
  5
21A
330
1F
100
AcDbEntity
  8
0
  6
Continuous
 62
     7
370
    25
100
AcDbLine
 10
5.0910863262
 20
5.3639357715
 30
0.0
 11
5.0380881433
 21
5.3639357715
 31
0.0
  0
LINE
  5
21B
330
1F
100
AcDbEntity
  8
0
  6
Continuous
 62
     7
370
    25
100
AcDbLine
 10
5.0380881433
 20
5.3639357715
 30
0.0
 11
5.0380881433
 21
5.4875981984
 31
0.0
  0
LINE
  5
21C
330
1F
100
AcDbEntity
  8
0
  6
Continuous
 62
     7
370
    25
100
AcDbLine
 10
5.0380881433
 20
5.4875981984
 30
0.0
 11
5.0257219006
 21
5.4875981984
 31
0.0
  0
LINE
  5
21D
330
1F
100
AcDbEntity
  8
0
  6
Continuous
 62
     7
370
    25
100
AcDbLine
 10
5.0257219006
 20
5.4875981984
 30
0.0
 11
5.0257219006
 21
5.3498029228
 31
0.0
  0
LINE
  5
21E
330
1F
100
AcDbEntity
  8
0
  6
Continuous
 62
     7
370
    25
100
AcDbLine
 10
4.978023536
 20
5.3498029228
 30
0.0
 11
4.9903897787
 21
5.3498029228
 31
0.0
  0
LINE
  5
21F
330
1F
100
AcDbEntity
  8
0
  6
Continuous
 62
     7
370
    25
100
AcDbLine
 10
4.9903897787
 20
5.3498029228
 30
0.0
 11
4.9903897787
 21
5.4875981984
 31
0.0
  0
LINE
  5
220
330
1F
100
AcDbEntity
  8
0
  6
Continuous
 62
     7
370
    25
100
AcDbLine
 10
4.9903897787
 20
5.4875981984
 30
0.0
 11
4.978023536
 21
5.4875981984
 31
0.0
  0
LINE
  5
221
330
1F
100
AcDbEntity
  8
0
  6
Continuous
 62
     7
370
    25
100
AcDbLine
 10
4.978023536
 20
5.4875981984
 30
0.0
 11
4.978023536
 21
5.3498029228
 31
0.0
  0
LINE
  5
222
330
1F
100
AcDbEntity
  8
0
  6
Continuous
 62
     7
370
    25
100
AcDbLine
 10
4.8649607458
 20
5.3498029228
 30
0.0
 11
4.8773269885
 21
5.3498029228
 31
0.0
  0
LINE
  5
223
330
1F
100
AcDbEntity
  8
0
  6
Continuous
 62
     7
370
    25
100
AcDbLine
 10
4.8773269885
 20
5.3498029228
 30
0.0
 11
4.8773269885
 21
5.4162990804
 31
0.0
  0
LINE
  5
224
330
1F
100
AcDbEntity
  8
0
  6
Continuous
 62
     7
370
    25
100
AcDbLine
 10
4.8773269885
 20
5.4162990804
 30
0.0
 11
4.9412284434
 21
5.3498029228
 31
0.0
  0
LINE
  5
225
330
1F
100
AcDbEntity
  8
0
  6
Continuous
 62
     7
370
    25
100
AcDbLine
 10
4.9412284434
 20
5.3498029228
 30
0.0
 11
4.9577075659
 21
5.3498029228
 31
0.0
  0
LINE
  5
226
330
1F
100
AcDbEntity
  8
0
  6
Continuous
 62
     7
370
    25
100
AcDbLine
 10
4.9577075659
 20
5.3498029228
 30
0.0
 11
4.8846970483
 21
5.4257669849
 31
0.0
  0
LINE
  5
227
330
1F
100
AcDbEntity
  8
0
  6
Continuous
 62
     7
370
    25
100
AcDbLine
 10
4.8846970483
 20
5.4257669849
 30
0.0
 11
4.9524077476
 21
5.4875981984
 31
0.0
  0
LINE
  5
228
330
1F
100
AcDbEntity
  8
0
  6
Continuous
 62
     7
370
    25
100
AcDbLine
 10
4.9524077476
 20
5.4875981984
 30
0.0
 11
4.9347692898
 21
5.4875981984
 31
0.0
  0
LINE
  5
229
330
1F
100
AcDbEntity
  8
0
  6
Continuous
 62
     7
370
    25
100
AcDbLine
 10
4.9347692898
 20
5.4875981984
 30
0.0
 11
4.8773269885
 21
5.4351244766
 31
0.0
  0
LINE
  5
22A
330
1F
100
AcDbEntity
  8
0
  6
Continuous
 62
     7
370
    25
100
AcDbLine
 10
4.8773269885
 20
5.4351244766
 30
0.0
 11
4.8773269885
 21
5.4875981984
 31
0.0
  0
LINE
  5
22B
330
1F
100
AcDbEntity
  8
0
  6
Continuous
 62
     7
370
    25
100
AcDbLine
 10
4.8773269885
 20
5.4875981984
 30
0.0
 11
4.8649607458
 21
5.4875981984
 31
0.0
  0
LINE
  5
22C
330
1F
100
AcDbEntity
  8
0
  6
Continuous
 62
     7
370
    25
100
AcDbLine
 10
4.8649607458
 20
5.4875981984
 30
0.0
 11
4.8649607458
 21
5.3498029228
 31
0.0
  0
LINE
  5
22D
330
1F
100
AcDbEntity
  8
0
  6
Continuous
 62
     7
370
    25
100
AcDbLine
 10
0.8125820317
 20
5.112868974
 30
0.0
 11
0.8125820317
 21
5.2210735974
 31
0.0
  0
LINE
  5
22E
330
1F
100
AcDbEntity
  8
0
  6
Continuous
 62
     7
370
    25
100
AcDbLine
 10
0.8125820317
 20
5.2210735974
 30
0.0
 11
0.9033966264
 21
5.112868974
 31
0.0
  0
LINE
  5
22F
330
1F
100
AcDbEntity
  8
0
  6
Continuous
 62
     7
370
    25
100
AcDbLine
 10
0.9033966264
 20
5.112868974
 30
0.0
 11
0.9062121549
 21
5.112868974
 31
0.0
  0
LINE
  5
230
330
1F
100
AcDbEntity
  8
0
  6
Continuous
 62
     7
370
    25
100
AcDbLine
 10
0.9062121549
 20
5.112868974
 30
0.0
 11
0.9062121549
 21
5.2506642495
 31
0.0
  0
LINE
  5
231
330
1F
100
AcDbEntity
  8
0
  6
Continuous
 62
     7
370
    25
100
AcDbLine
 10
0.9062121549
 20
5.2506642495
 30
0.0
 11
0.8938459122
 21
5.2506642495
 31
0.0
  0
LINE
  5
232
330
1F
100
AcDbEntity
  8
0
  6
Continuous
 62
     7
370
    25
100
AcDbLine
 10
0.8938459122
 20
5.2506642495
 30
0.0
 11
0.8938459122
 21
5.1422111971
 31
0.0
  0
LINE
  5
233
330
1F
100
AcDbEntity
  8
0
  6
Continuous
 62
     7
370
    25
100
AcDbLine
 10
0.8938459122
 20
5.1422111971
 30
0.0
 11
0.8028104918
 21
5.2506642495
 31
0.0
  0
LINE
  5
234
330
1F
100
AcDbEntity
  8
0
  6
Continuous
 62
     7
370
    25
100
AcDbLine
 10
0.8028104918
 20
5.2506642495
 30
0.0
 11
0.8002157891
 21
5.2506642495
 31
0.0
  0
LINE
  5
235
330
1F
100
AcDbEntity
  8
0
  6
Continuous
 62
     7
370
    25
100
AcDbLine
 10
0.8002157891
 20
5.2506642495
 30
0.0
 11
0.8002157891
 21
5.112868974
 31
0.0
  0
LINE
  5
236
330
1F
100
AcDbEntity
  8
0
  6
Continuous
 62
     7
370
    25
100
AcDbLine
 10
0.8002157891
 20
5.112868974
 30
0.0
 11
0.8125820317
 21
5.112868974
 31
0.0
  0
LINE
  5
237
330
1F
100
AcDbEntity
  8
0
  6
Continuous
 62
     7
370
    25
100
AcDbLine
 10
0.8781300929
 20
5.6645286028
 30
0.0
 11
0.8331368439
 21
5.594250804
 31
0.0
  0
LINE
  5
238
330
1F
100
AcDbEntity
  8
0
  6
Continuous
 62
     7
370
    25
100
AcDbLine
 10
0.8331368439
 20
5.594250804
 30
0.0
 11
0.8474077087
 21
5.594250804
 31
0.0
  0
LINE
  5
239
330
1F
100
AcDbEntity
  8
0
  6
Continuous
 62
     7
370
    25
100
AcDbLine
 10
0.8474077087
 20
5.594250804
 30
0.0
 11
0.8852517237
 21
5.6533769018
 31
0.0
  0
LINE
  5
23A
330
1F
100
AcDbEntity
  8
0
  6
Continuous
 62
     7
370
    25
100
AcDbLine
 10
0.8852517237
 20
5.6533769018
 30
0.0
 11
0.9230957387
 21
5.594250804
 31
0.0
  0
LINE
  5
23B
330
1F
100
AcDbEntity
  8
0
  6
Continuous
 62
     7
370
    25
100
AcDbLine
 10
0.9230957387
 20
5.594250804
 30
0.0
 11
0.9373666036
 21
5.594250804
 31
0.0
  0
LINE
  5
23C
330
1F
100
AcDbEntity
  8
0
  6
Continuous
 62
     7
370
    25
100
AcDbLine
 10
0.9373666036
 20
5.594250804
 30
0.0
 11
0.8924009578
 21
5.6645286028
 31
0.0
  0
LINE
  5
23D
330
1F
100
AcDbEntity
  8
0
  6
Continuous
 62
     7
370
    25
100
AcDbLine
 10
0.8924009578
 20
5.6645286028
 30
0.0
 11
0.9355999975
 21
5.7320460796
 31
0.0
  0
LINE
  5
23E
330
1F
100
AcDbEntity
  8
0
  6
Continuous
 62
     7
370
    25
100
AcDbLine
 10
0.9355999975
 20
5.7320460796
 30
0.0
 11
0.9213291326
 21
5.7320460796
 31
0.0
  0
LINE
  5
23F
330
1F
100
AcDbEntity
  8
0
  6
Continuous
 62
     7
370
    25
100
AcDbLine
 10
0.9213291326
 20
5.7320460796
 30
0.0
 11
0.8852517237
 21
5.6756803038
 31
0.0
  0
LINE
  5
240
330
1F
100
AcDbEntity
  8
0
  6
Continuous
 62
     7
370
    25
100
AcDbLine
 10
0.8852517237
 20
5.6756803038
 30
0.0
 11
0.8491743148
 21
5.7320460796
 31
0.0
  0
LINE
  5
241
330
1F
100
AcDbEntity
  8
0
  6
Continuous
 62
     7
370
    25
100
AcDbLine
 10
0.8491743148
 20
5.7320460796
 30
0.0
 11
0.83490345
 21
5.7320460796
 31
0.0
  0
LINE
  5
242
330
1F
100
AcDbEntity
  8
0
  6
Continuous
 62
     7
370
    25
100
AcDbLine
 10
0.83490345
 20
5.7320460796
 30
0.0
 11
0.8781300929
 21
5.6645286028
 31
0.0
  0
LINE
  5
243
330
1F
100
AcDbEntity
  8
0
  6
Continuous
 62
     7
370
    25
100
AcDbLine
 10
0.8092876615
 20
5.6488223705
 30
0.0
 11
0.8092876615
 21
5.7320460796
 31
0.0
  0
LINE
  5
244
330
1F
100
AcDbEntity
  8
0
  6
Continuous
 62
     7
370
    25
100
AcDbLine
 10
0.8092876615
 20
5.7320460796
 30
0.0
 11
0.7969214189
 21
5.7320460796
 31
0.0
  0
LINE
  5
245
330
1F
100
AcDbEntity
  8
0
  6
Continuous
 62
     7
370
    25
100
AcDbLine
 10
0.7969214189
 20
5.7320460796
 30
0.0
 11
0.7969214189
 21
5.6494848478
 31
0.0
  0
LINE
  5
246
330
1F
100
AcDbEntity
  8
0
  6
Continuous
 62
     7
370
    25
100
AcDbLine
 10
0.7333235994
 20
5.6494848478
 30
0.0
 11
0.7333235994
 21
5.7320460796
 31
0.0
  0
LINE
  5
247
330
1F
100
AcDbEntity
  8
0
  6
Continuous
 62
     7
370
    25
100
AcDbLine
 10
0.7333235994
 20
5.7320460796
 30
0.0
 11
0.7209573567
 21
5.7320460796
 31
0.0
  0
LINE
  5
248
330
1F
100
AcDbEntity
  8
0
  6
Continuous
 62
     7
370
    25
100
AcDbLine
 10
0.7209573567
 20
5.7320460796
 30
0.0
 11
0.7209573567
 21
5.6488223705
 31
0.0
  0
LINE
  5
249
330
1F
100
AcDbEntity
  8
0
  6
Continuous
 62
     7
370
    25
100
AcDbLine
 10
0.6308604457
 20
5.7320460796
 30
0.0
 11
0.5654960201
 21
5.594250804
 31
0.0
  0
LINE
  5
24A
330
1F
100
AcDbEntity
  8
0
  6
Continuous
 62
     7
370
    25
100
AcDbLine
 10
0.5654960201
 20
5.594250804
 30
0.0
 11
0.5789939948
 21
5.594250804
 31
0.0
  0
LINE
  5
24B
330
1F
100
AcDbEntity
  8
0
  6
Continuous
 62
     7
370
    25
100
AcDbLine
 10
0.5789939948
 20
5.594250804
 30
0.0
 11
0.599944839
 21
5.6384159564
 31
0.0
  0
LINE
  5
24C
330
1F
100
AcDbEntity
  8
0
  6
Continuous
 62
     7
370
    25
100
AcDbLine
 10
0.599944839
 20
5.6384159564
 30
0.0
 11
0.6624109265
 21
5.6384159564
 31
0.0
  0
LINE
  5
24D
330
1F
100
AcDbEntity
  8
0
  6
Continuous
 62
     7
370
    25
100
AcDbLine
 10
0.6624109265
 20
5.6384159564
 30
0.0
 11
0.682782103
 21
5.594250804
 31
0.0
  0
LINE
  5
24E
330
1F
100
AcDbEntity
  8
0
  6
Continuous
 62
     7
370
    25
100
AcDbLine
 10
0.682782103
 20
5.594250804
 30
0.0
 11
0.6962248713
 21
5.594250804
 31
0.0
  0
LINE
  5
24F
330
1F
100
AcDbEntity
  8
0
  6
Continuous
 62
     7
370
    25
100
AcDbLine
 10
0.6962248713
 20
5.594250804
 30
0.0
 11
0.6326270518
 21
5.7320460796
 31
0.0
  0
LINE
  5
250
330
1F
100
AcDbEntity
  8
0
  6
Continuous
 62
     7
370
    25
100
AcDbLine
 10
0.6326270518
 20
5.7320460796
 30
0.0
 11
0.6308604457
 21
5.7320460796
 31
0.0
  0
LINE
  5
251
330
1F
100
AcDbEntity
  8
0
  6
Continuous
 62
     7
370
    25
100
AcDbLine
 10
-0.8736098896
 20
4.5867049136
 30
0.0
 11
-0.8612436469
 21
4.5867049136
 31
0.0
  0
LINE
  5
252
330
1F
100
AcDbEntity
  8
0
  6
Continuous
 62
     7
370
    25
100
AcDbLine
 10
-0.8612436469
 20
4.5867049136
 30
0.0
 11
-0.8612436469
 21
4.6538359453
 31
0.0
  0
LINE
  5
253
330
1F
100
AcDbEntity
  8
0
  6
Continuous
 62
     7
370
    25
100
AcDbLine
 10
-0.8612436469
 20
4.6538359453
 30
0.0
 11
-0.790579403
 21
4.6538359453
 31
0.0
  0
LINE
  5
254
330
1F
100
AcDbEntity
  8
0
  6
Continuous
 62
     7
370
    25
100
AcDbLine
 10
-0.790579403
 20
4.6538359453
 30
0.0
 11
-0.790579403
 21
4.5867049136
 31
0.0
  0
LINE
  5
255
330
1F
100
AcDbEntity
  8
0
  6
Continuous
 62
     7
370
    25
100
AcDbLine
 10
-0.790579403
 20
4.5867049136
 30
0.0
 11
-0.7782131604
 21
4.5867049136
 31
0.0
  0
LINE
  5
256
330
1F
100
AcDbEntity
  8
0
  6
Continuous
 62
     7
370
    25
100
AcDbLine
 10
-0.7782131604
 20
4.5867049136
 30
0.0
 11
-0.7782131604
 21
4.7245001892
 31
0.0
  0
LINE
  5
257
330
1F
100
AcDbEntity
  8
0
  6
Continuous
 62
     7
370
    25
100
AcDbLine
 10
-0.7782131604
 20
4.7245001892
 30
0.0
 11
-0.790579403
 21
4.7245001892
 31
0.0
  0
LINE
  5
258
330
1F
100
AcDbEntity
  8
0
  6
Continuous
 62
     7
370
    25
100
AcDbLine
 10
-0.790579403
 20
4.7245001892
 30
0.0
 11
-0.790579403
 21
4.6679687941
 31
0.0
  0
LINE
  5
259
330
1F
100
AcDbEntity
  8
0
  6
Continuous
 62
     7
370
    25
100
AcDbLine
 10
-0.790579403
 20
4.6679687941
 30
0.0
 11
-0.8612436469
 21
4.6679687941
 31
0.0
  0
LINE
  5
25A
330
1F
100
AcDbEntity
  8
0
  6
Continuous
 62
     7
370
    25
100
AcDbLine
 10
-0.8612436469
 20
4.6679687941
 30
0.0
 11
-0.8612436469
 21
4.7245001892
 31
0.0
  0
LINE
  5
25B
330
1F
100
AcDbEntity
  8
0
  6
Continuous
 62
     7
370
    25
100
AcDbLine
 10
-0.8612436469
 20
4.7245001892
 30
0.0
 11
-0.8736098896
 21
4.7245001892
 31
0.0
  0
LINE
  5
25C
330
1F
100
AcDbEntity
  8
0
  6
Continuous
 62
     7
370
    25
100
AcDbLine
 10
-0.8736098896
 20
4.7245001892
 30
0.0
 11
-0.8736098896
 21
4.5867049136
 31
0.0
  0
LINE
  5
25D
330
1F
100
AcDbEntity
  8
0
  6
Continuous
 62
     7
370
    25
100
AcDbLine
 10
-0.7018074466
 20
4.6437331667
 30
0.0
 11
-0.7552472811
 21
4.5867049136
 31
0.0
  0
LINE
  5
25E
330
1F
100
AcDbEntity
  8
0
  6
Continuous
 62
     7
370
    25
100
AcDbLine
 10
-0.7552472811
 20
4.5867049136
 30
0.0
 11
-0.6616171579
 21
4.5867049136
 31
0.0
  0
LINE
  5
25F
330
1F
100
AcDbEntity
  8
0
  6
Continuous
 62
     7
370
    25
100
AcDbLine
 10
-0.6616171579
 20
4.5867049136
 30
0.0
 11
-0.6616171579
 21
4.6008377624
 31
0.0
  0
LINE
  5
260
330
1F
100
AcDbEntity
  8
0
  6
Continuous
 62
     7
370
    25
100
AcDbLine
 10
-0.6616171579
 20
4.6008377624
 30
0.0
 11
-0.7257394386
 21
4.6008377624
 31
0.0
  0
LINE
  5
261
330
1F
100
AcDbEntity
  8
0
  6
Continuous
 62
     7
370
    25
100
AcDbLine
 10
-0.7257394386
 20
4.6008377624
 30
0.0
 11
-0.6912630165
 21
4.637632855
 31
0.0
  0
LINE
  5
262
330
1F
100
AcDbEntity
  8
0
  6
Continuous
 62
     7
370
    25
100
AcDbLine
 10
-0.7499474628
 20
4.6821016429
 30
0.0
 11
-0.7375812201
 21
4.6821016429
 31
0.0
  0
LINE
  5
263
330
1F
100
AcDbEntity
  8
0
  6
Continuous
 62
     7
370
    25
100
AcDbLine
 10
-0.463757275
 20
4.7103673404
 30
0.0
 11
-0.463757275
 21
4.5867049136
 31
0.0
  0
LINE
  5
264
330
1F
100
AcDbEntity
  8
0
  6
Continuous
 62
     7
370
    25
100
AcDbLine
 10
-0.463757275
 20
4.5867049136
 30
0.0
 11
-0.4513910324
 21
4.5867049136
 31
0.0
  0
LINE
  5
265
330
1F
100
AcDbEntity
  8
0
  6
Continuous
 62
     7
370
    25
100
AcDbLine
 10
-0.4513910324
 20
4.5867049136
 30
0.0
 11
-0.4513910324
 21
4.7103673404
 31
0.0
  0
LINE
  5
266
330
1F
100
AcDbEntity
  8
0
  6
Continuous
 62
     7
370
    25
100
AcDbLine
 10
-0.4513910324
 20
4.7103673404
 30
0.0
 11
-0.4213587287
 21
4.7103673404
 31
0.0
  0
LINE
  5
267
330
1F
100
AcDbEntity
  8
0
  6
Continuous
 62
     7
370
    25
100
AcDbLine
 10
-0.4213587287
 20
4.7103673404
 30
0.0
 11
-0.4213587287
 21
4.7245001892
 31
0.0
  0
LINE
  5
268
330
1F
100
AcDbEntity
  8
0
  6
Continuous
 62
     7
370
    25
100
AcDbLine
 10
-0.4213587287
 20
4.7245001892
 30
0.0
 11
-0.4937895787
 21
4.7245001892
 31
0.0
  0
LINE
  5
269
330
1F
100
AcDbEntity
  8
0
  6
Continuous
 62
     7
370
    25
100
AcDbLine
 10
-0.4937895787
 20
4.7245001892
 30
0.0
 11
-0.4937895787
 21
4.7103673404
 31
0.0
  0
LINE
  5
26A
330
1F
100
AcDbEntity
  8
0
  6
Continuous
 62
     7
370
    25
100
AcDbLine
 10
-0.4937895787
 20
4.7103673404
 30
0.0
 11
-0.463757275
 21
4.7103673404
 31
0.0
  0
LINE
  5
26B
330
1F
100
AcDbEntity
  8
0
  6
Continuous
 62
     7
370
    25
100
AcDbLine
 10
-0.4315706863
 20
5.1005625832
 30
0.0
 11
-0.4192044436
 21
5.1005625832
 31
0.0
  0
LINE
  5
26C
330
1F
100
AcDbEntity
  8
0
  6
Continuous
 62
     7
370
    25
100
AcDbLine
 10
-0.4192044436
 20
5.1005625832
 30
0.0
 11
-0.4192044436
 21
5.1641604027
 31
0.0
  0
LINE
  5
26D
330
1F
100
AcDbEntity
  8
0
  6
Continuous
 62
     7
370
    25
100
AcDbLine
 10
-0.4192044436
 20
5.1641604027
 30
0.0
 11
-0.409350094
 21
5.1641604027
 31
0.0
  0
LINE
  5
26E
330
1F
100
AcDbEntity
  8
0
  6
Continuous
 62
     7
370
    25
100
AcDbLine
 10
-0.4045471336
 20
5.2383578588
 30
0.0
 11
-0.4315706863
 21
5.2383578588
 31
0.0
  0
LINE
  5
26F
330
1F
100
AcDbEntity
  8
0
  6
Continuous
 62
     7
370
    25
100
AcDbLine
 10
-0.4315706863
 20
5.2383578588
 30
0.0
 11
-0.4315706863
 21
5.1005625832
 31
0.0
  0
LINE
  5
270
330
1F
100
AcDbEntity
  8
0
  6
Continuous
 62
     7
370
    25
100
AcDbLine
 10
-0.5728991741
 20
5.1005625832
 30
0.0
 11
-0.5075347485
 21
5.1005625832
 31
0.0
  0
LINE
  5
271
330
1F
100
AcDbEntity
  8
0
  6
Continuous
 62
     7
370
    25
100
AcDbLine
 10
-0.5075347485
 20
5.1005625832
 30
0.0
 11
-0.5075347485
 21
5.114695432
 31
0.0
  0
LINE
  5
272
330
1F
100
AcDbEntity
  8
0
  6
Continuous
 62
     7
370
    25
100
AcDbLine
 10
-0.5075347485
 20
5.114695432
 30
0.0
 11
-0.5605329314
 21
5.114695432
 31
0.0
  0
LINE
  5
273
330
1F
100
AcDbEntity
  8
0
  6
Continuous
 62
     7
370
    25
100
AcDbLine
 10
-0.5605329314
 20
5.114695432
 30
0.0
 11
-0.5605329314
 21
5.2383578588
 31
0.0
  0
LINE
  5
274
330
1F
100
AcDbEntity
  8
0
  6
Continuous
 62
     7
370
    25
100
AcDbLine
 10
-0.5605329314
 20
5.2383578588
 30
0.0
 11
-0.5728991741
 21
5.2383578588
 31
0.0
  0
LINE
  5
275
330
1F
100
AcDbEntity
  8
0
  6
Continuous
 62
     7
370
    25
100
AcDbLine
 10
-0.5728991741
 20
5.2383578588
 30
0.0
 11
-0.5728991741
 21
5.1005625832
 31
0.0
  0
LINE
  5
276
330
1F
100
AcDbEntity
  8
0
  6
Continuous
 62
     7
370
    25
100
AcDbLine
 10
-0.6753623277
 20
5.1005625832
 30
0.0
 11
-0.5976316594
 21
5.1005625832
 31
0.0
  0
LINE
  5
277
330
1F
100
AcDbEntity
  8
0
  6
Continuous
 62
     7
370
    25
100
AcDbLine
 10
-0.5976316594
 20
5.1005625832
 30
0.0
 11
-0.5976316594
 21
5.114695432
 31
0.0
  0
LINE
  5
278
330
1F
100
AcDbEntity
  8
0
  6
Continuous
 62
     7
370
    25
100
AcDbLine
 10
-0.5976316594
 20
5.114695432
 30
0.0
 11
-0.662996085
 21
5.114695432
 31
0.0
  0
LINE
  5
279
330
1F
100
AcDbEntity
  8
0
  6
Continuous
 62
     7
370
    25
100
AcDbLine
 10
-0.662996085
 20
5.114695432
 30
0.0
 11
-0.662996085
 21
5.1676936149
 31
0.0
  0
LINE
  5
27A
330
1F
100
AcDbEntity
  8
0
  6
Continuous
 62
     7
370
    25
100
AcDbLine
 10
-0.662996085
 20
5.1676936149
 30
0.0
 11
-0.5976316594
 21
5.1676936149
 31
0.0
  0
LINE
  5
27B
330
1F
100
AcDbEntity
  8
0
  6
Continuous
 62
     7
370
    25
100
AcDbLine
 10
-0.5976316594
 20
5.1676936149
 30
0.0
 11
-0.5976316594
 21
5.1818264637
 31
0.0
  0
LINE
  5
27C
330
1F
100
AcDbEntity
  8
0
  6
Continuous
 62
     7
370
    25
100
AcDbLine
 10
-0.5976316594
 20
5.1818264637
 30
0.0
 11
-0.662996085
 21
5.1818264637
 31
0.0
  0
LINE
  5
27D
330
1F
100
AcDbEntity
  8
0
  6
Continuous
 62
     7
370
    25
100
AcDbLine
 10
-0.662996085
 20
5.1818264637
 30
0.0
 11
-0.662996085
 21
5.22422501
 31
0.0
  0
LINE
  5
27E
330
1F
100
AcDbEntity
  8
0
  6
Continuous
 62
     7
370
    25
100
AcDbLine
 10
-0.662996085
 20
5.22422501
 30
0.0
 11
-0.5976316594
 21
5.22422501
 31
0.0
  0
LINE
  5
27F
330
1F
100
AcDbEntity
  8
0
  6
Continuous
 62
     7
370
    25
100
AcDbLine
 10
-0.5976316594
 20
5.22422501
 30
0.0
 11
-0.5976316594
 21
5.2383578588
 31
0.0
  0
LINE
  5
280
330
1F
100
AcDbEntity
  8
0
  6
Continuous
 62
     7
370
    25
100
AcDbLine
 10
-0.5976316594
 20
5.2383578588
 30
0.0
 11
-0.6753623277
 21
5.2383578588
 31
0.0
  0
LINE
  5
281
330
1F
100
AcDbEntity
  8
0
  6
Continuous
 62
     7
370
    25
100
AcDbLine
 10
-0.6753623277
 20
5.2383578588
 30
0.0
 11
-0.6753623277
 21
5.1005625832
 31
0.0
  0
LINE
  5
282
330
1F
100
AcDbEntity
  8
0
  6
Continuous
 62
     7
370
    25
100
AcDbLine
 10
-0.7106944497
 20
5.1551341497
 30
0.0
 11
-0.7106944497
 21
5.2383578588
 31
0.0
  0
LINE
  5
283
330
1F
100
AcDbEntity
  8
0
  6
Continuous
 62
     7
370
    25
100
AcDbLine
 10
-0.7106944497
 20
5.2383578588
 30
0.0
 11
-0.7230606923
 21
5.2383578588
 31
0.0
  0
LINE
  5
284
330
1F
100
AcDbEntity
  8
0
  6
Continuous
 62
     7
370
    25
100
AcDbLine
 10
-0.7230606923
 20
5.2383578588
 30
0.0
 11
-0.7230606923
 21
5.155796627
 31
0.0
  0
LINE
  5
285
330
1F
100
AcDbEntity
  8
0
  6
Continuous
 62
     7
370
    25
100
AcDbLine
 10
-0.7866585118
 20
5.155796627
 30
0.0
 11
-0.7866585118
 21
5.2383578588
 31
0.0
  0
LINE
  5
286
330
1F
100
AcDbEntity
  8
0
  6
Continuous
 62
     7
370
    25
100
AcDbLine
 10
-0.7866585118
 20
5.2383578588
 30
0.0
 11
-0.7990247545
 21
5.2383578588
 31
0.0
  0
LINE
  5
287
330
1F
100
AcDbEntity
  8
0
  6
Continuous
 62
     7
370
    25
100
AcDbLine
 10
-0.7990247545
 20
5.2383578588
 30
0.0
 11
-0.7990247545
 21
5.1551341497
 31
0.0
  0
LINE
  5
288
330
1F
100
AcDbEntity
  8
0
  6
Continuous
 62
     7
370
    25
100
AcDbLine
 10
-0.8908882716
 20
5.1005625832
 30
0.0
 11
-0.8785220289
 21
5.1005625832
 31
0.0
  0
LINE
  5
289
330
1F
100
AcDbEntity
  8
0
  6
Continuous
 62
     7
370
    25
100
AcDbLine
 10
-0.8785220289
 20
5.1005625832
 30
0.0
 11
-0.8785220289
 21
5.1676936149
 31
0.0
  0
LINE
  5
28A
330
1F
100
AcDbEntity
  8
0
  6
Continuous
 62
     7
370
    25
100
AcDbLine
 10
-0.8785220289
 20
5.1676936149
 30
0.0
 11
-0.8237572399
 21
5.1676936149
 31
0.0
  0
LINE
  5
28B
330
1F
100
AcDbEntity
  8
0
  6
Continuous
 62
     7
370
    25
100
AcDbLine
 10
-0.8237572399
 20
5.1676936149
 30
0.0
 11
-0.8237572399
 21
5.1818264637
 31
0.0
  0
LINE
  5
28C
330
1F
100
AcDbEntity
  8
0
  6
Continuous
 62
     7
370
    25
100
AcDbLine
 10
-0.8237572399
 20
5.1818264637
 30
0.0
 11
-0.8785220289
 21
5.1818264637
 31
0.0
  0
LINE
  5
28D
330
1F
100
AcDbEntity
  8
0
  6
Continuous
 62
     7
370
    25
100
AcDbLine
 10
-0.8785220289
 20
5.1818264637
 30
0.0
 11
-0.8785220289
 21
5.22422501
 31
0.0
  0
LINE
  5
28E
330
1F
100
AcDbEntity
  8
0
  6
Continuous
 62
     7
370
    25
100
AcDbLine
 10
-0.8785220289
 20
5.22422501
 30
0.0
 11
-0.8237572399
 21
5.22422501
 31
0.0
  0
LINE
  5
28F
330
1F
100
AcDbEntity
  8
0
  6
Continuous
 62
     7
370
    25
100
AcDbLine
 10
-0.8237572399
 20
5.22422501
 30
0.0
 11
-0.8237572399
 21
5.2383578588
 31
0.0
  0
LINE
  5
290
330
1F
100
AcDbEntity
  8
0
  6
Continuous
 62
     7
370
    25
100
AcDbLine
 10
-0.8237572399
 20
5.2383578588
 30
0.0
 11
-0.8908882716
 21
5.2383578588
 31
0.0
  0
LINE
  5
291
330
1F
100
AcDbEntity
  8
0
  6
Continuous
 62
     7
370
    25
100
AcDbLine
 10
-0.8908882716
 20
5.2383578588
 30
0.0
 11
-0.8908882716
 21
5.1005625832
 31
0.0
  0
LINE
  5
292
330
1F
100
AcDbEntity
  8
0
  6
Continuous
 62
     7
370
    25
100
AcDbLine
 10
7.0740423029
 20
5.4213610191
 30
0.0
 11
7.0488129596
 21
5.4215542417
 31
0.0
  0
LINE
  5
293
330
1F
100
AcDbEntity
  8
0
  6
Continuous
 62
     7
370
    25
100
AcDbLine
 10
7.0488129596
 20
5.4674860002
 30
0.0
 11
7.0746495738
 21
5.4674860002
 31
0.0
  0
LINE
  5
294
330
1F
100
AcDbEntity
  8
0
  6
Continuous
 62
     7
370
    25
100
AcDbLine
 10
7.0488129596
 20
5.4215542417
 30
0.0
 11
7.0488129596
 21
5.4674860002
 31
0.0
  0
LINE
  5
295
330
1F
100
AcDbEntity
  8
0
  6
Continuous
 62
     7
370
    25
100
AcDbLine
 10
0.6558965665
 20
5.6525488052
 30
0.0
 11
0.6066524215
 21
5.6525488052
 31
0.0
  0
LINE
  5
296
330
1F
100
AcDbEntity
  8
0
  6
Continuous
 62
     7
370
    25
100
AcDbLine
 10
0.6316057327
 20
5.7051881463
 30
0.0
 11
0.6558965665
 21
5.6525488052
 31
0.0
  0
LINE
  5
297
330
1F
100
AcDbEntity
  8
0
  6
Continuous
 62
     7
370
    25
100
AcDbLine
 10
0.6066524215
 20
5.6525488052
 30
0.0
 11
0.6316057327
 21
5.7051881463
 31
0.0
  0
LINE
  5
298
330
1F
100
AcDbEntity
  8
0
  6
Continuous
 62
     7
370
    25
100
AcDbLine
 10
-0.3950792291
 20
5.1779896161
 30
0.0
 11
-0.4192044436
 21
5.1782932515
 31
0.0
  0
LINE
  5
299
330
1F
100
AcDbEntity
  8
0
  6
Continuous
 62
     7
370
    25
100
AcDbLine
 10
-0.4192044436
 20
5.22422501
 30
0.0
 11
-0.3940027035
 21
5.22422501
 31
0.0
  0
LINE
  5
29A
330
1F
100
AcDbEntity
  8
0
  6
Continuous
 62
     7
370
    25
100
AcDbLine
 10
-0.4192044436
 20
5.1782932515
 30
0.0
 11
-0.4192044436
 21
5.22422501
 31
0.0
  0
LINE
  5
29B
330
1F
100
AcDbEntity
  8
0
  6
Continuous
 62
     7
370
    25
100
AcDbLine
 10
-0.4990227598
 20
5.6757531223
 30
0.0
 11
-0.5231479743
 21
5.6760567577
 31
0.0
  0
LINE
  5
29C
330
1F
100
AcDbEntity
  8
0
  6
Continuous
 62
     7
370
    25
100
AcDbLine
 10
-0.5231479743
 20
5.7219885162
 30
0.0
 11
-0.4979462342
 21
5.7219885162
 31
0.0
  0
LINE
  5
29D
330
1F
100
AcDbEntity
  8
0
  6
Continuous
 62
     7
370
    25
100
AcDbLine
 10
-0.5231479743
 20
5.6760567577
 30
0.0
 11
-0.5231479743
 21
5.7219885162
 31
0.0
  0
LINE
  5
29E
330
1F
100
AcDbEntity
  8
0
  6
Continuous
 62
     7
370
    25
100
AcDbLine
 10
-0.5231479743
 20
5.6619239089
 30
0.0
 11
-0.5132936247
 21
5.6619239089
 31
0.0
  0
LINE
  5
29F
330
1F
100
AcDbEntity
  8
0
  6
Continuous
 62
     7
370
    25
100
AcDbLine
 10
-0.5231479743
 20
5.5983260894
 30
0.0
 11
-0.5231479743
 21
5.6619239089
 31
0.0
  0
LINE
  5
2A0
330
1F
100
AcDbEntity
  8
0
  6
Continuous
 62
     7
370
    25
100
AcDbLine
 10
-0.535514217
 20
5.5983260894
 30
0.0
 11
-0.5231479743
 21
5.5983260894
 31
0.0
  0
LINE
  5
2A1
330
1F
100
AcDbEntity
  8
0
  6
Continuous
 62
     7
370
    25
100
AcDbLine
 10
-0.535514217
 20
5.736121365
 30
0.0
 11
-0.535514217
 21
5.5983260894
 31
0.0
  0
LINE
  5
2A2
330
1F
100
AcDbEntity
  8
0
  6
Continuous
 62
     7
370
    25
100
AcDbLine
 10
-0.5084906643
 20
5.736121365
 30
0.0
 11
-0.535514217
 21
5.736121365
 31
0.0
  0
LINE
  5
2A3
330
1F
100
AcDbEntity
  8
0
  6
Continuous
 62
     7
370
    25
100
AcDbLine
 10
-0.6644764621
 20
5.6124589382
 30
0.0
 11
-0.6644764621
 21
5.736121365
 31
0.0
  0
LINE
  5
2A4
330
1F
100
AcDbEntity
  8
0
  6
Continuous
 62
     7
370
    25
100
AcDbLine
 10
-0.6114782792
 20
5.6124589382
 30
0.0
 11
-0.6644764621
 21
5.6124589382
 31
0.0
  0
LINE
  5
2A5
330
1F
100
AcDbEntity
  8
0
  6
Continuous
 62
     7
370
    25
100
AcDbLine
 10
-0.6114782792
 20
5.5983260894
 30
0.0
 11
-0.6114782792
 21
5.6124589382
 31
0.0
  0
LINE
  5
2A6
330
1F
100
AcDbEntity
  8
0
  6
Continuous
 62
     7
370
    25
100
AcDbLine
 10
-0.6768427048
 20
5.5983260894
 30
0.0
 11
-0.6114782792
 21
5.5983260894
 31
0.0
  0
LINE
  5
2A7
330
1F
100
AcDbEntity
  8
0
  6
Continuous
 62
     7
370
    25
100
AcDbLine
 10
-0.6768427048
 20
5.736121365
 30
0.0
 11
-0.6768427048
 21
5.5983260894
 31
0.0
  0
LINE
  5
2A8
330
1F
100
AcDbEntity
  8
0
  6
Continuous
 62
     7
370
    25
100
AcDbLine
 10
-0.6644764621
 20
5.736121365
 30
0.0
 11
-0.6768427048
 21
5.736121365
 31
0.0
  0
LINE
  5
2A9
330
1F
100
AcDbEntity
  8
0
  6
Continuous
 62
     7
370
    25
100
AcDbLine
 10
-0.7121748267
 20
5.5983260894
 30
0.0
 11
-0.7121748267
 21
5.736121365
 31
0.0
  0
LINE
  5
2AA
330
1F
100
AcDbEntity
  8
0
  6
Continuous
 62
     7
370
    25
100
AcDbLine
 10
-0.7245410694
 20
5.5983260894
 30
0.0
 11
-0.7121748267
 21
5.5983260894
 31
0.0
  0
LINE
  5
2AB
330
1F
100
AcDbEntity
  8
0
  6
Continuous
 62
     7
370
    25
100
AcDbLine
 10
-0.7245410694
 20
5.736121365
 30
0.0
 11
-0.7245410694
 21
5.5983260894
 31
0.0
  0
LINE
  5
2AC
330
1F
100
AcDbEntity
  8
0
  6
Continuous
 62
     7
370
    25
100
AcDbLine
 10
-0.7121748267
 20
5.736121365
 30
0.0
 11
-0.7245410694
 21
5.736121365
 31
0.0
  0
ARC
  5
2AD
330
1F
100
AcDbEntity
  8
0
  6
Continuous
 62
     7
370
    25
100
AcDbCircle
 10
-0.9735405405
 20
0.2285143673
 30
0.0
 40
0.1250000000000002
100
AcDbArc
 50
208.2
 51
346.7903778907
  0
ARC
  5
2AE
330
1F
100
AcDbEntity
  8
0
  6
Continuous
 62
     7
370
    25
100
AcDbCircle
 10
-4.9378237768
 20
3.125
 30
0.0
 40
2.000000000000004
100
AcDbArc
 50
28.2
 51
90.0
  0
ARC
  5
2AF
330
1F
100
AcDbEntity
  8
0
  6
Continuous
 62
     7
370
    25
100
AcDbCircle
 10
4.9378237768
 20
3.125
 30
0.0
 40
1.999999999999987
100
AcDbArc
 50
90.0
 51
151.8
  0
ARC
  5
2B0
330
1F
100
AcDbEntity
  8
0
  6
Continuous
 62
     7
370
    25
100
AcDbCircle
 10
0.9735405405
 20
0.2285143673
 30
0.0
 40
0.1250000000000003
100
AcDbArc
 50
193.2096221093
 51
331.8
  0
ARC
  5
2B1
330
1F
100
AcDbEntity
  8
0
  6
Continuous
 62
     7
370
    25
100
AcDbCircle
 10
0.0
 20
0.0
 30
0.0
 40
0.8749999999999999
100
AcDbArc
 50
13.2096221093
 51
166.7903778907
  0
ARC
  5
2B2
330
1F
100
AcDbEntity
  8
0
  6
Continuous
 62
     7
370
    25
100
AcDbCircle
 10
-1.311637931
 20
4.625
 30
0.0
 40
0.25
100
AcDbArc
 50
180.0
 51
0.0
  0
ARC
  5
2B3
330
1F
100
AcDbEntity
  8
0
  6
Continuous
 62
     7
370
    25
100
AcDbCircle
 10
-1.311637931
 20
5.625
 30
0.0
 40
0.25
100
AcDbArc
 50
0.0
 51
180.0
  0
ARC
  5
2B4
330
1F
100
AcDbEntity
  8
0
  6
Continuous
 62
     7
370
    25
100
AcDbCircle
 10
1.311637931
 20
4.625
 30
0.0
 40
0.2500000000000007
100
AcDbArc
 50
180.0
 51
0.0
  0
ARC
  5
2B5
330
1F
100
AcDbEntity
  8
0
  6
Continuous
 62
     7
370
    25
100
AcDbCircle
 10
1.311637931
 20
5.625
 30
0.0
 40
0.25
100
AcDbArc
 50
0.0
 51
180.0
  0
ARC
  5
2B6
330
1F
100
AcDbEntity
  8
0
  6
Continuous
 62
     7
370
    25
100
AcDbCircle
 10
0.0
 20
-2.4271551724
 30
0.0
 40
9.124999999999792
100
AcDbArc
 50
80.4727166185
 51
99.5272833815
  0
ARC
  5
2B7
330
1F
100
AcDbEntity
  8
0
  6
Continuous
 62
     7
370
    25
100
AcDbCircle
 10
-1.5
 20
6.5103448276
 30
0.0
 40
0.062499999999999
100
AcDbArc
 50
99.5272833815
 51
189.5272833815
  0
ARC
  5
2B8
330
1F
100
AcDbEntity
  8
0
  6
Continuous
 62
     7
370
    25
100
AcDbCircle
 10
-1.311637931
 20
6.25
 30
0.0
 40
0.2500000000000011
100
AcDbArc
 50
180.0
 51
270.0
  0
ARC
  5
2B9
330
1F
100
AcDbEntity
  8
0
  6
Continuous
 62
     7
370
    25
100
AcDbCircle
 10
1.311637931
 20
6.25
 30
0.0
 40
0.25
100
AcDbArc
 50
270.0
 51
0.0
  0
ARC
  5
2BA
330
1F
100
AcDbEntity
  8
0
  6
Continuous
 62
     7
370
    25
100
AcDbCircle
 10
1.5
 20
6.5103448276
 30
0.0
 40
0.0624999999999919
100
AcDbArc
 50
350.4727166186
 51
80.4727166186
  0
MTEXT
  5
2BC
330
1F
100
AcDbEntity
  8
0
  6
Continuous
 62
     7
100
AcDbMText
 10
-8.75
 20
0.0633739582
 30
0.0
 40
0.1903
 41
0.0
 71
     1
 72
     1
  1
SOLIDWORKS Educational Product.
  7
SLDTEXTSTYLE0
 73
     1
 44
1.0
  0
MTEXT
  5
2BD
330
1F
100
AcDbEntity
  8
0
  6
Continuous
 62
     7
100
AcDbMText
 10
-8.75
 20
-0.2220760418
 30
0.0
 40
0.1903
 41
0.0
 71
     1
 72
     1
  1
For Instructional Use Only.
  7
SLDTEXTSTYLE0
 73
     1
 44
1.0
  0
ENDSEC
  0
SECTION
  2
OBJECTS
  0
DICTIONARY
  5
C
330
0
100
AcDbDictionary
281
     1
  3
ACAD_GROUP
350
D
  3
ACAD_LAYOUT
350
1A
  3
ACAD_MLINESTYLE
350
17
  3
ACAD_PLOTSETTINGS
350
19
  3
ACAD_PLOTSTYLENAME
350
E
  3
ACAD_SCALELIST
350
47
  3
DWGPROPS
350
2BE
  0
DICTIONARY
  5
D
102
{ACAD_REACTORS
330
C
102
}
330
C
100
AcDbDictionary
281
     1
  0
DICTIONARY
  5
1A
102
{ACAD_REACTORS
330
C
102
}
330
C
100
AcDbDictionary
281
     1
  3
Layout1
350
1E
  3
Layout2
350
26
  3
Model
350
22
  0
DICTIONARY
  5
17
102
{ACAD_REACTORS
330
C
102
}
330
C
100
AcDbDictionary
281
     1
  3
Standard
350
18
  0
DICTIONARY
  5
19
102
{ACAD_REACTORS
330
C
102
}
330
C
100
AcDbDictionary
281
     1
  0
ACDBDICTIONARYWDFLT
  5
E
102
{ACAD_REACTORS
330
C
102
}
330
C
100
AcDbDictionary
281
     1
  3
Normal
350
F
100
AcDbDictionaryWithDefault
340
F
  0
DICTIONARY
  5
47
102
{ACAD_REACTORS
330
C
102
}
330
C
100
AcDbDictionary
281
     1
  3
A0
350
48
  3
A1
350
49
  3
A2
350
4A
  3
A3
350
4B
  3
A4
350
4C
  3
A5
350
4D
  3
A6
350
4E
  3
A7
350
4F
  3
A8
350
50
  3
A9
350
51
  3
B1
350
52
  3
B2
350
53
  3
B3
350
54
  3
B4
350
55
  3
B5
350
56
  3
B6
350
57
  3
B7
350
58
  0
XRECORD
  5
2BE
102
{ACAD_REACTORS
330
C
102
}
330
C
100
AcDbXrecord
280
     1
  1
DWGPROPS COOKIE
  2

  3

  4

  6

  7

  8
jakob
  9

300
=
301
=
302
=
303
=
304
=
305
=
306
=
307
=
308
=
309
=
 40
0.0
 41
2460350.87219912
 42
2460350.87239632
  1

 90
        0
  0
LAYOUT
  5
1E
102
{ACAD_REACTORS
330
1A
102
}
330
1A
100
AcDbPlotSettings
  1

  2
none_device
  4

  6

 40
0.0
 41
0.0
 42
0.0
 43
0.0
 44
0.0
 45
0.0
 46
0.0
 47
0.0
 48
0.0
 49
0.0
140
0.0
141
0.0
142
1.0
143
1.0
 70
   688
 72
     0
 73
     0
 74
     5
  7

 75
    16
147
1.0
148
0.0
149
0.0
100
AcDbLayout
  1
Layout1
 70
     1
 71
     1
 10
0.0
 20
0.0
 11
12.0
 21
9.0
 12
0.0
 22
0.0
 32
0.0
 14
1.0000000000E+20
 24
1.0000000000E+20
 34
1.0000000000E+20
 15
-1.0000000000E+20
 25
-1.0000000000E+20
 35
-1.0000000000E+20
146
0.0
 13
0.0
 23
0.0
 33
0.0
 16
1.0
 26
0.0
 36
0.0
 17
0.0
 27
1.0
 37
0.0
 76
     0
330
1B
  0
LAYOUT
  5
26
102
{ACAD_REACTORS
330
1A
102
}
330
1A
100
AcDbPlotSettings
  1

  2
none_device
  4

  6

 40
0.0
 41
0.0
 42
0.0
 43
0.0
 44
0.0
 45
0.0
 46
0.0
 47
0.0
 48
0.0
 49
0.0
140
0.0
141
0.0
142
1.0
143
1.0
 70
   688
 72
     0
 73
     0
 74
     5
  7

 75
    16
147
1.0
148
0.0
149
0.0
100
AcDbLayout
  1
Layout2
 70
     1
 71
     2
 10
0.0
 20
0.0
 11
0.0
 21
0.0
 12
0.0
 22
0.0
 32
0.0
 14
0.0
 24
0.0
 34
0.0
 15
0.0
 25
0.0
 35
0.0
146
0.0
 13
0.0
 23
0.0
 33
0.0
 16
1.0
 26
0.0
 36
0.0
 17
0.0
 27
1.0
 37
0.0
 76
     0
330
23
  0
LAYOUT
  5
22
102
{ACAD_REACTORS
330
1A
102
}
330
1A
100
AcDbPlotSettings
  1

  2
none_device
  4
ANSI_A_(11.00_x_8.50_Inches)
  6

 40
6.35
 41
19.05
 42
6.35000508
 43
19.05000254
 44
279.4
 45
215.9
 46
133.34999746
 47
31.7728431564
 48
0.0
 49
0.0
140
0.0
141
0.0
142
0.6222857143
143
1.0
 70
  1696
 72
     0
 73
     0
 74
     0
  7

 75
     0
147
0.5913241897
148
-39.4088153714
149
0.0
100
AcDbLayout
  1
Model
 70
     1
 71
     0
 10
0.0
 20
0.0
 11
12.0
 21
9.0
 12
0.0
 22
0.0
 32
0.0
 14
-8.75
 24
0.1035143673
 34
0.0
 15
8.75
 25
7.125
 35
0.0
146
0.0
 13
0.0
 23
0.0
 33
0.0
 16
1.0
 26
0.0
 36
0.0
 17
0.0
 27
1.0
 37
0.0
 76
     0
330
1F
331
29
  0
MLINESTYLE
  5
18
102
{ACAD_REACTORS
330
17
102
}
330
17
100
AcDbMlineStyle
  2
Standard
 70
     0
  3

 62
   256
 51
90.0
 52
90.0
 71
     2
 49
0.5
 62
   256
  6
BYLAYER
 49
-0.5
 62
   256
  6
BYLAYER
  0
ACDBPLACEHOLDER
  5
F
102
{ACAD_REACTORS
330
E
102
}
330
E
  0
SCALE
  5
48
102
{ACAD_REACTORS
330
47
102
}
330
47
100
AcDbScale
 70
     0
300
1:1
140
1.0
141
1.0
290
     1
  0
SCALE
  5
49
102
{ACAD_REACTORS
330
47
102
}
330
47
100
AcDbScale
 70
     0
300
1/128" = 1'-0"
140
0.0078125
141
12.0
290
     0
  0
SCALE
  5
4A
102
{ACAD_REACTORS
330
47
102
}
330
47
100
AcDbScale
 70
     0
300
1/64" = 1'-0"
140
0.015625
141
12.0
290
     0
  0
SCALE
  5
4B
102
{ACAD_REACTORS
330
47
102
}
330
47
100
AcDbScale
 70
     0
300
1/32" = 1'-0"
140
0.03125
141
12.0
290
     0
  0
SCALE
  5
4C
102
{ACAD_REACTORS
330
47
102
}
330
47
100
AcDbScale
 70
     0
300
1/16" = 1'-0"
140
0.0625
141
12.0
290
     0
  0
SCALE
  5
4D
102
{ACAD_REACTORS
330
47
102
}
330
47
100
AcDbScale
 70
     0
300
3/32" = 1'-0"
140
0.09375
141
12.0
290
     0
  0
SCALE
  5
4E
102
{ACAD_REACTORS
330
47
102
}
330
47
100
AcDbScale
 70
     0
300
1/8" = 1'-0"
140
0.125
141
12.0
290
     0
  0
SCALE
  5
4F
102
{ACAD_REACTORS
330
47
102
}
330
47
100
AcDbScale
 70
     0
300
3/16" = 1'-0"
140
0.1875
141
12.0
290
     0
  0
SCALE
  5
50
102
{ACAD_REACTORS
330
47
102
}
330
47
100
AcDbScale
 70
     0
300
1/4" = 1'-0"
140
0.25
141
12.0
290
     0
  0
SCALE
  5
51
102
{ACAD_REACTORS
330
47
102
}
330
47
100
AcDbScale
 70
     0
300
3/8" = 1'-0"
140
0.375
141
12.0
290
     0
  0
SCALE
  5
52
102
{ACAD_REACTORS
330
47
102
}
330
47
100
AcDbScale
 70
     0
300
1/2" = 1'-0"
140
0.5
141
12.0
290
     0
  0
SCALE
  5
53
102
{ACAD_REACTORS
330
47
102
}
330
47
100
AcDbScale
 70
     0
300
3/4" = 1'-0"
140
0.75
141
12.0
290
     0
  0
SCALE
  5
54
102
{ACAD_REACTORS
330
47
102
}
330
47
100
AcDbScale
 70
     0
300
1" = 1'-0"
140
1.0
141
12.0
290
     0
  0
SCALE
  5
55
102
{ACAD_REACTORS
330
47
102
}
330
47
100
AcDbScale
 70
     0
300
1-1/2" = 1'-0"
140
1.5
141
12.0
290
     0
  0
SCALE
  5
56
102
{ACAD_REACTORS
330
47
102
}
330
47
100
AcDbScale
 70
     0
300
3" = 1'-0"
140
3.0
141
12.0
290
     0
  0
SCALE
  5
57
102
{ACAD_REACTORS
330
47
102
}
330
47
100
AcDbScale
 70
     0
300
6" = 1'-0"
140
6.0
141
12.0
290
     0
  0
SCALE
  5
58
102
{ACAD_REACTORS
330
47
102
}
330
47
100
AcDbScale
 70
     0
300
1'-0" = 1'-0"
140
12.0
141
12.0
290
     0
  0
ENDSEC
  0
EOF
