<?xml version="1.0" standalone="no"?>
<!DOCTYPE svg PUBLIC "-//W3C//DTD SVG 20010904//EN"
 "http://www.w3.org/TR/2001/REC-SVG-20010904/DTD/svg10.dtd">
<svg version="1.0" xmlns="http://www.w3.org/2000/svg"
 width="239.000000pt" height="211.000000pt" viewBox="0 0 239.000000 211.000000"
 preserveAspectRatio="xMidYMid meet">

<g transform="translate(0.000000,211.000000) scale(0.100000,-0.100000)"
fill="#000000" stroke="none">
<path d="M1171 2091 c-8 -5 5 -7 35 -4 27 3 51 7 53 9 9 8 -75 3 -88 -5z"/>
<path d="M1290 2079 c61 -24 103 -64 131 -124 15 -33 28 -55 28 -50 0 6 -12
35 -27 65 -20 40 -40 64 -76 88 -26 17 -56 32 -65 31 -10 0 -6 -4 9 -10z"/>
<path d="M1107 2060 c-15 -12 -36 -35 -48 -53 l-21 -32 29 33 c15 18 42 41 58
52 17 11 25 20 19 20 -6 0 -23 -9 -37 -20z"/>
<path d="M880 2008 c-22 -36 -23 -70 -2 -74 7 -1 8 0 2 3 -5 2 -10 9 -10 14 0
6 4 8 9 5 5 -4 7 3 4 14 -5 19 20 60 36 60 4 0 14 -12 23 -27 40 -67 77 -85
93 -45 5 13 3 13 -14 -2 -19 -17 -20 -16 -57 33 -21 28 -44 51 -51 51 -7 0
-22 -15 -33 -32z"/>
<path d="M1980 2020 c-11 -11 -19 -30 -19 -42 1 -21 2 -21 6 -3 19 78 113 68
113 -13 0 -17 5 -34 10 -37 6 -3 10 -2 10 3 0 6 15 19 33 31 17 11 28 21 24
21 -13 0 -51 -22 -59 -34 -4 -6 -8 2 -8 17 0 68 -66 101 -110 57z"/>
<path d="M315 1984 c-9 -14 -15 -28 -12 -30 2 -2 10 7 17 21 15 29 36 32 68 9
18 -12 22 -24 21 -67 -1 -29 4 -63 10 -77 10 -22 10 -21 4 10 -3 19 -5 52 -4
74 4 73 -68 114 -104 60z"/>
<path d="M1170 1976 c0 -2 8 -10 18 -17 15 -13 16 -12 3 4 -13 16 -21 21 -21
13z"/>
<path d="M1517 1952 c-10 -10 -17 -23 -17 -28 0 -4 7 2 16 14 24 34 40 26 55
-25 7 -27 15 -41 17 -31 5 24 -25 88 -41 88 -8 0 -21 -8 -30 -18z"/>
<path d="M2192 1953 c15 -10 29 -24 32 -33 3 -12 4 -12 5 2 1 17 -34 48 -54
48 -5 0 2 -8 17 -17z"/>
<path d="M159 1933 c-13 -17 -13 -17 6 -3 11 8 22 16 24 17 2 2 0 3 -6 3 -6 0
-17 -8 -24 -17z"/>
<path d="M220 1942 c0 -5 9 -12 20 -15 11 -3 22 -17 25 -33 10 -45 15 -57 20
-52 11 11 -21 81 -42 96 -13 8 -23 10 -23 4z"/>
<path d="M1970 1931 c0 -25 6 -27 13 -6 4 8 2 17 -3 20 -6 4 -10 -3 -10 -14z"/>
<path d="M918 1923 c7 -3 16 -2 19 1 4 3 -2 6 -13 5 -11 0 -14 -3 -6 -6z"/>
<path d="M298 1873 c-3 -27 1 -59 8 -73 10 -21 11 -15 7 45 -3 39 -7 71 -8 73
-2 2 -5 -18 -7 -45z"/>
<path d="M967 1896 c20 -26 27 -28 17 -3 -3 8 -12 18 -20 21 -11 4 -10 0 3
-18z"/>
<path d="M146 1895 c-3 -9 -6 -22 -5 -28 0 -7 5 -1 10 12 5 13 8 26 5 28 -2 2
-6 -3 -10 -12z"/>
<path d="M1118 1903 c6 -2 18 -2 25 0 6 3 1 5 -13 5 -14 0 -19 -2 -12 -5z"/>
<path d="M1470 1894 c-17 -9 -20 -14 -9 -14 9 0 22 7 29 15 15 18 13 18 -20
-1z"/>
<path d="M1087 1875 c-12 -8 -14 -15 -8 -20 6 -3 11 0 11 7 0 10 3 9 11 -2 9
-13 10 -12 5 3 -3 9 -1 17 4 17 6 0 10 -9 10 -19 0 -23 29 -36 44 -20 8 9 7
11 -4 7 -11 -4 -16 1 -18 15 0 12 2 17 6 12 4 -6 14 -11 22 -13 12 -3 12 -1 3
9 -17 17 -65 20 -86 4z"/>
<path d="M1523 1863 c9 -2 25 -2 35 0 9 3 1 5 -18 5 -19 0 -27 -2 -17 -5z"/>
<path d="M1956 1855 c-9 -26 -7 -32 5 -12 6 10 9 21 6 23 -2 3 -7 -2 -11 -11z"/>
<path d="M947 1832 c-15 -16 -27 -34 -27 -42 0 -8 7 -4 16 10 10 14 24 31 32
37 9 7 13 15 11 18 -3 3 -18 -8 -32 -23z"/>
<path d="M1479 1843 c-13 -16 -12 -17 4 -4 9 7 17 15 17 17 0 8 -8 3 -21 -13z"/>
<path d="M2205 1850 c-3 -5 -1 -10 4 -10 6 0 11 5 11 10 0 6 -2 10 -4 10 -3 0
-8 -4 -11 -10z"/>
<path d="M158 1837 c8 -9 11 -20 8 -25 -3 -5 3 -17 14 -27 11 -10 20 -16 20
-13 0 12 -32 68 -43 75 -7 4 -7 0 1 -10z"/>
<path d="M1317 1838 c-9 -6 -9 -8 1 -8 7 0 11 -4 7 -9 -3 -5 0 -13 6 -17 7 -4
9 -3 5 4 -3 6 -2 13 4 17 5 3 10 1 10 -5 0 -6 5 -8 10 -5 6 3 10 12 10 18 0
14 -34 17 -53 5z"/>
<path d="M2250 1843 c20 -7 40 -33 40 -51 0 -12 -2 -12 -17 -1 -15 13 -15 12
-4 -8 10 -19 8 -27 -10 -52 -23 -31 -19 -52 9 -50 15 1 15 2 0 6 -24 6 -23 13
7 53 14 19 25 41 25 50 0 24 -29 60 -48 59 -14 0 -14 -2 -2 -6z"/>
<path d="M775 1818 c-4 -15 -13 -28 -21 -30 -8 -2 -4 -8 12 -15 23 -11 24 -10
18 9 -3 11 -1 23 4 27 7 4 8 12 2 21 -7 11 -10 8 -15 -12z"/>
<path d="M819 1822 c7 -12 9 -28 5 -35 -5 -9 -4 -9 6 0 9 8 19 9 32 2 12 -6
18 -6 18 1 0 5 -5 10 -12 10 -6 0 -23 10 -36 23 l-25 22 12 -23z"/>
<path d="M1461 1811 c19 -29 48 -33 81 -10 23 17 32 19 44 8 13 -10 12 -14 -3
-32 -18 -19 -17 -20 5 -6 27 17 27 21 3 44 -19 16 -21 16 -51 -5 l-32 -23 -29
22 c-28 21 -29 21 -18 2z"/>
<path d="M90 1800 c-11 -11 -20 -25 -20 -31 0 -7 9 0 20 14 11 14 30 28 43 30
l22 4 -22 2 c-13 0 -32 -8 -43 -19z"/>
<path d="M1914 1789 c-28 -27 -34 -30 -54 -19 -33 18 -31 8 4 -19 17 -14 28
-21 23 -16 -4 5 9 26 30 47 20 21 35 38 32 38 -2 0 -18 -14 -35 -31z"/>
<path d="M436 1768 c9 -18 37 -48 64 -66 l49 -34 40 33 c23 18 41 34 41 37 0
5 -24 -12 -58 -42 l-22 -20 -43 31 c-23 16 -49 44 -57 61 -8 17 -18 32 -22 32
-4 0 -1 -15 8 -32z"/>
<path d="M1550 1787 c-9 -7 -14 -21 -12 -32 4 -16 2 -17 -11 -7 -13 11 -15 10
-10 -8 4 -15 9 -18 18 -10 6 5 15 6 20 2 4 -4 4 3 0 16 -4 13 -2 29 5 37 15
18 10 19 -10 2z"/>
<path d="M1120 1780 c-13 -8 -12 -10 3 -10 9 0 17 5 17 10 0 12 -1 12 -20 0z"/>
<path d="M690 1770 c-18 -12 -2 -12 25 0 13 6 15 9 5 9 -8 0 -22 -4 -30 -9z"/>
<path d="M840 1765 c0 -8 2 -15 4 -15 2 0 6 7 10 15 3 8 1 15 -4 15 -6 0 -10
-7 -10 -15z"/>
<path d="M898 1748 c4 -27 2 -30 -14 -24 -15 5 -16 4 -7 -5 6 -6 16 -9 21 -5
16 10 21 45 8 55 -10 8 -11 3 -8 -21z"/>
<path d="M1750 1755 c-19 -14 -28 -25 -22 -25 7 0 17 -10 23 -22 8 -20 9 -19
5 9 -5 28 -1 35 22 47 15 9 22 15 16 16 -5 0 -25 -11 -44 -25z"/>
<path d="M1607 1751 c-3 -13 -1 -18 9 -14 7 2 10 11 7 19 -7 19 -10 18 -16 -5z"/>
<path d="M645 1750 c-3 -6 1 -7 9 -4 18 7 21 14 7 14 -6 0 -13 -4 -16 -10z"/>
<path d="M937 1741 c-4 -17 -3 -21 5 -13 5 5 8 16 6 23 -3 8 -7 3 -11 -10z"/>
<path d="M71 1742 c-1 -7 17 -35 39 -61 22 -26 40 -49 40 -52 0 -2 -20 -3 -44
-1 -37 3 -46 0 -65 -23 -31 -40 -27 -71 11 -95 18 -11 44 -20 58 -20 14 0 39
-15 62 -37 50 -49 49 -38 -1 13 -21 22 -44 38 -50 36 -19 -6 -62 8 -56 19 4 5
1 8 -5 7 -7 -2 -17 5 -23 15 -20 30 11 71 57 75 20 2 43 -2 51 -8 10 -8 14 -7
17 6 1 9 -14 35 -35 58 -21 23 -42 50 -47 61 -5 11 -9 14 -9 7z"/>
<path d="M849 1733 c-13 -16 -12 -17 4 -4 9 7 17 15 17 17 0 8 -8 3 -21 -13z"/>
<path d="M1688 1743 c7 -3 16 -2 19 1 4 3 -2 6 -13 5 -11 0 -14 -3 -6 -6z"/>
<path d="M1029 1723 c-13 -16 -12 -17 4 -4 9 7 17 15 17 17 0 8 -8 3 -21 -13z"/>
<path d="M1375 1720 c10 -11 20 -20 23 -20 3 0 -3 9 -13 20 -10 11 -20 20 -23
20 -3 0 3 -9 13 -20z"/>
<path d="M1535 1709 c-4 -5 -12 -6 -18 -2 -9 5 -9 3 -1 -8 7 -8 14 -23 17 -34
3 -13 5 -7 6 15 2 33 2 34 16 16 12 -16 15 -17 15 -4 0 19 -27 32 -35 17z"/>
<path d="M1587 1703 c3 -6 11 -9 19 -6 20 7 17 19 -5 19 -11 0 -17 -6 -14 -13z"/>
<path d="M836 1702 c2 -2 -1 -13 -7 -24 -6 -11 -8 -22 -6 -25 3 -2 11 5 17 17
7 14 8 25 2 30 -5 4 -7 5 -6 2z"/>
<path d="M909 1693 c-13 -17 -13 -17 6 -3 11 8 22 16 24 17 2 2 0 3 -6 3 -6 0
-17 -8 -24 -17z"/>
<path d="M2313 1693 c18 -3 35 -16 48 -36 10 -18 19 -27 19 -21 0 26 -42 64
-68 63 l-27 -2 28 -4z"/>
<path d="M595 1669 c-4 -6 -5 -12 -2 -15 2 -3 7 2 10 11 7 17 1 20 -8 4z"/>
<path d="M1575 1671 c-3 -5 -1 -12 5 -16 5 -3 10 1 10 9 0 18 -6 21 -15 7z"/>
<path d="M1050 1638 c0 -45 34 -110 69 -131 41 -24 44 -21 10 13 -17 16 -27
35 -24 41 9 14 54 3 79 -19 11 -9 16 -11 12 -4 -11 18 45 16 70 -3 19 -15 19
-15 0 -30 -11 -8 -14 -15 -8 -15 18 0 100 78 108 102 5 17 8 18 16 7 8 -12 9
-12 6 0 -5 17 -105 24 -115 8 -3 -6 -1 -7 5 -3 13 8 66 -4 57 -13 -24 -23
-255 18 -255 45 0 8 -5 14 -11 14 -5 0 -7 5 -4 10 3 6 1 10 -4 10 -6 0 -11
-14 -11 -32z"/>
<path d="M849 1633 c-13 -16 -12 -17 4 -4 9 7 17 15 17 17 0 8 -8 3 -21 -13z"/>
<path d="M1510 1646 c0 -2 7 -9 15 -16 9 -7 15 -8 15 -2 0 5 -7 12 -15 16 -8
3 -15 4 -15 2z"/>
<path d="M891 1624 c0 -11 3 -14 6 -6 3 7 2 16 -1 19 -3 4 -6 -2 -5 -13z"/>
<path d="M1166 1628 c3 -5 11 -7 17 -5 7 2 21 0 32 -6 15 -7 17 -7 9 3 -13 14
-66 21 -58 8z"/>
<path d="M1298 1633 c7 -3 16 -2 19 1 4 3 -2 6 -13 5 -11 0 -14 -3 -6 -6z"/>
<path d="M1240 1620 c0 -5 7 -7 15 -4 8 4 15 8 15 10 0 2 -7 4 -15 4 -8 0 -15
-4 -15 -10z"/>
<path d="M2366 1604 c-4 -9 -4 -19 -1 -22 2 -3 7 3 11 12 4 9 4 19 1 22 -2 3
-7 -3 -11 -12z"/>
<path d="M110 1606 c0 -2 8 -10 18 -17 15 -13 16 -12 3 4 -13 16 -21 21 -21
13z"/>
<path d="M1580 1581 c0 -17 3 -32 8 -34 4 -3 7 10 7 29 0 19 -3 34 -7 34 -5 0
-8 -13 -8 -29z"/>
<path d="M893 1575 c0 -8 4 -12 9 -9 5 3 6 10 3 15 -9 13 -12 11 -12 -6z"/>
<path d="M2232 1546 c-44 -36 -47 -39 -38 -56 2 -6 3 -5 2 2 -2 7 20 30 47 51
28 20 46 37 41 37 -5 0 -28 -16 -52 -34z"/>
<path d="M619 1553 c-13 -16 -12 -17 4 -4 9 7 17 15 17 17 0 8 -8 3 -21 -13z"/>
<path d="M1506 1557 c3 -10 9 -15 12 -12 3 3 0 11 -7 18 -10 9 -11 8 -5 -6z"/>
<path d="M2308 1563 c7 -3 16 -2 19 1 4 3 -2 6 -13 5 -11 0 -14 -3 -6 -6z"/>
<path d="M903 1549 c-7 -7 -7 -17 1 -35 12 -26 21 -30 32 -12 4 6 3 8 -4 4
-12 -7 -26 29 -17 44 8 13 2 13 -12 -1z"/>
<path d="M1871 1534 c0 -11 3 -14 6 -6 3 7 2 16 -1 19 -3 4 -6 -2 -5 -13z"/>
<path d="M780 1516 c0 -2 8 -10 18 -17 15 -13 16 -12 3 4 -13 16 -21 21 -21
13z"/>
<path d="M845 1510 c3 -5 8 -10 11 -10 2 0 4 5 4 10 0 6 -5 10 -11 10 -5 0 -7
-4 -4 -10z"/>
<path d="M559 1493 c-13 -16 -12 -17 4 -4 9 7 17 15 17 17 0 8 -8 3 -21 -13z"/>
<path d="M764 1479 c-3 -6 -1 -16 5 -22 9 -9 10 -7 5 7 -6 16 -4 18 10 13 10
-4 15 -3 11 3 -8 13 -22 13 -31 -1z"/>
<path d="M1193 1483 c9 -2 25 -2 35 0 9 3 1 5 -18 5 -19 0 -27 -2 -17 -5z"/>
<path d="M1480 1454 c0 -8 -3 -13 -7 -11 -5 3 -8 -6 -8 -19 0 -13 3 -24 8 -24
4 0 7 9 7 21 0 11 4 18 9 15 5 -4 7 3 4 14 -6 24 -13 26 -13 4z"/>
<path d="M1542 1454 c10 -10 20 -16 22 -13 3 3 -5 11 -17 18 -21 13 -21 12 -5
-5z"/>
<path d="M2202 1450 c0 -14 2 -19 5 -12 2 6 2 18 0 25 -3 6 -5 1 -5 -13z"/>
<path d="M1045 1440 c10 -11 20 -20 23 -20 3 0 -3 9 -13 20 -10 11 -20 20 -23
20 -3 0 3 -9 13 -20z"/>
<path d="M2129 1433 c-13 -16 -12 -17 4 -4 9 7 17 15 17 17 0 8 -8 3 -21 -13z"/>
<path d="M820 1436 c0 -2 8 -10 18 -17 15 -13 16 -12 3 4 -13 16 -21 21 -21
13z"/>
<path d="M1309 1423 c-13 -16 -12 -17 4 -4 16 13 21 21 13 21 -2 0 -10 -8 -17
-17z"/>
<path d="M1018 1406 c12 -15 19 -33 15 -40 -3 -6 0 -5 8 2 11 10 8 17 -15 40
l-29 27 21 -29z"/>
<path d="M2187 1401 c-4 -17 -3 -21 5 -13 5 5 8 16 6 23 -3 8 -7 3 -11 -10z"/>
<path d="M192 1380 c0 -19 2 -27 5 -17 2 9 2 25 0 35 -3 9 -5 1 -5 -18z"/>
<path d="M1270 1400 c-9 -6 -10 -10 -3 -10 6 0 15 5 18 10 8 12 4 12 -15 0z"/>
<path d="M1525 1400 c-4 -6 -11 -7 -17 -4 -7 4 -8 2 -4 -5 6 -9 11 -9 22 0 14
11 18 19 10 19 -3 0 -8 -5 -11 -10z"/>
<path d="M2023 1403 c9 -2 25 -2 35 0 9 3 1 5 -18 5 -19 0 -27 -2 -17 -5z"/>
<path d="M846 1383 c-6 -14 -5 -15 5 -6 7 7 10 15 7 18 -3 3 -9 -2 -12 -12z"/>
<path d="M1365 1358 l-40 -43 42 39 c26 24 46 35 54 31 8 -5 10 -4 5 3 -11 19
-19 15 -61 -30z"/>
<path d="M1441 1390 c-1 -21 -75 -92 -86 -83 -4 5 -5 3 -1 -4 4 -7 12 -10 19
-7 23 11 79 83 74 96 -4 9 -6 8 -6 -2z"/>
<path d="M985 1380 c3 -5 8 -10 11 -10 2 0 4 5 4 10 0 6 -5 10 -11 10 -5 0 -7
-4 -4 -10z"/>
<path d="M1208 1383 c7 -3 16 -2 19 1 4 3 -2 6 -13 5 -11 0 -14 -3 -6 -6z"/>
<path d="M2131 1322 c-25 -26 -34 -40 -21 -31 21 14 79 80 69 79 -2 -1 -24
-22 -48 -48z"/>
<path d="M260 1356 c0 -2 8 -10 18 -17 15 -13 16 -12 3 4 -13 16 -21 21 -21
13z"/>
<path d="M1050 1348 c0 -6 3 -8 7 -5 3 4 16 -1 27 -10 21 -18 21 -18 2 5 -21
24 -36 29 -36 10z"/>
<path d="M1708 1333 c12 -2 32 -2 45 0 12 2 2 4 -23 4 -25 0 -35 -2 -22 -4z"/>
<path d="M368 1323 c7 -3 16 -2 19 1 4 3 -2 6 -13 5 -11 0 -14 -3 -6 -6z"/>
<path d="M1650 1262 c0 -47 -6 -79 -19 -105 -10 -20 -14 -37 -9 -37 6 0 8 -11
6 -25 -3 -14 -2 -28 2 -30 4 -3 7 10 7 28 -1 18 3 38 7 45 4 8 10 50 13 95 3
45 11 85 17 89 7 5 4 8 -6 8 -15 0 -18 -10 -18 -68z"/>
<path d="M922 1300 c0 -14 2 -19 5 -12 2 6 2 18 0 25 -3 6 -5 1 -5 -13z"/>
<path d="M699 1268 l5 -43 6 35 c6 36 4 50 -8 50 -4 0 -5 -19 -3 -42z"/>
<path d="M1841 1306 c2 -2 15 -9 29 -15 24 -11 24 -11 6 3 -16 13 -49 24 -35
12z"/>
<path d="M245 1260 c21 -22 41 -40 44 -40 3 0 -13 18 -34 40 -21 22 -41 40
-44 40 -3 0 13 -18 34 -40z"/>
<path d="M560 1270 c-25 -17 -58 -39 -75 -50 -16 -11 -25 -20 -18 -20 6 0 24
10 40 23 15 13 48 36 73 50 25 15 41 27 35 27 -5 0 -30 -14 -55 -30z"/>
<path d="M1320 1275 c-9 -10 -9 -15 -1 -15 6 0 11 6 11 13 0 8 4 7 10 -3 6 -9
10 -10 10 -3 0 19 -17 24 -30 8z"/>
<path d="M1910 1270 c8 -5 22 -9 30 -9 10 0 8 3 -5 9 -27 12 -43 12 -25 0z"/>
<path d="M1083 1263 c9 -2 25 -2 35 0 9 3 1 5 -18 5 -19 0 -27 -2 -17 -5z"/>
<path d="M1206 1251 c-4 -5 3 -7 14 -4 23 6 26 13 6 13 -8 0 -17 -4 -20 -9z"/>
<path d="M1988 1253 c6 -2 18 -2 25 0 6 3 1 5 -13 5 -14 0 -19 -2 -12 -5z"/>
<path d="M935 1230 c-4 -6 -11 -7 -17 -4 -7 4 -8 2 -4 -5 6 -9 11 -9 22 0 14
11 18 19 10 19 -3 0 -8 -5 -11 -10z"/>
<path d="M1216 1231 c-4 -5 3 -7 14 -4 23 6 26 13 6 13 -8 0 -17 -4 -20 -9z"/>
<path d="M1595 1232 c3 -3 -1 -12 -7 -21 -8 -10 -4 -9 10 3 26 23 26 23 7 23
-8 0 -13 -3 -10 -5z"/>
<path d="M306 1210 c6 -6 28 -13 50 -15 21 -2 30 -2 19 1 -11 3 -33 10 -50 15
-21 7 -26 6 -19 -1z"/>
<path d="M810 1205 c0 -13 20 -35 32 -35 4 0 8 5 8 11 0 5 -4 8 -9 4 -6 -3
-14 3 -20 12 -6 10 -11 13 -11 8z"/>
<path d="M1020 1199 c0 -5 5 -7 10 -4 6 3 10 8 10 11 0 2 -4 4 -10 4 -5 0 -10
-5 -10 -11z"/>
<path d="M418 1193 c6 -2 18 -2 25 0 6 3 1 5 -13 5 -14 0 -19 -2 -12 -5z"/>
<path d="M1551 1187 c2 -1 13 -9 24 -17 19 -14 19 -14 6 3 -7 9 -18 17 -24 17
-6 0 -8 -1 -6 -3z"/>
<path d="M706 1145 c8 -35 14 -45 14 -22 0 11 6 15 18 11 13 -4 12 -2 -3 7
-11 7 -24 17 -28 23 -4 6 -5 -2 -1 -19z"/>
<path d="M747 1159 c7 -7 15 -10 18 -7 3 3 -2 9 -12 12 -14 6 -15 5 -6 -5z"/>
<path d="M790 1150 c6 -11 13 -20 16 -20 2 0 0 9 -6 20 -6 11 -13 20 -16 20
-2 0 0 -9 6 -20z"/>
<path d="M870 1160 c0 -5 5 -10 11 -10 5 0 7 5 4 10 -3 6 -8 10 -11 10 -2 0
-4 -4 -4 -10z"/>
<path d="M906 1138 c3 -5 10 -6 15 -3 13 9 11 12 -6 12 -8 0 -12 -4 -9 -9z"/>
<path d="M1086 1133 c-6 -14 -5 -15 5 -6 7 7 10 15 7 18 -3 3 -9 -2 -12 -12z"/>
<path d="M703 1060 c0 -25 2 -35 4 -22 2 12 2 32 0 45 -2 12 -4 2 -4 -23z"/>
<path d="M1327 1089 c7 -7 15 -10 18 -7 3 3 -2 9 -12 12 -14 6 -15 5 -6 -5z"/>
<path d="M1636 1004 c-4 -20 -5 -38 -3 -40 3 -3 8 11 11 32 4 20 5 38 3 40 -3
3 -8 -11 -11 -32z"/>
<path d="M711 984 c0 -11 3 -14 6 -6 3 7 2 16 -1 19 -3 4 -6 -2 -5 -13z"/>
<path d="M720 954 c0 -6 7 -19 16 -30 14 -18 14 -18 3 6 -14 31 -19 36 -19 24z"/>
<path d="M1606 912 c-10 -20 -23 -46 -28 -57 -8 -16 -8 -18 3 -8 9 10 16 10
26 1 12 -10 12 -7 3 14 -10 21 -9 30 5 52 10 15 16 29 13 31 -2 2 -12 -12 -22
-33z"/>
<path d="M702 815 c-30 -62 -27 -71 4 -12 14 27 24 51 22 53 -3 2 -14 -17 -26
-41z"/>
<path d="M1629 813 c6 -10 22 -31 36 -48 20 -23 19 -18 -6 18 -32 46 -49 63
-30 30z"/>
<path d="M665 739 c-4 -6 -5 -12 -2 -15 2 -3 7 2 10 11 7 17 1 20 -8 4z"/>
<path d="M1691 719 c-1 -9 8 -36 19 -60 27 -59 25 -127 -4 -197 -30 -72 -47
-134 -35 -127 5 4 9 -3 9 -14 0 -10 3 -27 6 -36 4 -10 2 -15 -7 -13 -8 2 -14
-7 -16 -22 l-2 -25 7 25 c5 17 10 21 16 12 4 -6 4 -17 0 -24 -4 -6 -3 -8 3 -5
5 4 24 -4 42 -17 20 -15 28 -27 21 -31 -6 -4 -21 1 -33 12 -20 17 -21 17 -8 0
19 -24 52 -42 49 -26 -6 24 20 18 72 -18 58 -41 99 -98 83 -114 -12 -12 -87
-15 -137 -5 -22 4 -62 19 -90 33 -59 30 -127 55 -134 49 -2 -3 15 -10 37 -17
28 -8 38 -15 29 -21 -10 -6 -10 -8 2 -8 8 0 31 -8 50 -19 70 -37 185 -51 230
-28 54 28 9 96 -112 168 -37 22 -68 47 -68 55 0 8 -6 25 -14 37 -29 46 -29 82
3 162 36 89 39 146 12 213 -11 26 -22 54 -24 62 -5 12 -6 12 -6 -1z m16 -471
c-3 -8 -6 -5 -6 6 -1 11 2 17 5 13 3 -3 4 -12 1 -19z"/>
<path d="M646 695 c-9 -26 -7 -32 5 -12 6 10 9 21 6 23 -2 3 -7 -2 -11 -11z"/>
<path d="M1188 703 c6 -2 18 -2 25 0 6 3 1 5 -13 5 -14 0 -19 -2 -12 -5z"/>
<path d="M1250 680 c-9 -6 -10 -10 -3 -10 6 0 15 5 18 10 8 12 4 12 -15 0z"/>
<path d="M630 629 c-7 -11 -9 -23 -7 -26 3 -2 8 5 12 16 3 12 11 18 17 15 7
-4 8 -2 4 4 -10 16 -14 15 -26 -9z"/>
<path d="M596 537 c-9 -30 -16 -61 -15 -69 0 -7 9 16 20 51 10 36 17 67 15 69
-2 2 -11 -21 -20 -51z"/>
<path d="M1410 554 l-35 -13 40 5 c53 7 97 -9 89 -33 -5 -14 -4 -15 4 -4 6 8
15 10 23 6 10 -5 9 -3 -1 8 -8 8 -31 22 -50 30 -29 11 -41 12 -70 1z"/>
<path d="M844 472 c-43 -37 -80 -74 -82 -82 -2 -8 -13 -22 -24 -31 -16 -12
-18 -18 -8 -24 9 -5 11 -4 6 3 -4 7 -2 12 4 12 6 0 20 15 31 34 11 19 51 60
89 91 68 55 68 56 111 46 24 -6 53 -10 64 -10 16 1 -81 27 -106 29 -3 0 -41
-31 -85 -68z"/>
<path d="M1348 533 c7 -3 16 -2 19 1 4 3 -2 6 -13 5 -11 0 -14 -3 -6 -6z"/>
<path d="M1287 523 c-4 -3 -57 -9 -119 -13 l-113 -7 90 -1 c77 0 228 23 169
27 -11 0 -24 -2 -27 -6z"/>
<path d="M1491 467 c0 -16 4 -48 10 -73 9 -36 9 -48 -4 -68 -9 -13 -18 -34
-20 -47 -2 -13 -9 -43 -17 -66 -17 -56 -8 -87 34 -107 19 -9 40 -16 48 -15 7
0 0 5 -17 11 -37 13 -65 37 -65 55 0 10 9 7 31 -11 17 -14 36 -26 42 -26 7 0
-2 9 -20 20 -45 27 -54 48 -38 88 8 17 11 32 7 32 -4 1 5 8 21 16 15 8 27 19
27 25 0 6 -8 3 -17 -7 -24 -23 -31 1 -8 26 16 17 16 27 7 77 -20 101 -20 100
-21 70z"/>
<path d="M578 422 c-3 -9 -1 -26 3 -37 6 -15 8 -11 8 18 1 40 -4 48 -11 19z"/>
<path d="M530 385 c-7 -8 -8 -15 -2 -15 5 0 12 -10 15 -21 5 -17 -13 -41 -84
-113 -58 -59 -89 -99 -89 -113 0 -32 46 -54 90 -43 l35 8 -40 1 c-44 2 -75 20
-75 43 0 18 126 138 135 129 4 -3 5 -1 4 4 -5 14 31 66 41 60 5 -3 2 9 -7 26
-13 26 -13 33 -2 40 8 5 9 9 3 9 -6 0 -17 -7 -24 -15z"/>
<path d="M583 305 c0 -8 4 -12 9 -9 5 3 6 10 3 15 -9 13 -12 11 -12 -6z"/>
<path d="M722 278 c-1 -27 -1 -50 1 -51 6 -9 -26 -36 -36 -30 -6 3 -7 1 -3 -5
4 -7 2 -13 -3 -13 -6 -1 -17 -2 -23 -3 -7 0 -14 -7 -14 -13 -1 -7 -2 -18 -3
-24 0 -5 -5 -8 -10 -5 -12 8 -33 -19 -23 -29 4 -5 -1 -5 -11 -2 -11 4 -16 3
-12 -3 3 -6 1 -10 -6 -10 -7 0 -10 -3 -7 -6 8 -8 68 24 68 37 0 5 21 29 46 52
44 42 45 43 41 97 l-3 55 -2 -47z"/>
<path d="M675 300 c-11 -4 -30 -6 -42 -3 -24 5 -32 -11 -11 -23 7 -4 8 -3 4 5
-6 8 -1 10 16 6 13 -3 31 0 43 9 22 17 20 19 -10 6z"/>
<path d="M1646 285 c-11 -8 -15 -15 -9 -15 6 0 16 7 23 15 16 19 11 19 -14 0z"/>
<path d="M1508 253 c6 -2 18 -2 25 0 6 3 1 5 -13 5 -14 0 -19 -2 -12 -5z"/>
<path d="M1608 248 c14 -7 26 -8 32 -2 5 5 -4 10 -23 11 -30 1 -31 1 -9 -9z"/>
<path d="M1776 161 c-4 -5 -2 -12 3 -15 5 -4 12 -2 15 3 4 5 2 12 -3 15 -5 4
-12 2 -15 -3z"/>
<path d="M1806 141 c-3 -4 3 -16 13 -25 14 -13 18 -14 18 -2 0 8 -5 14 -11 13
-6 -1 -10 4 -8 11 2 14 -4 16 -12 3z"/>
<path d="M1568 83 c7 -3 16 -2 19 1 4 3 -2 6 -13 5 -11 0 -14 -3 -6 -6z"/>
<path d="M538 73 c7 -3 16 -2 19 1 4 3 -2 6 -13 5 -11 0 -14 -3 -6 -6z"/>
<path d="M473 63 c9 -2 25 -2 35 0 9 3 1 5 -18 5 -19 0 -27 -2 -17 -5z"/>
</g>
</svg>
